<?xml version="1.0" encoding="utf-8"?>
<!-- Generator: Adobe Illustrator 23.0.1, SVG Export Plug-In . SVG Version: 6.00 Build 0)  -->
<svg version="1.1" id="Layer_1" xmlns="http://www.w3.org/2000/svg" xmlns:xlink="http://www.w3.org/1999/xlink" x="0px" y="0px"
	 viewBox="0 0 89.4 89.4" style="enable-background:new 0 0 89.4 89.4;" xml:space="preserve">
<style type="text/css">
	.st0{fill:#E8E7E7;}
	.st1{fill:#2D2A24;}
	.st2{fill:#D5D4D4;}
	.st3{fill:#FFFFFF;}
	.st4{fill:#EAD1C4;}
	.st5{fill:#090705;}
	.st6{fill:#C2DAE8;}
	.st7{fill:#0B0806;}
	.st8{fill:#DD697A;}
</style>
<g>
	<g>
		<g>
			<g>
				<path id="path-0" class="st0" d="M75.7,58.8c-3.3-1.3-8.1-2.4-13.6-3.1l-3.3-1.6c-3.5-0.3-8.4-0.3-13.6-0.2
					c-5.5-0.4-10.5-0.5-14.1-0.4c-4.1,0.1-7.4,1.2-10.1,2.5c-2.7,0.4-5.1,1.1-7,1.6c-1.6,0.5,0,3.9,3.6,7.7
					c4.2,4.9,12.4,12.1,24.3,13.3c1.1,0.1,2.2,0.2,3.3,0.2c13.6-0.1,22.9-8.4,27.3-13.2C75.8,62.2,77.1,59.4,75.7,58.8z"/>
			</g>
		</g>
		<g>
			<g>
				<path id="path-1" class="st1" d="M73.1,31c0.5-3.1,0.4-7.5,0-11c-0.1-0.7-0.1-1.4-0.3-2.1c-0.2-1.7-0.5-3.2-0.7-4
					c-0.2-0.5-0.7-1.9-1.8-2.7c-0.9-0.6-1.7-0.6-2.7-0.3c-0.9,0.3-1.9,1-3.2,2.1c-0.3,0.3-0.6,0.6-1.1,1.1c-3.6,3.6-6.4,8.1-6.7,8.2
					S50.7,22,44.9,22c-5.8,0-11.2,0.4-11.6,0.3c-0.3-0.1-3-4.6-6.7-8.2c-0.4-0.4-0.7-0.7-1.1-1.1c-1.3-1.2-2.2-1.8-3.2-2.1
					c-1-0.4-1.8-0.4-2.7,0.3c-1.1,0.7-1.6,2-1.8,2.7c-0.2,0.7-0.5,2.1-0.7,4c-0.1,0.7-0.2,1.4-0.3,2.1c-0.4,3.6-0.5,7.9,0,11
					c0,1.2-6.4,22.8-2.6,29.9c0.6,1.2,15.6-4,15.6-4s7.2-2,14-2.2h1.8c7.5,0.2,21.7,6.4,28.1,6.2c-0.2,0.1,1.9,0.2,2,0
					C79.8,53.8,73.4,32.1,73.1,31z"/>
			</g>
		</g>
		<g>
			<g>
				<path id="path-12" class="st2" d="M52.8,61.3c0.1,0,0.2,0,0.3-0.1c-0.3-0.1-0.5-0.3-0.9-0.4C52.2,61.1,52.4,61.3,52.8,61.3z"/>
			</g>
		</g>
		<g>
			<g>
				<path id="path-13" class="st2" d="M54.7,63.7c0,0.3,0.3,0.6,0.6,0.6c0.1,0,0.1,0,0.2,0c0-0.4-0.2-0.7-0.4-1.2
					C54.9,63.2,54.7,63.4,54.7,63.7z"/>
			</g>
		</g>
		<g>
			<g>
				<path id="path-14" class="st2" d="M38.3,60.7c-0.3,0.1-0.6,0.3-1,0.4c0.1,0.1,0.2,0.1,0.3,0.1C38,61.3,38.3,61.1,38.3,60.7z"/>
			</g>
		</g>
		<g>
			<g>
				<path id="path-15" class="st2" d="M35.4,64.3c0.3,0,0.6-0.3,0.6-0.6c0-0.3-0.3-0.6-0.6-0.6c-0.1,0-0.2,0-0.3,0.1
					c-0.1,0.2-0.2,0.4-0.3,0.7C34.9,64.2,35.1,64.3,35.4,64.3z"/>
			</g>
		</g>
		<g>
			<g>
				<path id="path-16" class="st2" d="M45.2,63.5c-1.1,2.5-3.3,4.4-6,5c1.7,0.5,3.7,1,6,1c2.2,0,4.3-0.3,6-1
					C48.4,67.9,46.1,66.1,45.2,63.5z"/>
			</g>
		</g>
		<g>
			<g>
				<path id="path-17" class="st2" d="M52.8,62.5c-0.3,0-0.6,0.3-0.6,0.6s0.3,0.6,0.6,0.6s0.6-0.3,0.6-0.6
					C53.4,62.8,53.1,62.5,52.8,62.5z"/>
			</g>
		</g>
		<g>
			<g>
				<path id="path-18" class="st2" d="M37.7,62.5c-0.3,0-0.6,0.3-0.6,0.6s0.3,0.6,0.6,0.6s0.6-0.3,0.6-0.6
					C38.3,62.8,38,62.5,37.7,62.5z"/>
			</g>
		</g>
		<g>
			<g>
				<path id="path-20" class="st3" d="M45.3,57.2c-0.1,0.1-0.1,0.2-0.1,0.3c0-0.1-0.1-0.2-0.1-0.2C45.2,57.2,45.2,57.2,45.3,57.2
					L45.3,57.2z M57.8,59.5c0.3,0,0.6,0.3,0.6,0.6c0,0.3-0.3,0.6-0.6,0.6s-0.6-0.3-0.6-0.6C57.3,59.8,57.6,59.5,57.8,59.5L57.8,59.5
					z M32.7,59.7c0.3,0,0.6,0.3,0.6,0.6c0,0.3-0.3,0.6-0.6,0.6s-0.6-0.3-0.6-0.6C32.2,59.9,32.4,59.7,32.7,59.7L32.7,59.7z M55,59.9
					c0.3,0,0.6,0.3,0.6,0.6c0,0.3-0.3,0.6-0.6,0.6s-0.6-0.3-0.6-0.6C54.4,60.2,54.7,59.9,55,59.9L55,59.9z M35.4,59.9
					c0.3,0,0.6,0.3,0.6,0.6c0,0.3-0.3,0.6-0.6,0.6c-0.3,0-0.6-0.3-0.6-0.6C34.8,60.2,35,59.9,35.4,59.9L35.4,59.9z M58,63.1
					c0.3,0,0.6,0.3,0.6,0.6c0,0.3-0.3,0.6-0.6,0.6s-0.6-0.3-0.6-0.6C57.4,63.3,57.7,63.1,58,63.1L58,63.1z M32.4,63.2
					c0.3,0,0.6,0.3,0.6,0.6c0,0.3-0.3,0.6-0.6,0.6s-0.6-0.3-0.6-0.6C31.8,63.4,32.1,63.2,32.4,63.2L32.4,63.2z M45.2,35.9
					c-0.4,0-0.9,0.5-1.1,1.1c-0.3,1-2.1,4.3-2.7,4.4l0,0c-0.5,0-1.3-2.9-1.8-3c-0.1,0-0.1,0-0.1,0c-0.3,0-0.4,0.7-0.7,3.3
					c-0.4,2.9-0.2,4.8,0.6,8c0.9,3.2-0.6,3.7-0.6,3.7c-0.7-0.5-1.7-1.2-2.2-1.2h-0.1c-4.2,0-7.9,4.8-7.9,8.4c0,4.6,3.9,8.4,8.7,8.4
					c0.6,0,1.4-0.1,2-0.2c-2.7-1-4.4-2.5-4.4-4.1c0-0.2,0-0.4,0-0.9l0,0c0,0,0.1-0.4,0.3-0.5c0.4-0.7,1.2-1.4,2.2-2
					c-0.1-0.1-0.2-0.3-0.2-0.4c0-0.3,0.3-0.6,0.6-0.6s0.6,0.3,0.6,0.6c1.8-0.7,4.2-1.2,6.9-1.2c2.7,0,5.1,0.5,7.1,1.2
					c0-0.3,0.3-0.6,0.6-0.6s0.6,0.3,0.6,0.6c0,0.2-0.1,0.4-0.3,0.5c1,0.5,1.7,1.2,2.2,1.9c-0.1,0,0.6,0.3,0.6,0.6
					c0,0.3-0.2,0.4-0.4,0.5v0c0,1.7-1.7,3.2-4.4,4.1c0.6,0.1,1.4,0.2,2,0.2c4.8,0,8.7-3.7,8.7-8.4c-0.1-3.5-3.9-8.4-8-8.4l0,0
					c-0.3,0-0.7,0.2-1.3,0.5c-0.5,0-0.9,0.1-1.2,0.1c-0.6,0-0.7-0.1-0.9-0.6c-0.1-0.6,1.4-6,1.6-6.9c0.1-0.9-0.6-5.8-1.1-6.5
					c-0.1-0.2-0.3-0.3-0.4-0.3c-0.3,0-0.6,0.5-0.9,1.2c-0.2,0.7-0.9,1.6-1.3,1.6c-0.2,0-0.4-0.1-0.5-0.4c-0.6-1.2-1.2-2-1.8-3.9
					C45.9,36.1,45.5,35.9,45.2,35.9L45.2,35.9z"/>
			</g>
		</g>
		<g>
			<g>
				<path id="path-21" class="st3" d="M37.7,62.5c-0.3,0-0.6,0.3-0.6,0.6s0.3,0.6,0.6,0.6s0.6-0.3,0.6-0.6
					C38.3,62.8,38,62.5,37.7,62.5L37.7,62.5z M52.8,62.5c-0.3,0-0.6,0.3-0.6,0.6s0.3,0.6,0.6,0.6s0.6-0.3,0.6-0.6
					C53.4,62.8,53.1,62.5,52.8,62.5L52.8,62.5z"/>
			</g>
		</g>
		<g>
			<g>
				<path id="path-22" class="st4" d="M30.7,24.2c-0.2-2.1-4.3-10.6-8.2-11.9c-5.1-1.6-3.1,16.9-2.1,18.1
					C23.1,33.8,30.9,26.8,30.7,24.2z"/>
			</g>
		</g>
		<g>
			<g>
				<path id="path-23" class="st4" d="M59.5,24.2c0.2-2.1,4.3-10.6,8.2-11.9c5.1-1.6,3.1,16.9,2.1,18.1C67,33.8,59.2,26.8,59.5,24.2
					z"/>
			</g>
		</g>
		<g>
			<g>
				<g>
					<path id="path-24" class="st5" d="M38.4,46.9c-0.6-0.7-2.7-3.6-6-4.4c-3.7-0.7-8.7,0.7-9.6,1.9c-1.8,2.1,1.4,1.2,1.8,1
						c0.4-0.1,1.1-0.5,1.2,0.5c0,1.1,0.4,5.4,4.5,6.7s8.2,1.2,8.9,0.5C39.8,52.6,40.2,49.2,38.4,46.9z"/>
				</g>
			</g>
			<g>
				<g>
					<path id="path-25" class="st6" d="M27.7,44.6c-0.1,0.1-1.5,3.9,2.4,6.2c3.4,2.1,7.1,0.7,7.1,0.7s0.6-4.7-1.9-6.5
						C32.2,43,29.9,43.2,27.7,44.6z"/>
				</g>
			</g>
			<g>
				<g>
					<path id="path-26" class="st7" d="M33.7,46.2c0.6,0.7,0.5,1.8-0.2,2.5c-0.7,0.6-1.8,0.5-2.6-0.2c-0.6-0.7-0.5-1.8,0.2-2.5
						C31.9,45.3,33.2,45.4,33.7,46.2z"/>
				</g>
			</g>
		</g>
		<g>
			<g>
				<g>
					<path id="path-27" class="st5" d="M51.6,46.9c0.6-0.7,2.7-3.6,6-4.4c3.7-0.7,8.7,0.7,9.6,1.9c1.8,2.1-1.4,1.2-1.8,1
						c-0.4-0.1-1.1-0.5-1.2,0.5s-0.4,5.4-4.5,6.7s-8.2,1.2-8.9,0.5C50.3,52.6,49.8,49.2,51.6,46.9z"/>
				</g>
			</g>
			<g>
				<g>
					<path id="path-28" class="st6" d="M62.3,44.6c0,0.1,1.5,3.9-2.4,6.2c-3.4,2.1-7.1,0.7-7.1,0.7s-0.6-4.7,1.9-6.5
						C57.8,43,60,43.2,62.3,44.6z"/>
				</g>
			</g>
			<g>
				<g>
					<path id="path-29" class="st7" d="M56.3,46.2c-0.6,0.7-0.5,1.8,0.2,2.5c0.7,0.6,1.8,0.5,2.6-0.2c0.6-0.7,0.5-1.8-0.2-2.5
						C58,45.3,56.9,45.4,56.3,46.2z"/>
				</g>
			</g>
		</g>
		<g>
			<g>
				<path id="path-30" class="st8" d="M44.9,63.9c-0.4,0-0.5-1.3-1-1.6c-0.4-0.2-3.5-1.2-3-2c0.5-0.9,2-0.9,4.1-1h0.2
					c2.1,0.1,3.6,0.2,4.1,1c0.5,0.7-2.6,1.7-3,2c-0.4,0.2-0.6,1.5-1,1.6H44.9z"/>
			</g>
		</g>
		<g>
			<g>
				<path id="path-31" class="st5" d="M36.8,60.6L36.8,60.6c-4.7-2.5-11.9-2.9-14.7-3c-0.1,0-0.2-0.1-0.2-0.2s0.1-0.2,0.2-0.2
					c2.9,0.1,10.1,0.6,14.8,3c0.1,0,0.1,0.1,0.1,0.2C37,60.6,36.9,60.6,36.8,60.6z"/>
			</g>
		</g>
		<g>
			<g>
				<path id="path-32" class="st5" d="M22.1,66.6c-0.1,0-0.1-0.1-0.1-0.2c0-0.1,0.1-0.2,0.2-0.2c2.9-0.1,10-0.6,14.6-3
					c0.1,0,0.2,0,0.2,0.1s0,0.2-0.1,0.2C32.2,66,25,66.5,22.1,66.6z"/>
			</g>
		</g>
		<g>
			<g>
				<path id="path-33" class="st5" d="M36.8,62H22.5c-0.1,0-0.2-0.1-0.2-0.2c0-0.1,0.1-0.2,0.2-0.2h14.2c0.1,0,0.2,0.1,0.2,0.2
					C37,62,36.9,62,36.8,62z"/>
			</g>
		</g>
		<g>
			<g>
				<path id="path-34" class="st5" d="M53.7,60.6c-0.1,0-0.1,0-0.1-0.1c0-0.1,0-0.2,0.1-0.2c4.7-2.5,11.9-2.9,14.8-3
					c0.1,0,0.2,0.1,0.2,0.2s-0.1,0.2-0.2,0.2C65.5,57.6,58.4,58.2,53.7,60.6L53.7,60.6z"/>
			</g>
		</g>
		<g>
			<g>
				<path id="path-35" class="st5" d="M68.4,66.6c0,0-10.1-0.6-14.8-3c-0.1,0-0.1-0.1-0.1-0.2c0-0.1,0.1-0.1,0.2-0.1
					c4.6,2.4,11.8,2.9,14.6,3c0.1,0,0.2,0.1,0.2,0.2C68.5,66.5,68.5,66.6,68.4,66.6z"/>
			</g>
		</g>
		<g>
			<g>
				<path id="path-36" class="st5" d="M68,62H53.7c-0.1,0-0.2-0.1-0.2-0.2c0-0.1,0.1-0.2,0.2-0.2H68c0.1,0,0.2,0.1,0.2,0.2
					C68.1,62,68.1,62,68,62z"/>
			</g>
		</g>
	</g>
</g>
</svg>
