<?xml version="1.0" encoding="utf-8"?>
<!-- Generator: Adobe Illustrator 23.0.1, SVG Export Plug-In . SVG Version: 6.00 Build 0)  -->
<svg version="1.1" id="Layer_1" xmlns="http://www.w3.org/2000/svg" xmlns:xlink="http://www.w3.org/1999/xlink" x="0px" y="0px"
	 viewBox="0 0 89.4 89.4" style="enable-background:new 0 0 89.4 89.4;" xml:space="preserve">
<style type="text/css">
	.st0{fill:#D47C44;}
	.st1{fill:#F6E9DE;}
	.st2{fill:#FFFFFF;}
	.st3{fill:#402A14;}
	.st4{fill:#552F0D;}
	.st5{fill:#AF6E40;}
	.st6{fill:#DD697A;}
	.st7{fill:#E2D0C3;}
</style>
<g>
	<path class="st0" d="M69.6,41.9c0,24.7-17.5,32.9-24.9,32.9c-10.7,0-24.9-9-24.9-32.9c0-22,11.1-31.3,24.9-31.3
		C58.4,10.6,69.6,20.7,69.6,41.9z"/>
	<path class="st1" d="M52,50c-3.1-7.6-3.6-9.2-5.3-17.2c-0.2-1-1.3-1.6-2-1.6c-0.8,0-1.8,0.7-2,1.6c-1.7,8-2.2,9.6-5.3,17.2
		C34.5,57.1,26,60.3,26,68.5c0,6.5,6.7,9.4,14.8,10.1c1.3,0.1,3.9,0.2,3.9,0.2l0-9l0,9c0,0,2.7-0.1,3.9-0.2
		c8.1-0.7,14.8-3.6,14.8-10.1C63.4,60.2,54.9,57.1,52,50z"/>
	<circle class="st2" cx="31.9" cy="39.7" r="2.7"/>
	<circle class="st3" cx="57.5" cy="39.7" r="2.7"/>
	<path class="st4" d="M51,64.8c0,1.5-1.7,1.7-3.1,2.6c-1.1,0.7-1.7,2.3-3.2,2.3c-1.6,0-2.1-1.4-3.2-2.2c-1.3-0.9-3.1-1.3-3.1-2.8
		c0-2.7,2.8-5,6.3-5C48.2,59.9,51,62.1,51,64.8z"/>
	<g>
		<path class="st5" d="M20.3,22.8c-2.8,5-11.8,14.5-11.8,14.5C5.4,41,3.3,45.6,2.5,50.6c-1.4,9.1,0.3,30.2,13.3,26.2
			c4.5-1.4,7.2-6.5,8.6-11.4c1.4-4.8,1.9-9.8,1.7-14.7c-0.2-6.1-1-11.9-1.1-18s1.3-12.5,5.1-16.5C30.1,16.1,25.6,13.4,20.3,22.8z"/>
		<path class="st5" d="M69.1,22.8c2.8,5,11.8,14.5,11.8,14.5c3.1,3.7,5.1,8.3,5.9,13.3c1.4,9.1-0.3,30.2-13.3,26.2
			c-4.5-1.4-7.2-6.5-8.6-11.4c-1.4-4.8-1.9-9.8-1.7-14.7c0.2-6.1,1-11.9,1.1-18S63,20.2,59.3,16.1C59.3,16.1,63.8,13.4,69.1,22.8z"
			/>
	</g>
	<path class="st6" d="M44.8,77.4c-1.5,0-3.5,1.2-3.7,1.2s0.7,0.3,3.7,0.1c3.6-0.1,3.8-0.2,3.8-0.2C47.3,78.5,46.4,77.4,44.8,77.4z"
		/>
	<circle class="st3" cx="31.9" cy="39.5" r="2.4"/>
	<circle class="st2" cx="57.5" cy="39.7" r="2.7"/>
	<circle class="st3" cx="57.5" cy="39.5" r="2.4"/>
	<circle class="st7" cx="29.7" cy="71" r="0.5"/>
	<circle class="st7" cx="31.5" cy="68.3" r="0.5"/>
	<circle class="st7" cx="32.4" cy="71" r="0.5"/>
	<circle class="st7" cx="34.4" cy="69.8" r="0.5"/>
	<circle class="st7" cx="28.7" cy="67.9" r="0.5"/>
	<circle class="st7" cx="27.9" cy="69.5" r="0.5"/>
	<circle class="st7" cx="59" cy="68.2" r="0.5"/>
	<circle class="st7" cx="57.1" cy="70.9" r="0.5"/>
	<circle class="st7" cx="56.2" cy="68.2" r="0.5"/>
	<circle class="st7" cx="54.2" cy="69.4" r="0.5"/>
	<circle class="st7" cx="59.9" cy="71.4" r="0.5"/>
	<circle class="st7" cx="60.7" cy="69.7" r="0.5"/>
	<path class="st4" d="M28.2,35.4C28.2,35.4,28.1,35.4,28.2,35.4C28,35.3,27.9,35.2,28,35c0.4-0.8,1.1-1.5,2-1.8c1-0.3,2-0.2,2.8,0.4
		c0.1,0.1,0.1,0.2,0.1,0.3c-0.1,0.1-0.2,0.1-0.3,0.1c-0.7-0.5-1.6-0.6-2.4-0.3c-0.8,0.2-1.4,0.8-1.7,1.5
		C28.4,35.3,28.3,35.4,28.2,35.4z"/>
	<path class="st4" d="M60.8,35.4c-0.1,0-0.2,0-0.2-0.1c-0.3-0.7-0.9-1.3-1.7-1.5c-0.8-0.3-1.7-0.1-2.4,0.3c-0.1,0.1-0.2,0-0.3-0.1
		c-0.1-0.1,0-0.2,0.1-0.3C57,33.1,58,33,59,33.3c0.9,0.3,1.6,0.9,2,1.8C61,35.2,61,35.3,60.8,35.4C60.8,35.4,60.8,35.4,60.8,35.4z"
		/>
	<path class="st7" d="M44.8,77.3c-0.1,0-0.2-0.1-0.2-0.2v-7c0-0.1,0.1-0.2,0.2-0.2c0.1,0,0.2,0.1,0.2,0.2v7
		C45,77.2,44.9,77.3,44.8,77.3z"/>
</g>
<circle class="st2" cx="44.7" cy="44.7" r="0.2"/>
<circle class="st2" cx="44.7" cy="44.7" r="0.2"/>
</svg>
