<?xml version="1.0" encoding="utf-8"?>
<!-- Generator: Adobe Illustrator 24.1.1, SVG Export Plug-In . SVG Version: 6.00 Build 0)  -->
<svg version="1.1" id="Layer_1" xmlns="http://www.w3.org/2000/svg" xmlns:xlink="http://www.w3.org/1999/xlink" x="0px" y="0px"
	 viewBox="0 0 73.9 73.9" style="enable-background:new 0 0 73.9 73.9;" xml:space="preserve">
<style type="text/css">
	.st0{fill:#DBA1A6;}
</style>
<g id="outline_1_">
	<path d="M45.1,37.5c-1.3-4.5-6-7-10.5-5.7c-2.7,0.8-4.9,3-5.7,5.7c-4.5,1.3-7,6-5.7,10.5s6,7,10.5,5.7c1.2-0.4,2.4-1,3.3-1.9
		c1.6,1.4,3.6,2.2,5.7,2.2c4.7,0,8.4-3.8,8.4-8.4C51.1,41.8,48.7,38.5,45.1,37.5L45.1,37.5z M42.7,51.4c-1.8,0-3.6-0.9-4.7-2.3
		c-0.4-0.6-1.3-0.7-1.8-0.3c-0.1,0.1-0.2,0.2-0.3,0.3c-1.9,2.6-5.6,3.1-8.1,1.2c-2.6-1.9-3.1-5.6-1.2-8.1c0.9-1.2,2.2-2,3.6-2.2
		c0.5-0.1,1-0.5,1.1-1.1c0.6-3.2,3.6-5.2,6.8-4.7c2.4,0.4,4.2,2.3,4.7,4.7c0.1,0.5,0.5,1,1.1,1.1c3.2,0.6,5.2,3.6,4.7,6.8
		C47.9,49.4,45.5,51.4,42.7,51.4L42.7,51.4z"/>
	<path d="M27.1,28.3c0.6,0.2,1.2,0.3,1.9,0.3c0.9,0,1.8-0.2,2.6-0.7c1.3-0.8,2.2-2.1,2.5-3.7c0.5-3.3-1.3-6.4-4.4-7.6
		c-1.5-0.5-3.1-0.4-4.4,0.3c-1.3,0.8-2.2,2.1-2.5,3.7C22.2,23.9,24.1,27.1,27.1,28.3L27.1,28.3z M25.3,21.1c0.1-0.8,0.6-1.5,1.3-1.9
		c0.4-0.2,0.8-0.3,1.2-0.3c0.3,0,0.7,0.1,1,0.2c1.9,0.7,3,2.7,2.7,4.6c-0.2,1.4-1.5,2.4-2.9,2.2c-0.2,0-0.4-0.1-0.7-0.2
		C26.2,25,25,23.1,25.3,21.1L25.3,21.1z"/>
	<path d="M24.1,37.7c2-2.3,1.5-6.1-1.1-8.4s-6.4-2.2-8.4,0.1c-1,1.2-1.4,2.7-1.2,4.3c0.6,3.3,3.4,5.6,6.7,5.7
		C21.6,39.5,23.1,38.9,24.1,37.7z M22.1,36c-1.1,1.2-3.2,1.2-4.7-0.2c-0.7-0.6-1.3-1.5-1.4-2.5c-0.3-1.4,0.6-2.7,2-3
		c0.2,0,0.4-0.1,0.7-0.1c1,0,1.9,0.4,2.6,1C22.8,32.7,23.2,34.8,22.1,36L22.1,36z"/>
	<path d="M42.4,27.8c0.8,0.4,1.7,0.7,2.5,0.7c2.1,0,4.2-1.2,5.5-3.3c1.7-3,1-6.7-1.7-8.3c-1.3-0.8-2.9-0.9-4.4-0.3
		c-1.5,0.5-2.8,1.6-3.6,3C38.9,22.5,39.7,26.2,42.4,27.8z M43,20.8c0.5-0.9,1.2-1.5,2.1-1.8c0.3-0.1,0.7-0.2,1-0.2
		c0.4,0,0.9,0.1,1.2,0.3c1.4,0.8,1.7,2.9,0.7,4.7s-3,2.5-4.4,1.7S41.9,22.6,43,20.8z"/>
	<path d="M60.6,33.4c0.2-1.6-0.2-3.1-1.2-4.3s-2.4-1.8-4.1-1.8l0,0c-3.3,0.1-6.1,2.5-6.6,5.7c-0.2,1.6,0.2,3.1,1.2,4.3
		s2.4,1.8,4.1,1.8l0,0C57.2,39,60,36.6,60.6,33.4L60.6,33.4z M58,33c-0.4,2-2.1,3.4-4.1,3.5l0,0c-1.4,0.1-2.6-1-2.7-2.4
		c0-0.2,0-0.5,0.1-0.7c0.4-2,2.1-3.4,4.1-3.5l0,0c1.4-0.1,2.6,1,2.7,2.4C58,32.5,58,32.7,58,33L58,33z"/>
	<path d="M72.4,56.2c-0.7-1-1.6-1.8-2.7-2.4C79,35.7,71.9,13.5,53.9,4.2S13.6,2,4.3,20S2,60.3,20.1,69.6c10.6,5.5,23.2,5.5,33.8,0
		l5.9,3.9c0.4,0.3,1,0.3,1.5,0l8.9-5.9c1.5-1,2.6-2.5,3.2-4.2C74.2,61,73.8,58.3,72.4,56.2L72.4,56.2z M37,71.1
		c-18.9,0-34.2-15.4-34.2-34.2S18.1,2.7,37,2.7S71.2,18,71.2,36.9c0,5.6-1.4,11.2-4.1,16.2c-0.2,0-0.4,0-0.6,0c-1,0-1.9,0.2-2.8,0.6
		c3.1-5,4.8-10.8,4.8-16.7C68.5,19.5,54.4,5.4,37,5.4S5.4,19.5,5.4,36.9s14.2,31.5,31.5,31.5c4.2,0,8.4-0.8,12.2-2.5
		c0.5,0.6,1.1,1.1,1.8,1.6l0.5,0.3C46.9,70,42,71.1,37,71.1z M48.7,56.2L48.7,56.2c-1.5,2.2-1.8,4.8-1,7.2c0,0.1,0.1,0.2,0.1,0.3
		c-3.5,1.4-7.1,2.1-10.9,2.1C21,65.8,8,52.8,8,36.9S21,8,36.9,8s28.9,13,28.9,28.9c0,6.6-2.3,13-6.4,18.1c-2.8-2.7-7.2-2.7-9.9,0.1
		C49.3,55.4,49,55.8,48.7,56.2L48.7,56.2z"/>
</g>
<path class="st0" d="M70.9,62.5c-0.4,1.2-1.2,2.2-2.2,2.9l-8.1,5.4l-8.2-5.4c-0.6-0.4-1.1-0.9-1.5-1.5c-0.1-0.2-0.2-0.4-0.3-0.5
	c-1-1.8-0.9-4,0.3-5.7l0.1-0.1c1.3-2,4.1-2.6,6.1-1.2c0.2,0.2,0.5,0.3,0.7,0.5l1.9,1.9c0.5,0.5,1.3,0.5,1.9,0l0,0l1.9-1.9
	c1.1-1.1,2.6-1.5,4.1-1.2l0,0c1.1,0.3,2,0.9,2.6,1.8l0.1,0.1C71.2,59.1,71.4,60.9,70.9,62.5z"/>
</svg>
