<?xml version="1.0" encoding="utf-8"?>
<!-- Generator: Adobe Illustrator 24.1.1, SVG Export Plug-In . SVG Version: 6.00 Build 0)  -->
<svg version="1.1" id="Layer_1" xmlns="http://www.w3.org/2000/svg" xmlns:xlink="http://www.w3.org/1999/xlink" x="0px" y="0px"
	 viewBox="0 0 71.5 72.3" style="enable-background:new 0 0 71.5 72.3;" xml:space="preserve">
<style type="text/css">
	.st0{fill:#DBA1A6;}
	.st1{fill:#FFFFFF;}
</style>
<path class="st0" d="M59.7,30.3c-1.7,0.2-3.2,1.1-4,2.6l-2,3.8c-0.2,0.3-0.1,0.7,0.2,0.9c1.1,0.7,1.7,2,1.7,3.2c0,2.2-1.8,4-4,4
	s-4-1.8-4-4c0-2.2,1.8-4,4-4c0.2,0,0.5,0,0.7,0.1c0.3,0.1,0.6-0.1,0.7-0.4L66,7.6l0.1,0.2L59.7,30.3z"/>
<g>
	<path d="M34.5,0.3c-1-0.2-2.1-0.3-3.2-0.3h-9.1C13,0,5.6,7.5,5.5,16.7v7.1c-2.3,2.4-2.3,6.3,0.1,8.6c1,0.9,2.2,1.5,3.6,1.7
		c1.2,5.3,4.7,9.8,9.6,12.2v1.4l-8,1.7C4.5,50.6,0,56.2,0,62.6v8.6c0,0.6,0.5,1.1,1.1,1.1h51.5c0.6,0,1.1-0.5,1.1-1.1v-8.6
		c0-6.4-4.6-11.9-10.8-13.2l-8.2-1.6v-1.4c4.9-2.4,8.5-6.9,9.7-12.2c3.3-0.4,5.7-3.4,5.4-6.7c-0.2-1.3-0.7-2.6-1.7-3.6v-7.1
		c0-3.7-1.3-7.4-3.6-10.3C40.9,1.2,34.5,0.3,34.5,0.3z M44.7,31.7c0-0.5,0.1-1,0.1-1.5v-5.8c0.5,0.2,1,0.4,1.4,0.7l0,0
		c1.6,1.4,1.8,3.8,0.4,5.4C46.1,31.1,45.4,31.5,44.7,31.7L44.7,31.7z M42.9,4.7c-1.8-1.7-3.9-3-6.2-3.8 M7.9,16.7
		c0-7.9,6.4-14.4,14.4-14.4h9.1c7.9,0,14.4,6.4,14.4,14.4v5.7c-0.2-0.1-0.3-0.1-0.5-0.2c-0.1,0-0.1,0-0.2,0c-0.1,0-0.2-0.1-0.3-0.1
		V20c0-0.6-0.5-1.1-1.1-1.1l0,0c-3.7,0-9.6-6.4-11.6-8.8c-0.2-0.3-0.6-0.4-0.9-0.4c-0.4,0-0.7,0.2-0.9,0.5c-2.9,4-6.7,7.4-11,9.8
		l0,0c-3.5,1.9-7.4,3.1-11.4,3.2C7.9,23.2,7.9,16.7,7.9,16.7z M19.6,22.6c0,0.4-0.4,0.8-0.8,0.8c-0.3,0-0.5-0.1-0.7-0.4
		c0.5-0.2,1-0.4,1.4-0.7C19.6,22.4,19.6,22.5,19.6,22.6z M6.2,28c0-1,0.4-1.9,1.1-2.6c0.6,0,1.1,0,1.6-0.1v4.9c0,0.5,0,1,0.1,1.5
		C7.3,31.2,6.2,29.8,6.2,28z M11.2,30.2v-5.1c1.7-0.3,3.3-0.7,4.9-1.2c0.7,1.5,2.5,2.2,4.1,1.5s2.2-2.5,1.5-4.1c0,0,0-0.1-0.1-0.1
		c3.7-2.3,7-5.2,9.7-8.7c2.1,2.4,7,7.6,11.3,8.5v2.1l0,0v7.1c0,8.7-7,15.7-15.7,15.7S11.2,38.9,11.2,30.2L11.2,30.2L11.2,30.2z
		 M26.8,48.1c1.9,0,3.8-0.3,5.6-0.9v5c0,3.1-2.5,5.6-5.6,5.6s-5.6-2.5-5.6-5.6v-5C23,47.8,24.9,48.1,26.8,48.1z M51.5,70H2.2v-7.5
		c0-5.3,3.8-9.9,9-10.9l7.7-1.5v2.2c0,4.3,3.5,7.9,7.9,7.9s7.9-3.5,7.9-7.9v-2.2l7.7,1.5c5.2,1,9,5.6,9,10.9L51.5,70L51.5,70z"/>
	<path d="M6.5,57.5C6,57.2,5.3,57.4,5,58l0,0c-0.7,1.4-1.1,2.9-1.1,4.5c0,0.6,0.5,1.1,1.1,1.1s1.1-0.5,1.1-1.1
		c0-1.2,0.3-2.4,0.9-3.4C7.3,58.5,7.1,57.8,6.5,57.5L6.5,57.5z"/>
	<path d="M33.5,35.9c-0.4-0.5-1.1-0.5-1.6-0.2l0,0c-1.4,1.3-3.2,1.9-5,1.8c-1.9,0.1-3.7-0.6-5-1.8c-0.5-0.4-1.2-0.3-1.6,0.2
		s-0.3,1.2,0.2,1.6c1.8,1.6,4.1,2.4,6.5,2.3c2.4,0.1,4.7-0.7,6.5-2.3C33.8,37.1,33.9,36.4,33.5,35.9z"/>
	<path d="M34.9,25.6c1.7,0,3.1-1.4,3.1-3.1c0-1.7-1.4-3.1-3.1-3.1c-1.7,0-3.1,1.4-3.1,3.1l0,0C31.8,24.3,33.2,25.6,34.9,25.6z
		 M34.9,21.7c0.4,0,0.8,0.4,0.8,0.8c0,0.4-0.4,0.8-0.8,0.8c-0.4,0-0.8-0.4-0.8-0.8S34.4,21.7,34.9,21.7z"/>
</g>
<g>
	<path d="M48.3,40.8c0,1.8,1.5,3.3,3.3,3.3s3.3-1.5,3.3-3.3c0-1.8-1.5-3.3-3.3-3.3S48.3,39,48.3,40.8z"/>
	<path d="M65.7,35.5L62,27.2L67.4,8c0-0.1,0-0.3,0-0.4l-0.7-2c-0.1-0.3-0.3-0.4-0.6-0.4c-0.3,0-0.5,0.1-0.6,0.4l-6.6,14.8L52.2,5.6
		c-0.1-0.2-0.4-0.4-0.6-0.4c-0.3,0-0.5,0.2-0.6,0.4l-0.7,2c0,0.1,0,0.3,0,0.4l5.5,19.2l-3.7,8.3c-0.2,0-0.3,0-0.5,0
		c-2.9,0-5.3,2.4-5.3,5.3c0,2.9,2.4,5.3,5.3,5.3s5.3-2.4,5.3-5.3c0-1.5-0.7-3-1.8-4l1.8-3.3c0.4-0.8,1.1-1.4,2-1.7
		c0.9,0.3,1.6,0.9,2,1.7l1.8,3.3c-1.1,1-1.8,2.4-1.8,4c0,2.9,2.4,5.3,5.3,5.3s5.3-2.4,5.3-5.3C71.4,37.7,68.8,35.3,65.7,35.5
		L65.7,35.5z M51.7,7.8l0.1-0.2l6.4,14.3l-1.5,3.3L51.7,7.8z M59.7,30.3c-1.7,0.2-3.2,1.1-4,2.6l-2,3.8c-0.2,0.3-0.1,0.7,0.2,0.9
		c1.1,0.7,1.7,2,1.7,3.2c0,2.2-1.8,4-4,4s-4-1.8-4-4c0-2.2,1.8-4,4-4c0.2,0,0.5,0,0.7,0.1c0.3,0.1,0.6-0.1,0.7-0.4L66,7.6l0.1,0.2
		L59.7,30.3z M66.1,44.7c-2.2,0-4-1.8-4-4c0-1.3,0.6-2.5,1.7-3.2c0.3-0.2,0.4-0.6,0.2-0.9l-2-3.8c-0.3-0.6-0.8-1.2-1.3-1.6
		c0.1-0.1,0.1-0.1,0.1-0.2l0.5-1.9l3.3,7.4c0.1,0.3,0.4,0.4,0.7,0.4c0.3,0,0.5-0.1,0.7-0.1c2.2,0,4,1.8,4,4
		C70.1,43,68.3,44.7,66.1,44.7L66.1,44.7z"/>
	<path d="M58.2,27.6h1.3v1.3h-1.3V27.6z"/>
	<path d="M66.1,37.5c-1.8,0-3.3,1.5-3.3,3.3c0,1.8,1.5,3.3,3.3,3.3s3.3-1.5,3.3-3.3C69.4,39,67.9,37.5,66.1,37.5z M66.1,42.8
		c-1.1,0-2-0.9-2-2s0.9-2,2-2s2,0.9,2,2S67.2,42.8,66.1,42.8z"/>
</g>
<circle class="st1" cx="51.6" cy="40.8" r="2"/>
</svg>
