<?xml version="1.0" encoding="utf-8"?>
<!-- Generator: Adobe Illustrator 24.1.1, SVG Export Plug-In . SVG Version: 6.00 Build 0)  -->
<svg version="1.1" id="Layer_1" xmlns="http://www.w3.org/2000/svg" xmlns:xlink="http://www.w3.org/1999/xlink" x="0px" y="0px"
	 viewBox="0 0 54.1 90.1" style="enable-background:new 0 0 54.1 90.1;" xml:space="preserve">
<style type="text/css">
	.st0{fill:#DBA1A6;}
</style>
<g id="outline">
	<path d="M17.2,67.4l5.9,4.5c0.3,0.2,0.6,0.3,0.9,0.3s0.6-0.1,0.9-0.3l6.2-4.6c2.3-2.3,2.3-5.9,0-8.2c-2-1.9-5.1-1.8-7,0.1
		c-0.7-0.7-1.6-1.2-2.6-1.4c-1.6-0.3-3.2,0.2-4.4,1.3C14.8,61.3,14.8,65,17.2,67.4C17.1,67.3,17.2,67.3,17.2,67.4z M19.1,61.3
		c0.4-0.4,0.9-0.6,1.5-0.6c0.1,0,0.2,0,0.4,0c0.8,0.2,1.5,0.8,1.7,1.6c0.2,0.5,0.8,0.8,1.3,0.9c0.6,0,1.1-0.3,1.4-0.8
		c0.3-0.8,1-1.4,1.9-1.6c0.7-0.1,1.3,0.1,1.8,0.5c0.5,0.5,0.7,1.2,0.7,1.9c0,0.7-0.2,1.3-0.6,1.8l-5.1,3.8l-4.9-3.7
		C18.2,64,18.2,62.3,19.1,61.3L19.1,61.3z"/>
	<path d="M12.9,2.4c-2.9-3-7.6-3-10.6-0.1C0.9,3.7,0.1,5.6,0.1,7.7v9c0,3,1.1,5.8,3,8.1v5.3L1.6,39c-0.3,2.3,0.9,4.6,3,5.6v4.6
		C3.2,51.5-2.1,63,6.2,89.1c0.2,0.6,0.8,1,1.4,1h9c2.5,0,4.5-2,4.5-4.5h6c0,2.5,2,4.5,4.5,4.5h9c0.7,0,1.2-0.4,1.4-1.1
		c8.2-26.1,2.9-37.6,1.6-39.9v-4.6c2.1-1.1,3.3-3.4,3-5.7l-1.5-8.9v-5.3c1.9-2.3,3-5.1,3-8.1v-9c0-4.2-3.4-7.5-7.5-7.5
		c-2,0-3.9,0.8-5.3,2.2c-1.4,1.4-2.2,3.3-2.2,5.3V9h-18V7.5C15.1,5.7,14.3,3.8,12.9,2.4z M3.1,16.7v-9c0-2.5,2-4.5,4.5-4.5
		c1.2,0,2.4,0.5,3.2,1.3c0.8,0.8,1.3,2,1.3,3.2v2.4l-3,4.5v-7c0-0.8-0.7-1.5-1.5-1.5S6.1,6.8,6.1,7.6v11.5l-1.6,2.4
		C3.6,20.1,3.1,18.4,3.1,16.7z M18.1,85.7c0,0.8-0.7,1.5-1.5,1.5H8.7C2.2,66,5.2,55.4,6.7,51.9L9.8,54c0.2,0.2,0.5,0.3,0.8,0.3h5
		c-5,4-6.5,11-3.5,16.7v10.4c0,0.8,0.7,1.5,1.5,1.5c0.2,0,0.5-0.1,0.7-0.2l2.6-1.3c0.7,0.1,1.2,0.8,1.2,1.5V85.7z M24.1,36.1
		c1.7,0,3.2-1,4-2.4c1.7,1.7,3.7,3,6,3.8c2.5,1,3.8,2.7,3.5,4.5c-0.5,2-2.4,3.3-4.4,3.2h-3.8l-4.1-5.4c-0.5-0.7-1.5-0.8-2.2-0.2
		c-0.1,0.1-0.1,0.1-0.2,0.2l-4,5.4h-3.8c-2,0.1-3.9-1.2-4.4-3.2c-0.3-1.8,0.9-3.5,3.5-4.5c2.2-0.8,4.3-2.1,6-3.8
		C20.9,35.2,22.4,36.1,24.1,36.1z M22.6,31.6c0-0.8,0.7-1.5,1.5-1.5s1.5,0.7,1.5,1.5c0,0.8-0.7,1.5-1.5,1.5S22.6,32.5,22.6,31.6z
		 M22.6,45.2l1.5-2l1.5,2H22.6z M25.6,48.2v3h-3v-3H25.6z M24.1,54.2c5.8,0,10.5,4.7,10.5,10.5s-4.7,10.5-10.5,10.5
		s-10.5-4.7-10.5-10.5S18.3,54.2,24.1,54.2z M28.6,51.2v-3h7.5c0.2,0,0.5,0,0.7-0.2l3.8-1.9v2.8l-3.5,2.3
		C37.1,51.2,28.6,51.2,28.6,51.2z M11.4,48c0.2,0.1,0.4,0.2,0.7,0.2h7.5v3H11l-3.5-2.3v-2.8L11.4,48z M27.1,82.7h-6
		c0-2.5-2-4.5-4.5-4.5c-0.2,0-0.5,0-0.7,0.2l-0.8,0.4v-4c5.1,4.6,12.9,4.6,18,0v4l-0.8-0.4c-0.2-0.1-0.4-0.2-0.7-0.2
		C29.1,78.2,27.1,80.2,27.1,82.7z M39.5,87.2h-7.9c-0.8,0-1.5-0.7-1.5-1.5v-3c0-0.7,0.5-1.3,1.2-1.5l2.6,1.3c0.7,0.4,1.6,0.1,2-0.7
		c0.1-0.2,0.2-0.4,0.2-0.7V70.8c2.9-5.7,1.5-12.6-3.5-16.7h5c0.3,0,0.6-0.1,0.8-0.3l3.1-2.1C43,55.3,46,66,39.5,87.2z M37.4,4.5
		c1.8-1.8,4.6-1.8,6.4,0c0.9,0.8,1.3,2,1.3,3.2v9c0,1.7-0.5,3.4-1.4,4.9l-1.6-2.4V7.6c0-0.8-0.7-1.5-1.5-1.5s-1.5,0.7-1.5,1.5v7
		l-3-4.5V7.5C36.1,6.5,36.5,5.3,37.4,4.5z M33.8,12.1l8.3,12.5v5.6c0,0.1,0,0.2,0,0.2l1.5,8.9c0.1,1.3-0.8,2.5-2,2.9l-1.2,0.6
		c0-0.1,0.1-0.2,0.1-0.3c0.5-2.6-0.6-5.9-5.3-7.8c-2.5-0.9-4.7-2.6-6.3-4.8c-1-1.7-2.8-2.8-4.7-2.8c-2,0.1-3.7,1.2-4.7,2.8
		c-1.6,2.2-3.8,3.8-6.3,4.8c-4.7,1.9-5.8,5.3-5.3,7.8c0,0.1,0.1,0.2,0.1,0.3l-1.2-0.6c-1.3-0.3-2.1-1.5-2-2.9l1.5-9
		c0-0.1,0-0.2,0-0.2v-5.5l8.3-12.5H33.8z"/>
	<circle cx="36.1" cy="27.1" r="3"/>
	<circle cx="12.1" cy="27.1" r="3"/>
	<path d="M27.8,25.4l1.7-2.5c-3.3-2.1-7.4-2.1-10.7,0l1.7,2.5C22.7,24,25.5,24,27.8,25.4z"/>
	<rect x="48.1" y="46.7" width="6" height="3"/>
	<rect x="47.7" y="40.7" transform="matrix(0.8321 -0.5547 0.5547 0.8321 -14.9477 35.0294)" width="5.4" height="3"/>
	<rect x="48.9" y="51.5" transform="matrix(0.5549 -0.8319 0.8319 0.5549 -22.6697 66.0211)" width="3" height="5.4"/>
</g>
<path class="st0" d="M19.1,61.3c0.4-0.4,0.9-0.6,1.5-0.6c0.1,0,0.2,0,0.4,0c0.8,0.2,1.5,0.8,1.7,1.6c0.2,0.5,0.8,0.8,1.3,0.9
	c0.6,0,1.1-0.3,1.4-0.8c0.3-0.8,1-1.4,1.9-1.6c0.7-0.1,1.3,0.1,1.8,0.5c0.5,0.5,0.7,1.2,0.7,1.9c0,0.7-0.2,1.3-0.6,1.8l-5.1,3.8
	l-4.9-3.7C18.2,64,18.2,62.3,19.1,61.3L19.1,61.3z"/>
</svg>
