<?xml version="1.0" standalone="no"?>
<!DOCTYPE svg PUBLIC "-//W3C//DTD SVG 20010904//EN"
 "http://www.w3.org/TR/2001/REC-SVG-20010904/DTD/svg10.dtd">
<svg version="1.0" xmlns="http://www.w3.org/2000/svg"
 width="354.000000pt" height="354.000000pt" viewBox="0 0 354.000000 354.000000"
 preserveAspectRatio="xMidYMid meet">
<metadata>
Created by potrace 1.11, written by Peter Selinger 2001-2013
</metadata>
<g transform="translate(0.000000,354.000000) scale(0.100000,-0.100000)"
fill="#000000" stroke="none">
<path d="M975 3252 c-38 -38 -46 -164 -15 -244 11 -29 20 -54 20 -54 0 -1 -39
-14 -87 -29 -68 -21 -96 -36 -125 -65 -47 -46 -49 -76 -12 -187 32 -99 25
-126 -38 -144 -49 -13 -169 -7 -239 12 -60 16 -101 1 -123 -46 -22 -46 -20
-77 9 -116 13 -19 38 -61 56 -93 59 -113 190 -216 312 -247 38 -9 47 -15 41
-28 -3 -9 -8 -35 -11 -57 -7 -56 20 -84 78 -84 33 0 47 6 74 33 19 19 37 47
40 63 11 50 13 52 47 59 54 12 111 45 151 89 42 45 48 42 67 -23 12 -42 9 -47
-32 -54 -88 -14 -103 -34 -72 -96 9 -18 14 -41 11 -52 -3 -13 2 -28 14 -40 20
-20 20 -20 -34 -87 -71 -89 -89 -115 -127 -191 -55 -107 -71 -174 -77 -311 -5
-110 -1 -153 31 -360 20 -129 40 -270 46 -313 5 -43 18 -97 28 -121 41 -91
131 -159 227 -173 l46 -6 -6 39 c-10 73 -65 634 -65 668 0 35 13 46 53 46 12
0 28 -4 35 -8 11 -8 50 -316 77 -607 3 -38 9 -82 11 -97 6 -30 32 -43 65 -33
20 7 21 12 16 89 -3 44 -19 204 -36 355 -22 200 -27 278 -19 288 13 17 72 17
86 0 9 -10 32 -198 73 -592 12 -122 21 -145 53 -145 50 0 50 5 11 374 -40 374
-40 376 14 376 54 0 53 4 93 -371 21 -193 43 -357 49 -365 16 -20 57 -17 67 3
8 15 -40 526 -62 675 -5 30 -2 39 13 48 28 14 66 12 80 -4 11 -13 29 -155 67
-531 8 -88 20 -170 25 -182 10 -27 50 -31 70 -7 14 17 16 -12 -36 468 -28 257
-27 266 24 266 57 0 56 0 96 -375 20 -192 42 -356 47 -362 14 -17 53 -16 67 1
12 14 7 66 -39 488 -26 233 -26 236 5 244 14 3 36 3 50 0 29 -7 28 -4 56 -271
35 -343 48 -447 60 -461 14 -17 55 -18 65 -2 10 16 8 45 -30 398 -32 289 -33
316 -18 328 21 16 67 16 80 -1 9 -10 82 -662 82 -725 0 -7 13 -12 28 -12 101
0 227 100 257 205 15 52 16 74 5 204 -27 331 -39 431 -64 501 -27 79 -29 76
49 100 80 25 241 109 288 150 55 48 77 86 77 130 0 46 -24 37 -64 -22 -73
-111 -253 -176 -428 -154 -43 6 -67 16 -114 52 -86 64 -159 89 -378 129 -220
40 -354 119 -407 242 -24 57 -24 73 1 73 18 0 20 7 20 69 0 85 -5 98 -41 117
-26 13 -29 20 -29 64 0 27 -7 112 -15 187 -8 76 -19 260 -23 408 l-9 270 -35
75 c-20 41 -45 86 -57 100 l-20 25 -38 -31 c-55 -44 -100 -116 -113 -182 -7
-31 -14 -62 -15 -68 -2 -8 -22 -5 -62 7 -32 10 -75 21 -95 24 -33 5 -39 11
-62 61 -36 78 -91 149 -140 182 -52 35 -92 53 -101 44z"/>
</g>
</svg>
