<?xml version="1.0" standalone="no"?>
<!DOCTYPE svg PUBLIC "-//W3C//DTD SVG 1.1//EN" "http://www.w3.org/Graphics/SVG/1.1/DTD/svg11.dtd" >
<svg>
<metadata>
Created by FontForge 20090622 at Mon Mar  2 19:02:59 2020
 By deploy user
&#194;&#169; 2001 House Industries/Brand Design Co., Inc. All Rights Reserved.
</metadata>
<defs>
<font id="NeutraDisp-Titling" horiz-adv-x="272" >
  <font-face 
    font-family="Neutra Display Titling"
    font-weight="400"
    font-stretch="normal"
    units-per-em="1000"
    panose-1="2 0 0 0 0 0 0 0 0 0"
    ascent="780"
    descent="-220"
    x-height="680"
    cap-height="680"
    bbox="-45 -295 1642 967"
    underline-thickness="20"
    underline-position="-123"
    unicode-range="U+000D-U+FB04"
  />
<missing-glyph horiz-adv-x="500" 
 />
    <glyph glyph-name=".notdef" horiz-adv-x="500" 
 />
    <glyph glyph-name=".notdef" horiz-adv-x="500" 
 />
    <glyph glyph-name=".null" horiz-adv-x="0" 
 />
    <glyph glyph-name="nonmarkingreturn" horiz-adv-x="333" 
 />
    <glyph glyph-name="CR" unicode="&#xd;" horiz-adv-x="242" 
 />
    <glyph glyph-name="space" unicode=" " horiz-adv-x="242" 
 />
    <glyph glyph-name="exclam" unicode="!" horiz-adv-x="302" 
d="M77 230l-20 450h188l-20 -450h-148zM151 -10q-41 0 -70.5 28t-29.5 70t29.5 70t70.5 28q40 0 70 -28t30 -70t-30 -70t-70 -28z" />
    <glyph glyph-name="quotedbl" unicode="&#x22;" horiz-adv-x="426" 
d="M247 443l-15 237h170l-17 -237h-138zM41 443l-17 237h170l-17 -237h-136z" />
    <glyph glyph-name="numbersign" unicode="#" horiz-adv-x="565" 
d="M128 458h-59v132h89l20 90h124l-20 -90h78l20 90h124l-20 -90h59v-132h-89l-4 -21l-10 -41l-4 -21h60v-132h-89l-20 -90h-124l20 90h-78l-20 -90h-124l20 90h-59v132h88zM330 458h-78l-4 -21l-10 -41l-4 -21h78z" />
    <glyph glyph-name="dollar" unicode="$" horiz-adv-x="591" 
d="M261 -9q-86 6 -149.5 42.5t-99.5 87.5l129 97q48 -67 120 -78v133l-46 15q-83 28 -126.5 76t-43.5 126q0 89 63.5 139.5t152.5 57.5v86h73v-88q120 -14 181 -94l-102 -104q-38 41 -79 50v-119l33 -11q109 -38 152.5 -89.5t43.5 -130.5q0 -84 -60.5 -135.5t-168.5 -59.5
v-108h-73v107zM261 538q-48 -9 -48 -45q0 -18 10.5 -28.5t37.5 -20.5v94zM334 141q57 11 57 52q0 19 -13 31.5t-44 23.5v-107z" />
    <glyph glyph-name="percent" unicode="%" horiz-adv-x="969" 
d="M433 488q0 -86 -61 -143t-146 -57t-145.5 57t-60.5 143t60.5 143t145.5 57t146 -57t61 -143zM205 0l427 680h132l-427 -680h-132zM949 190q0 -86 -61 -143t-146 -57t-145.5 57t-60.5 143t60.5 143t145.5 57t146 -57t61 -143zM160 488q0 -32 18.5 -52.5t47.5 -20.5
t48 20.5t19 52.5q0 33 -19 53t-48 20t-47.5 -20t-18.5 -53zM676 190q0 -32 18.5 -52.5t47.5 -20.5t48 20.5t19 52.5q0 33 -19 53t-48 20t-47.5 -20t-18.5 -53z" />
    <glyph glyph-name="ampersand" unicode="&#x26;" horiz-adv-x="689" 
d="M394 364l82 -103q21 42 24 94h152q-4 -123 -78 -217l109 -138h-211l-25 31q-76 -41 -167 -41q-116 0 -189 54t-73 146q0 72 37 116.5t114 81.5q-42 69 -42 134q0 75 55.5 120.5t143.5 45.5q87 0 139 -41.5t52 -112.5q0 -56 -29.5 -95.5t-93.5 -74.5zM320 458q48 30 48 68
q0 41 -37 41q-40 0 -40 -39q0 -33 29 -70zM356 147l-111 140q-41 -31 -41 -79q0 -73 89 -73q31 0 63 12z" />
    <glyph glyph-name="quotesingle" unicode="'" horiz-adv-x="218" 
d="M41 443l-17 237h170l-17 -237h-136z" />
    <glyph glyph-name="parenleft" unicode="(" horiz-adv-x="351" 
d="M229 -62q-193 159 -193 403t193 403l105 -82q-59 -73 -87 -145.5t-28 -175.5t29.5 -176.5t88.5 -147.5z" />
    <glyph glyph-name="parenright" unicode=")" horiz-adv-x="351" 
d="M122 -62l-108 79q59 74 88.5 147.5t29.5 176.5t-28 175.5t-87 145.5l105 82q193 -159 193 -403t-193 -403z" />
    <glyph glyph-name="asterisk" unicode="*" horiz-adv-x="376" 
d="M140 600l-15 80h124l-14 -82l59 50l59 -110l-75 -24l75 -24l-59 -110l-59 50l14 -82h-124l15 80l-58 -48l-59 110l75 24l-75 24l59 110z" />
    <glyph glyph-name="plus" unicode="+" horiz-adv-x="423" 
d="M288 256v-119h-153v119h-108v145h108v119h153v-119h108v-145h-108z" />
    <glyph glyph-name="comma" unicode="," 
d="M61 -113l34 117q-28 9 -43.5 32.5t-15.5 54.5q0 42 29 68.5t69 26.5q42 0 72 -26.5t30 -68.5q0 -39 -39 -103l-60 -101h-76z" />
    <glyph glyph-name="hyphen" unicode="-" horiz-adv-x="316" 
d="M36 214v145h244v-145h-244z" />
    <glyph glyph-name="hyphen" unicode="&#xad;" horiz-adv-x="316" 
d="M36 214v145h244v-145h-244z" />
    <glyph glyph-name="period" unicode="." 
d="M136 -10q-41 0 -70.5 28t-29.5 70t29.5 70t70.5 28q40 0 70 -28t30 -70t-30 -70t-70 -28z" />
    <glyph glyph-name="slash" unicode="/" horiz-adv-x="491" 
d="M19 0l287 680h166l-287 -680h-166z" />
    <glyph glyph-name="zero" unicode="0" horiz-adv-x="782" 
d="M391 -9q-150 0 -257.5 99t-107.5 250t107.5 249.5t257.5 98.5t257.5 -98.5t107.5 -249.5t-107.5 -250t-257.5 -99zM391 149q83 0 131 54t48 137t-48 136.5t-131 53.5t-131 -53.5t-48 -136.5t48 -137t131 -54z" />
    <glyph glyph-name="one" unicode="1" horiz-adv-x="367" 
d="M118 0v527h-97v153h279v-680h-182z" />
    <glyph glyph-name="two" unicode="2" horiz-adv-x="579" 
d="M12 0q-7 0 -8 4t5 10l294 314q34 38 51.5 67t17.5 62q0 34 -22 55t-59 21q-39 0 -67.5 -28.5t-35.5 -76.5l-163 48q23 101 94 156.5t177 55.5q111 0 182 -59t71 -157q0 -60 -28 -112t-83 -110l-95 -101h202v-149h-533z" />
    <glyph glyph-name="three" unicode="3" horiz-adv-x="605" 
d="M296 -10q-102 0 -176.5 44.5t-109.5 114.5l149 77q38 -82 125 -82q52 0 81.5 25.5t29.5 69.5q0 46 -30.5 70.5t-88.5 24.5q-56 0 -100 -16q-7 -2 -11 0.5t0 9.5l142 199h-234v153h501q9 0 3 -8l-170 -228q74 -14 123 -67.5t49 -145.5q0 -108 -77 -174.5t-206 -66.5z" />
    <glyph glyph-name="four" unicode="4" horiz-adv-x="665" 
d="M554 118v-118h-174v118h-346v138l333 424h187v-418h78v-144h-78zM380 262v206l-162 -206h162z" />
    <glyph glyph-name="five" unicode="5" horiz-adv-x="593" 
d="M282 -10q-97 0 -167.5 40t-104.5 106l146 81q16 -28 46.5 -50t73.5 -22q47 0 76 23t29 65q0 94 -126 94q-90 0 -167 -50q-15 -10 -15 5v398h428v-153h-279v-72q26 10 77 10q128 0 198 -63.5t70 -167.5q0 -111 -78 -177.5t-207 -66.5z" />
    <glyph glyph-name="six" unicode="6" horiz-adv-x="612" 
d="M310 474q83 7 148 -25.5t97.5 -87.5t32.5 -119q0 -108 -80.5 -180t-202.5 -72q-119 0 -199 71.5t-80 176.5q0 98 63 188l178 254h188zM304 138q47 0 75 30.5t28 73.5q0 44 -28 74.5t-75 30.5t-75 -30.5t-28 -74.5q0 -42 28.5 -73t74.5 -31z" />
    <glyph glyph-name="seven" unicode="7" horiz-adv-x="586" 
d="M79 0l244 527h-298v153h550q8 0 3 -11l-307 -669h-192z" />
    <glyph glyph-name="eight" unicode="8" horiz-adv-x="605" 
d="M150 397q-62 49 -62 123q0 72 59 120t156 48t155.5 -48t58.5 -120q0 -75 -62 -122q59 -26 92.5 -73.5t33.5 -111.5q0 -95 -74 -159t-204 -64t-204.5 64t-74.5 159q0 64 33.5 111.5t92.5 72.5zM303 441q29 0 46 17.5t17 41.5t-17 41t-46 17t-46.5 -17t-17.5 -41
t17.5 -41.5t46.5 -17.5zM303 131q49 0 77 27.5t28 68.5t-28 68t-77 27t-77.5 -27t-28.5 -68q0 -43 28.5 -69.5t77.5 -26.5z" />
    <glyph glyph-name="nine" unicode="9" horiz-adv-x="612" 
d="M290 202q-119 -6 -192.5 66t-73.5 170q0 108 80.5 180t202.5 72q119 0 199 -71.5t80 -176.5q0 -93 -71 -188l-190 -254h-188zM308 542q-47 0 -75 -30.5t-28 -73.5q0 -44 28 -74.5t75 -30.5t75 30.5t28 74.5q0 42 -28.5 73t-74.5 31z" />
    <glyph glyph-name="colon" unicode=":" horiz-adv-x="278" 
d="M139 267q-41 0 -70.5 28t-29.5 70t29.5 70t70.5 28q40 0 70 -28t30 -70t-30 -70t-70 -28zM139 -10q-41 0 -70.5 28t-29.5 70t29.5 70t70.5 28q40 0 70 -28t30 -70t-30 -70t-70 -28z" />
    <glyph glyph-name="semicolon" unicode=";" horiz-adv-x="278" 
d="M139 267q-41 0 -70.5 28t-29.5 70t29.5 70t70.5 28q40 0 70 -28t30 -70t-30 -70t-70 -28zM64 -113l34 117q-28 9 -43.5 32.5t-15.5 54.5q0 42 29 68.5t69 26.5q42 0 72 -26.5t30 -68.5q0 -39 -39 -103l-60 -101h-76z" />
    <glyph glyph-name="semicolon" unicode="&#x37e;" horiz-adv-x="278" 
d="M139 267q-41 0 -70.5 28t-29.5 70t29.5 70t70.5 28q40 0 70 -28t30 -70t-30 -70t-70 -28zM64 -113l34 117q-28 9 -43.5 32.5t-15.5 54.5q0 42 29 68.5t69 26.5q42 0 72 -26.5t30 -68.5q0 -39 -39 -103l-60 -101h-76z" />
    <glyph glyph-name="less" unicode="&#x3c;" horiz-adv-x="418" 
d="M391 96l-364 210q-14 8 0 16l364 210v-159l-122 -59l122 -59v-159z" />
    <glyph glyph-name="equal" unicode="=" horiz-adv-x="423" 
d="M27 346v145h369v-145h-369zM27 146v145h369v-145h-369z" />
    <glyph glyph-name="greater" unicode="&#x3e;" horiz-adv-x="418" 
d="M27 532l364 -210q14 -8 0 -16l-364 -210v159l122 59l-122 59v159z" />
    <glyph glyph-name="question" unicode="?" horiz-adv-x="519" 
d="M158 230v176h74q82 0 82 69q0 30 -19 46.5t-51 16.5q-60 0 -92 -59l-141 77q28 58 90 95t151 37q110 0 177.5 -54.5t67.5 -140.5q0 -85 -42 -134.5t-129 -66.5v-62h-168zM241 -10q-41 0 -70.5 28t-29.5 70t29.5 70t70.5 28q40 0 70 -28t30 -70t-30 -70t-70 -28z" />
    <glyph glyph-name="at" unicode="@" horiz-adv-x="770" 
d="M404 -24q-164 0 -272.5 96.5t-108.5 259.5q0 154 107.5 255t259.5 101q157 0 257 -92t100 -237q0 -101 -46 -155.5t-117 -54.5q-93 0 -125 53q-41 -53 -120 -53q-68 0 -117 51.5t-49 127.5q0 77 49 128.5t117 51.5q65 0 94 -35v26h148v-192q0 -53 30 -53q20 0 34 24.5
t14 78.5q0 121 -70.5 185.5t-201.5 64.5q-122 0 -197 -76.5t-75 -198.5q0 -123 76.5 -198.5t209.5 -75.5q83 0 140 29l40 -72q-67 -39 -177 -39zM380 272q23 0 38.5 15t15.5 41q0 25 -15.5 41t-38.5 16q-24 0 -40 -16t-16 -41q0 -26 16 -41t40 -15z" />
    <glyph glyph-name="A" unicode="A" horiz-adv-x="681" 
d="M207 58l-25 -58h-178l331 692q2 5 6 5t6 -5l330 -692h-188l-26 58v0v0v0h-1v0v0h-1v0h-1v0h-1v0h-1h-1h-1h-1h-1h-1h-1h-1h-1h-1h-1h-1h-1h-1h-1h-1h-1h-1h-1h-1h-1h-1h-1h-1h-1h-1h-1h-1h-1h-1h-1h-1h-1h-1h-1h-1h-1h-1h-1h-1h-1h-1h-1h-2h-1h-1h-1h-1h-1h-1h-1h-1h-2
h-1h-1h-1h-1h-1h-2h-1h-1h-1h-1h-2h-1h-1h-1h-2h-1h-1h-1h-2h-1h-1h-2h-1h-1h-2h-1h-1h-2h-1h-1h-2h-1h-1h-2h-1h-2h-1h-1h-2h-1h-2h-1h-2h-1h-1h-2h-1h-2h-1h-2h-1h-2h-1h-2h-1h-2h-1h-2h-1h-2h-1h-2h-2h-1h-2h-1h-2h-1h-2h-2h-1h-2h-1h-2h-2h-1h-2h-2h-1h-2h-1h-2h-2h-1
h-2h-2h-2h-1h-2h-2h-1h-2h-2h-1h-2h-2h-2h-1h-2h-2h-2h-1h-2h-2h-2h-1h-2h-2h-2h-2h-1h-2h-2h-2h-2h-2h-1h-2h-2h-2h-2h-2h-1h-9zM403 194l-70 158l-68 -158h138z" />
    <glyph glyph-name="B" unicode="B" horiz-adv-x="638" 
d="M59 0v680h278q102 0 162.5 -44.5t60.5 -121.5q0 -95 -78 -132q61 -17 99 -61t38 -117q0 -97 -71.5 -150.5t-198.5 -53.5h-290zM235 429h88q58 0 58 52q0 55 -56 55h-90v-107zM235 144h110q50 0 71 19.5t21 57.5q0 76 -92 76h-110v-153z" />
    <glyph glyph-name="C" unicode="C" horiz-adv-x="690" 
d="M679 153q-50 -84 -122.5 -123t-176.5 -39q-146 0 -250 99t-104 250q0 150 102 249t242 99q195 0 294 -146l-137 -93q-53 81 -154 81q-73 0 -117 -54t-44 -136t45.5 -136.5t121.5 -54.5q110 0 160 94z" />
    <glyph glyph-name="D" unicode="D" horiz-adv-x="688" 
d="M59 0v680h263q150 0 247 -92.5t97 -247.5t-97 -247.5t-247 -92.5h-263zM241 154h61q82 0 130 50.5t48 135.5t-48 135.5t-130 50.5h-61v-372z" />
    <glyph glyph-name="E" unicode="E" horiz-adv-x="579" 
d="M59 0v680h477v-153h-295v-158h246v-145h-246v-71h309v-153h-491z" />
    <glyph glyph-name="F" unicode="F" horiz-adv-x="552" 
d="M59 0v680h462v-153h-280v-158h247v-153h-247v-216h-182z" />
    <glyph glyph-name="G" unicode="G" horiz-adv-x="720" 
d="M526 171v58h-135v140h297v-284q-114 -94 -296 -94q-153 0 -259.5 99t-106.5 250t106 249.5t256 98.5q179 0 273 -121l-127 -110q-56 73 -150 73q-81 0 -126.5 -53.5t-45.5 -136.5q0 -84 48 -140t134 -56q76 0 132 27z" />
    <glyph glyph-name="H" unicode="H" horiz-adv-x="718" 
d="M477 369v311h182v-680h-182v216h-236v-216h-182v680h182v-311h236z" />
    <glyph glyph-name="I" unicode="I" horiz-adv-x="308" 
d="M63 0v680h182v-680h-182z" />
    <glyph glyph-name="J" unicode="J" horiz-adv-x="486" 
d="M432 680v-489q0 -96 -54.5 -148.5t-153.5 -52.5q-158 0 -218 113l137 88q26 -45 60 -45q47 0 47 58v476h182z" />
    <glyph glyph-name="K" unicode="K" horiz-adv-x="682" 
d="M241 398l210 282h197l-226 -295l253 -385h-215l-162 247l-2 -3q-2 -2 -6 -7l-8 -10l-10.5 -13l-10.5 -13t-11 -13t-9 -11v-177h-182v680h182v-282z" />
    <glyph glyph-name="L" unicode="L" horiz-adv-x="555" 
d="M59 0v680h182v-527h289v-153h-471z" />
    <glyph glyph-name="M" unicode="M" horiz-adv-x="827" 
d="M41 0l40 687q1 10 9 1l326 -366l321 366q8 9 9 -1l40 -687h-179l-16 290l-170 -197q-5 -5 -9 0l-177 198l-16 -291h-178z" />
    <glyph glyph-name="N" unicode="N" horiz-adv-x="730" 
d="M657 -12l-427 351v-339h-171v689q0 13 14 2l427 -352v341h171v-690q0 -13 -14 -2z" />
    <glyph glyph-name="O" unicode="O" horiz-adv-x="782" 
d="M391 -9q-150 0 -257.5 99t-107.5 250t107.5 249.5t257.5 98.5t257.5 -98.5t107.5 -249.5t-107.5 -250t-257.5 -99zM391 149q83 0 131 54t48 137t-48 136.5t-131 53.5t-131 -53.5t-48 -136.5t48 -137t131 -54z" />
    <glyph glyph-name="P" unicode="P" horiz-adv-x="628" 
d="M241 147v-147h-182v680h258q134 0 210 -75t76 -192t-76 -191.5t-210 -74.5h-76zM241 301h67q112 0 112 112q0 113 -112 113h-67v-225z" />
    <glyph glyph-name="Q" unicode="Q" horiz-adv-x="782" 
d="M466 -2v-122h-150v122q-125 25 -207.5 118.5t-82.5 223.5q0 151 107.5 249.5t257.5 98.5t257.5 -98.5t107.5 -249.5q0 -130 -82.5 -223.5t-207.5 -118.5zM316 158v121h150v-121q50 20 77 68t27 114q0 83 -48 136.5t-131 53.5t-131 -53.5t-48 -136.5q0 -66 27 -114t77 -68
z" />
    <glyph glyph-name="R" unicode="R" horiz-adv-x="629" 
d="M480 193l121 -193h-197l-95 156h-68v-156h-182v680h258q134 0 210 -75t76 -192q0 -152 -123 -220zM241 301h67q112 0 112 112q0 113 -112 113h-67v-225z" />
    <glyph glyph-name="S" unicode="S" horiz-adv-x="568" 
d="M286 -10q-104 0 -173.5 37t-108.5 89l132 99q60 -74 142 -74q86 0 86 54q0 21 -15.5 33.5t-51.5 24.5l-80 27q-169 56 -169 205q0 96 67.5 149.5t164.5 53.5q149 0 226 -90l-104 -109q-47 49 -112 49q-32 0 -49 -13t-17 -34q0 -19 11 -30t37 -20l90 -30q99 -33 140.5 -82
t41.5 -124q0 -99 -64 -157t-194 -58z" />
    <glyph glyph-name="T" unicode="T" horiz-adv-x="588" 
d="M203 0v527h-180v153h542v-153h-180v-527h-182z" />
    <glyph glyph-name="U" unicode="U" horiz-adv-x="694" 
d="M347 -10q-133 0 -214 70t-81 203v417h182v-415q0 -121 113 -121t113 121v415h182v-417q0 -133 -81 -203t-214 -70z" />
    <glyph glyph-name="V" unicode="V" horiz-adv-x="661" 
d="M657 680l-321 -687q-2 -5 -6 -5t-6 5l-320 687h194l139 -317l135 317h185z" />
    <glyph glyph-name="W" unicode="W" horiz-adv-x="936" 
d="M469 357l-168 -365q-2 -5 -6 -5t-6 5l-285 688h191l127 -319l146 332q4 10 8 0l153 -332l121 319h182l-281 -688q-5 -14 -12 0z" />
    <glyph glyph-name="X" unicode="X" horiz-adv-x="687" 
d="M244 365l-198 315h203l101 -172l102 172h189l-197 -307l234 -373h-203l-137 230l-140 -230h-189z" />
    <glyph glyph-name="Y" unicode="Y" horiz-adv-x="706" 
d="M264 235l-260 445h200l154 -277l153 277h191l-256 -440v-240h-182v235z" />
    <glyph glyph-name="Z" unicode="Z" horiz-adv-x="613" 
d="M14 0q-9 0 -3 10l301 517h-250v153h529q9 0 3 -10l-301 -517h276v-153h-555z" />
    <glyph glyph-name="bracketleft" unicode="[" horiz-adv-x="358" 
d="M59 0v680h265v-144h-93v-392h93v-144h-265z" />
    <glyph glyph-name="backslash" unicode="\" horiz-adv-x="491" 
d="M472 0h-166l-287 680h166z" />
    <glyph glyph-name="bracketright" unicode="]" horiz-adv-x="358" 
d="M299 680v-680h-265v144h93v392h-93v144h265z" />
    <glyph glyph-name="asciicircum" unicode="^" horiz-adv-x="316" 
d="M36 214v145h244v-145h-244z" />
    <glyph glyph-name="underscore" unicode="_" horiz-adv-x="350" 
d="M-2 -184v147h354v-147h-354z" />
    <glyph glyph-name="grave" unicode="`" horiz-adv-x="500" 
d="M203 722l-95 182h188l40 -182h-133z" />
    <glyph glyph-name="a" unicode="a" horiz-adv-x="681" 
d="M207 58l-25 -58h-178l331 692q2 5 6 5t6 -5l330 -692h-188l-26 58v0v0v0h-1v0v0h-1v0h-1v0h-1v0h-1h-1h-1h-1h-1h-1h-1h-1h-1h-1h-1h-1h-1h-1h-1h-1h-1h-1h-1h-1h-1h-1h-1h-1h-1h-1h-1h-1h-1h-1h-1h-1h-1h-1h-1h-1h-1h-1h-1h-1h-1h-1h-1h-2h-1h-1h-1h-1h-1h-1h-1h-1h-2
h-1h-1h-1h-1h-1h-2h-1h-1h-1h-1h-2h-1h-1h-1h-2h-1h-1h-1h-2h-1h-1h-2h-1h-1h-2h-1h-1h-2h-1h-1h-2h-1h-1h-2h-1h-2h-1h-1h-2h-1h-2h-1h-2h-1h-1h-2h-1h-2h-1h-2h-1h-2h-1h-2h-1h-2h-1h-2h-1h-2h-1h-2h-2h-1h-2h-1h-2h-1h-2h-2h-1h-2h-1h-2h-2h-1h-2h-2h-1h-2h-1h-2h-2h-1
h-2h-2h-2h-1h-2h-2h-1h-2h-2h-1h-2h-2h-2h-1h-2h-2h-2h-1h-2h-2h-2h-1h-2h-2h-2h-2h-1h-2h-2h-2h-2h-2h-1h-2h-2h-2h-2h-2h-1h-9zM403 194l-70 158l-68 -158h138z" />
    <glyph glyph-name="b" unicode="b" horiz-adv-x="638" 
d="M59 0v680h278q102 0 162.5 -44.5t60.5 -121.5q0 -95 -78 -132q61 -17 99 -61t38 -117q0 -97 -71.5 -150.5t-198.5 -53.5h-290zM235 429h88q58 0 58 52q0 55 -56 55h-90v-107zM235 144h110q50 0 71 19.5t21 57.5q0 76 -92 76h-110v-153z" />
    <glyph glyph-name="c" unicode="c" horiz-adv-x="690" 
d="M679 153q-50 -84 -122.5 -123t-176.5 -39q-146 0 -250 99t-104 250q0 150 102 249t242 99q195 0 294 -146l-137 -93q-53 81 -154 81q-73 0 -117 -54t-44 -136t45.5 -136.5t121.5 -54.5q110 0 160 94z" />
    <glyph glyph-name="d" unicode="d" horiz-adv-x="688" 
d="M59 0v680h263q150 0 247 -92.5t97 -247.5t-97 -247.5t-247 -92.5h-263zM241 154h61q82 0 130 50.5t48 135.5t-48 135.5t-130 50.5h-61v-372z" />
    <glyph glyph-name="e" unicode="e" horiz-adv-x="579" 
d="M59 0v680h477v-153h-295v-158h246v-145h-246v-71h309v-153h-491z" />
    <glyph glyph-name="f" unicode="f" horiz-adv-x="552" 
d="M59 0v680h462v-153h-280v-158h247v-153h-247v-216h-182z" />
    <glyph glyph-name="g" unicode="g" horiz-adv-x="741" 
d="M524 229h-131v140h321q0 -1 0.5 -11t0.5 -18q0 -170 -89.5 -260t-244.5 -90q-147 0 -251 99.5t-104 250.5t102.5 249.5t249.5 98.5q97 0 172.5 -40.5t115.5 -112.5l-145 -88q-47 83 -146 83q-78 0 -120.5 -53t-42.5 -137t44.5 -138t125.5 -54q109 0 142 81z" />
    <glyph glyph-name="h" unicode="h" horiz-adv-x="718" 
d="M477 369v311h182v-680h-182v216h-236v-216h-182v680h182v-311h236z" />
    <glyph glyph-name="i" unicode="i" horiz-adv-x="308" 
d="M63 0v680h182v-680h-182z" />
    <glyph glyph-name="j" unicode="j" horiz-adv-x="486" 
d="M432 680v-489q0 -96 -54.5 -148.5t-153.5 -52.5q-158 0 -218 113l137 88q26 -45 60 -45q47 0 47 58v476h182z" />
    <glyph glyph-name="k" unicode="k" horiz-adv-x="671" 
d="M241 370l209 310h202q-268 -382 -269 -382l282 -298h-236l-188 205v-205h-182v680h182v-310z" />
    <glyph glyph-name="l" unicode="l" horiz-adv-x="555" 
d="M59 0v680h182v-527h289v-153h-471z" />
    <glyph glyph-name="m" unicode="m" horiz-adv-x="830" 
d="M59 0v692q0 11 9 2l349 -337l345 337q3 3 6 2.5t3 -4.5v-692h-182v313l-171 -169q-4 -4 -9 0l-168 169v-313h-182z" />
    <glyph glyph-name="n" unicode="n" horiz-adv-x="730" 
d="M657 -12l-427 351v-339h-171v689q0 13 14 2l427 -352v341h171v-690q0 -13 -14 -2z" />
    <glyph glyph-name="o" unicode="o" horiz-adv-x="782" 
d="M391 -9q-150 0 -257.5 99t-107.5 250t107.5 249.5t257.5 98.5t257.5 -98.5t107.5 -249.5t-107.5 -250t-257.5 -99zM391 149q83 0 131 54t48 137t-48 136.5t-131 53.5t-131 -53.5t-48 -136.5t48 -137t131 -54z" />
    <glyph glyph-name="p" unicode="p" horiz-adv-x="628" 
d="M241 147v-147h-182v680h258q134 0 210 -75t76 -192t-76 -191.5t-210 -74.5h-76zM241 301h67q112 0 112 112q0 113 -112 113h-67v-225z" />
    <glyph glyph-name="q" unicode="q" horiz-adv-x="782" 
d="M674 121l81 -81l-105 -105l-94 94q-79 -38 -165 -38q-150 0 -257.5 99t-107.5 250t107.5 249.5t257.5 98.5t257.5 -98.5t107.5 -249.5q0 -124 -82 -219zM437 149l-63 63l106 105l72 -73q18 42 18 96q0 83 -48 136.5t-131 53.5t-131 -53.5t-48 -136.5q0 -89 47.5 -142.5
t131.5 -53.5q23 0 46 5z" />
    <glyph glyph-name="r" unicode="r" horiz-adv-x="629" 
d="M480 193l121 -193h-197l-95 156h-68v-156h-182v680h258q134 0 210 -75t76 -192q0 -152 -123 -220zM241 301h67q112 0 112 112q0 113 -112 113h-67v-225z" />
    <glyph glyph-name="s" unicode="s" horiz-adv-x="568" 
d="M286 -10q-104 0 -173.5 37t-108.5 89l132 99q60 -74 142 -74q86 0 86 54q0 21 -15.5 33.5t-51.5 24.5l-80 27q-169 56 -169 205q0 96 67.5 149.5t164.5 53.5q149 0 226 -90l-104 -109q-47 49 -112 49q-32 0 -49 -13t-17 -34q0 -19 11 -30t37 -20l90 -30q99 -33 140.5 -82
t41.5 -124q0 -99 -64 -157t-194 -58z" />
    <glyph glyph-name="t" unicode="t" horiz-adv-x="588" 
d="M203 0v527h-180v153h542v-153h-180v-527h-182z" />
    <glyph glyph-name="u" unicode="u" horiz-adv-x="694" 
d="M347 -10q-133 0 -214 70t-81 203v417h182v-415q0 -121 113 -121t113 121v415h182v-417q0 -133 -81 -203t-214 -70z" />
    <glyph glyph-name="v" unicode="v" horiz-adv-x="661" 
d="M657 680l-321 -687q-2 -5 -6 -5t-6 5l-320 687h194l139 -317l135 317h185z" />
    <glyph glyph-name="w" unicode="w" horiz-adv-x="936" 
d="M469 357l-168 -365q-2 -5 -6 -5t-6 5l-285 688h191l127 -319l146 332q4 10 8 0l153 -332l121 319h182l-281 -688q-5 -14 -12 0z" />
    <glyph glyph-name="x" unicode="x" horiz-adv-x="676" 
d="M244 365l-198 315h203l101 -172l102 172h189l-197 -307l234 -373h-203l-137 230l-140 -230h-189z" />
    <glyph glyph-name="y" unicode="y" horiz-adv-x="706" 
d="M264 235l-260 445h200l154 -277l153 277h191l-256 -440v-240h-182v235z" />
    <glyph glyph-name="z" unicode="z" horiz-adv-x="613" 
d="M14 0q-9 0 -3 10l301 517h-250v153h529q9 0 3 -10l-301 -517h276v-153h-555z" />
    <glyph glyph-name="braceleft" unicode="{" horiz-adv-x="414" 
d="M259 0q-60 0 -102 32.5t-42 101.5v81q0 53 -48 53h-40v144h40q48 0 48 53v81q0 69 42 101.5t102 32.5h121v-144h-63q-30 0 -30 -32v-79q0 -72 -68 -85q68 -13 68 -85v-79q0 -32 30 -32h63v-144h-121z" />
    <glyph glyph-name="bar" unicode="|" horiz-adv-x="254" 
d="M50 -70v820h154v-820h-154z" />
    <glyph glyph-name="braceright" unicode="}" horiz-adv-x="414" 
d="M155 0h-121v144h63q30 0 30 32v79q0 72 68 85q-68 13 -68 85v79q0 32 -30 32h-63v144h121q60 0 102 -32.5t42 -101.5v-81q0 -53 48 -53h40v-144h-40q-48 0 -48 -53v-81q0 -69 -42 -101.5t-102 -32.5z" />
    <glyph glyph-name="asciitilde" unicode="~" horiz-adv-x="484" 
d="M314 186q-38 0 -78.5 20t-49.5 20q-26 0 -35 -36l-129 17q11 80 53 127.5t95 47.5q38 0 78.5 -20t49.5 -20q26 0 35 36l129 -17q-11 -80 -53 -127.5t-95 -47.5z" />
    <glyph glyph-name="nbspace" unicode="&#xa0;" horiz-adv-x="207" 
 />
    <glyph glyph-name="exclamdown" unicode="&#xa1;" horiz-adv-x="302" 
d="M151 690q41 0 70.5 -28t29.5 -70t-29.5 -70t-70.5 -28q-40 0 -70 28t-30 70t30 70t70 28zM225 450l20 -450h-188l20 450h148z" />
    <glyph glyph-name="cent" unicode="&#xa2;" horiz-adv-x="497" 
d="M319 97v-97h-73v97q-96 11 -158 77.5t-62 160.5t62.5 160.5t157.5 77.5v106h73v-106q102 -11 159 -85l-113 -96q-19 26 -46 35v0v0v0v-1v0v-1v0v-1v0v-1v-1v-1v-1v-1v-1v-1v-1v-1v-1v-1v-1v-1v-1v-1v-1v-1v-1v-1v-1v-1v-1v-1v-1v-1v-1v-1v-1v-1v-1v-1v-1v-1v-2v-1v-1v-1
v-1v-1v-1v-1v-2v-1v-1v-1v-1v-2v-1v-1v-1v-2v-1v-1v-2v-1v-1v-2v-1v-1v-2v-1v-1v-2v-1v-1v-2v-1v-2v-1v-2v-1v-1v-2v-1v-2v-1v-2v-1v-2v-1v-2v-1v-2v-1v-2v-2v-1v-2v-1v-2v-2v-1v-2v-1v-2v-2v-1v-2v-2v-1v-2v-2v-1v-2v-2v-1v-2v-2v-2v-1v-2v-2v-2v-1v-2v-2v-2v-1v-2v-2v-2
v-2v-1v-2v-2v-2v-2v-9q25 7 50 32l114 -95q-62 -70 -164 -80zM246 243v182q-54 -23 -54 -90q0 -70 54 -92z" />
    <glyph glyph-name="sterling" unicode="&#xa3;" horiz-adv-x="635" 
d="M195 273h-113v123h53q-20 47 -20 91q0 81 63 141t176 60q158 0 222 -125l-138 -87q-18 31 -35.5 44.5t-48.5 13.5q-30 0 -46 -15.5t-16 -40.5q0 -31 17 -82h163v-123h-120q16 -51 16 -96v-12q35 -19 79 -19q58 0 93 34l98 -115q-67 -75 -178 -75q-78 0 -154 51
q-59 -51 -144 -51q-62 0 -106 31.5t-44 93.5q0 59 38.5 92t89.5 33q35 0 71 -9q-4 14 -16 42zM213 117q-33 20 -53 20q-33 0 -33 -22t32 -22q30 0 54 24z" />
    <glyph glyph-name="yen" unicode="&#xa5;" horiz-adv-x="724" 
d="M201 370l-188 310h196l159 -284l157 284h186l-187 -310h126v-124h-198v-44h198v-124h-198v-78h-178v78h-192v124h192v44h-192v124h119z" />
    <glyph glyph-name="brokenbar" unicode="&#xa6;" 
d="M136 210q-41 0 -70.5 28t-29.5 70t29.5 70t70.5 28q40 0 70 -28t30 -70t-30 -70t-70 -28z" />
    <glyph glyph-name="section" unicode="&#xa7;" horiz-adv-x="591" 
d="M122 386q-41 49 -41 114q0 78 57 133t159 55q144 0 211 -108l-126 -88q-34 44 -81 44q-46 0 -46 -31q0 -24 40 -35l108 -31q90 -25 125 -70.5t35 -114.5q0 -42 -21 -71t-64 -54q33 -49 33 -108q0 -78 -63 -124.5t-168 -46.5q-155 0 -239 90l113 108q45 -45 114 -45
q63 0 63 31q0 20 -41 30l-98 26q-92 24 -128 64.5t-36 101.5q0 86 94 130zM386 204q21 7 21 32q0 34 -43 45l-123 33q-20 6 -40 14q-17 -10 -17 -35q0 -30 43 -41l115 -32q18 -5 44 -16z" />
    <glyph glyph-name="dieresis" unicode="&#xa8;" horiz-adv-x="500" 
d="M346 717q-31 0 -55 23.5t-24 56.5t24 56.5t55 23.5q32 0 56 -23.5t24 -56.5t-24 -56.5t-56 -23.5zM154 717q-31 0 -55.5 23.5t-24.5 56.5t24.5 56.5t55.5 23.5q32 0 55.5 -23.5t23.5 -56.5t-23.5 -56.5t-55.5 -23.5z" />
    <glyph glyph-name="copyright" unicode="&#xa9;" horiz-adv-x="758" 
d="M379 -8q-143 0 -246 100t-103 248t103 248t246 100t246 -100t103 -248t-103 -248t-246 -100zM379 61q116 0 196.5 79.5t80.5 199.5t-80.5 199.5t-196.5 79.5t-196.5 -79.5t-80.5 -199.5t80.5 -199.5t196.5 -79.5zM381 127q-89 0 -152.5 60.5t-63.5 152.5t63.5 153.5
t152.5 61.5q109 0 166 -82l-110 -89q-21 29 -53 29q-31 0 -49 -20t-18 -53q0 -32 18.5 -51.5t49.5 -19.5q35 0 57 30l113 -85q-58 -87 -174 -87z" />
    <glyph glyph-name="ordfeminine" unicode="&#xaa;" horiz-adv-x="460" 
d="M161 295l-3 -8l-6 -16l-4 -8h-140l217 418q5 11 11 0l216 -418h-146l-14 32h-131zM254 384l-28 65l-27 -65h55z" />
    <glyph glyph-name="guillemotleft" unicode="&#xab;" horiz-adv-x="511" 
d="M328 69l-82 176q-1 4 0 8l82 174h168l-83 -178l83 -180h-168zM101 69l-82 176q-1 4 0 8l82 174h168l-83 -178l83 -180h-168z" />
    <glyph glyph-name="logicalnot" unicode="&#xac;" 
d="M136 210q-41 0 -70.5 28t-29.5 70t29.5 70t70.5 28q40 0 70 -28t30 -70t-30 -70t-70 -28z" />
    <glyph glyph-name="registered" unicode="&#xae;" horiz-adv-x="391" 
d="M195 356q-71 0 -120 47.5t-49 118.5q0 72 49 119.5t120 47.5q72 0 121 -47t49 -120q0 -71 -49.5 -118.5t-120.5 -47.5zM195 393q56 0 93.5 36.5t37.5 92.5q0 58 -37 94.5t-94 36.5t-93 -36.5t-36 -94.5q0 -56 36.5 -92.5t92.5 -36.5zM246 490l30 -55h-61l-23 43h-10v-43
h-57v178h73q36 0 58 -20t22 -46q0 -38 -32 -57zM182 524h15q23 0 23 20q0 19 -23 19h-15v-39z" />
    <glyph glyph-name="macron" unicode="&#xaf;" horiz-adv-x="500" 
d="M128 722v126h244v-126h-244z" />
    <glyph glyph-name="macron" unicode="&#x2c9;" horiz-adv-x="500" 
d="M128 722v126h244v-126h-244z" />
    <glyph glyph-name="degree" unicode="&#xb0;" horiz-adv-x="341" 
d="M171 401q-64 0 -108.5 42.5t-44.5 101.5q0 60 44.5 101.5t108.5 41.5t108 -41t44 -102q0 -60 -44.5 -102t-107.5 -42zM171 494q21 0 34.5 14t13.5 37q0 22 -13.5 36t-34.5 14q-22 0 -35.5 -14t-13.5 -36q0 -23 13.5 -37t35.5 -14z" />
    <glyph glyph-name="twosuperior" unicode="&#xb2;" 
d="M136 210q-41 0 -70.5 28t-29.5 70t29.5 70t70.5 28q40 0 70 -28t30 -70t-30 -70t-70 -28z" />
    <glyph glyph-name="threesuperior" unicode="&#xb3;" 
d="M136 210q-41 0 -70.5 28t-29.5 70t29.5 70t70.5 28q40 0 70 -28t30 -70t-30 -70t-70 -28z" />
    <glyph glyph-name="acute" unicode="&#xb4;" horiz-adv-x="500" 
d="M297 722h-133l40 182h188z" />
    <glyph glyph-name="mu" unicode="&#xb5;" 
d="M136 210q-41 0 -70.5 28t-29.5 70t29.5 70t70.5 28q40 0 70 -28t30 -70t-30 -70t-70 -28z" />
    <glyph glyph-name="mu" unicode="&#x3bc;" 
d="M136 210q-41 0 -70.5 28t-29.5 70t29.5 70t70.5 28q40 0 70 -28t30 -70t-30 -70t-70 -28z" />
    <glyph glyph-name="paragraph" unicode="&#xb6;" horiz-adv-x="671" 
d="M244 264h-8q-92 0 -153 61.5t-61 146.5t61 146.5t153 61.5h376v-680h-157v537h-54v-537h-157v264z" />
    <glyph glyph-name="periodcentered" unicode="&#xb7;" 
d="M136 210q-41 0 -70.5 28t-29.5 70t29.5 70t70.5 28q40 0 70 -28t30 -70t-30 -70t-70 -28z" />
    <glyph glyph-name="periodcentered" unicode="&#x2219;" 
d="M136 210q-41 0 -70.5 28t-29.5 70t29.5 70t70.5 28q40 0 70 -28t30 -70t-30 -70t-70 -28z" />
    <glyph glyph-name="cedilla" unicode="&#xb8;" horiz-adv-x="500" 
d="M254 -232q-86 0 -124 60l71 47q13 -24 37 -24q29 0 29 25q0 26 -36 26h-35v98h82v-32q38 -6 62.5 -33t24.5 -69q0 -44 -34 -71t-77 -27z" />
    <glyph glyph-name="onesuperior" unicode="&#xb9;" 
d="M136 210q-41 0 -70.5 28t-29.5 70t29.5 70t70.5 28q40 0 70 -28t30 -70t-30 -70t-70 -28z" />
    <glyph glyph-name="ordmasculine" unicode="&#xba;" horiz-adv-x="492" 
d="M246 255q-94 0 -161 62t-67 155t67 154.5t161 61.5q93 0 160.5 -61.5t67.5 -154.5t-67.5 -155t-160.5 -62zM246 383q39 0 61 25t22 64q0 38 -22 63t-61 25t-61 -25t-22 -63q0 -39 22 -64t61 -25z" />
    <glyph glyph-name="guillemotright" unicode="&#xbb;" horiz-adv-x="511" 
d="M410 427l82 -176q1 -4 0 -8l-82 -174h-168l83 178l-83 180h168zM183 427l82 -176q1 -4 0 -8l-82 -174h-168l83 178l-83 180h168z" />
    <glyph glyph-name="onequarter" unicode="&#xbc;" 
d="M136 210q-41 0 -70.5 28t-29.5 70t29.5 70t70.5 28q40 0 70 -28t30 -70t-30 -70t-70 -28z" />
    <glyph glyph-name="onehalf" unicode="&#xbd;" 
d="M136 210q-41 0 -70.5 28t-29.5 70t29.5 70t70.5 28q40 0 70 -28t30 -70t-30 -70t-70 -28z" />
    <glyph glyph-name="threequarters" unicode="&#xbe;" 
d="M136 210q-41 0 -70.5 28t-29.5 70t29.5 70t70.5 28q40 0 70 -28t30 -70t-30 -70t-70 -28z" />
    <glyph glyph-name="questiondown" unicode="&#xbf;" horiz-adv-x="519" 
d="M278 688q41 0 70.5 -28t29.5 -70t-29.5 -70t-70.5 -28q-40 0 -70 28t-30 70t30 70t70 28zM361 448v-176h-74q-82 0 -82 -69q0 -30 19 -46.5t51 -16.5q60 0 92 59l141 -77q-28 -58 -90 -95t-151 -37q-110 0 -177.5 54.5t-67.5 140.5q0 85 42 134.5t129 66.5v62h168z" />
    <glyph glyph-name="Agrave" unicode="&#xc0;" horiz-adv-x="681" 
d="M207 58l-25 -58h-178l331 692q2 5 6 5t6 -5l330 -692h-188l-26 58v0v0v0h-1v0v0h-1v0h-1v0h-1v0h-1h-1h-1h-1h-1h-1h-1h-1h-1h-1h-1h-1h-1h-1h-1h-1h-1h-1h-1h-1h-1h-1h-1h-1h-1h-1h-1h-1h-1h-1h-1h-1h-1h-1h-1h-1h-1h-1h-1h-1h-1h-1h-1h-2h-1h-1h-1h-1h-1h-1h-1h-1h-2
h-1h-1h-1h-1h-1h-2h-1h-1h-1h-1h-2h-1h-1h-1h-2h-1h-1h-1h-2h-1h-1h-2h-1h-1h-2h-1h-1h-2h-1h-1h-2h-1h-1h-2h-1h-2h-1h-1h-2h-1h-2h-1h-2h-1h-1h-2h-1h-2h-1h-2h-1h-2h-1h-2h-1h-2h-1h-2h-1h-2h-1h-2h-2h-1h-2h-1h-2h-1h-2h-2h-1h-2h-1h-2h-2h-1h-2h-2h-1h-2h-1h-2h-2h-1
h-2h-2h-2h-1h-2h-2h-1h-2h-2h-1h-2h-2h-2h-1h-2h-2h-2h-1h-2h-2h-2h-1h-2h-2h-2h-2h-1h-2h-2h-2h-2h-2h-1h-2h-2h-2h-2h-2h-1h-9zM403 194l-70 158l-68 -158h138zM273 722l-95 182h188l40 -182h-133z" />
    <glyph glyph-name="Aacute" unicode="&#xc1;" horiz-adv-x="681" 
d="M207 58l-25 -58h-178l331 692q2 5 6 5t6 -5l330 -692h-188l-26 58v0v0v0h-1v0v0h-1v0h-1v0h-1v0h-1h-1h-1h-1h-1h-1h-1h-1h-1h-1h-1h-1h-1h-1h-1h-1h-1h-1h-1h-1h-1h-1h-1h-1h-1h-1h-1h-1h-1h-1h-1h-1h-1h-1h-1h-1h-1h-1h-1h-1h-1h-1h-1h-2h-1h-1h-1h-1h-1h-1h-1h-1h-2
h-1h-1h-1h-1h-1h-2h-1h-1h-1h-1h-2h-1h-1h-1h-2h-1h-1h-1h-2h-1h-1h-2h-1h-1h-2h-1h-1h-2h-1h-1h-2h-1h-1h-2h-1h-2h-1h-1h-2h-1h-2h-1h-2h-1h-1h-2h-1h-2h-1h-2h-1h-2h-1h-2h-1h-2h-1h-2h-1h-2h-1h-2h-2h-1h-2h-1h-2h-1h-2h-2h-1h-2h-1h-2h-2h-1h-2h-2h-1h-2h-1h-2h-2h-1
h-2h-2h-2h-1h-2h-2h-1h-2h-2h-1h-2h-2h-2h-1h-2h-2h-2h-1h-2h-2h-2h-1h-2h-2h-2h-2h-1h-2h-2h-2h-2h-2h-1h-2h-2h-2h-2h-2h-1h-9zM403 194l-70 158l-68 -158h138zM407 722h-133l40 182h188z" />
    <glyph glyph-name="Acircumflex" unicode="&#xc2;" horiz-adv-x="681" 
d="M207 58l-25 -58h-178l331 692q2 5 6 5t6 -5l330 -692h-188l-26 58v0v0v0h-1v0v0h-1v0h-1v0h-1v0h-1h-1h-1h-1h-1h-1h-1h-1h-1h-1h-1h-1h-1h-1h-1h-1h-1h-1h-1h-1h-1h-1h-1h-1h-1h-1h-1h-1h-1h-1h-1h-1h-1h-1h-1h-1h-1h-1h-1h-1h-1h-1h-1h-2h-1h-1h-1h-1h-1h-1h-1h-1h-2
h-1h-1h-1h-1h-1h-2h-1h-1h-1h-1h-2h-1h-1h-1h-2h-1h-1h-1h-2h-1h-1h-2h-1h-1h-2h-1h-1h-2h-1h-1h-2h-1h-1h-2h-1h-2h-1h-1h-2h-1h-2h-1h-2h-1h-1h-2h-1h-2h-1h-2h-1h-2h-1h-2h-1h-2h-1h-2h-1h-2h-1h-2h-2h-1h-2h-1h-2h-1h-2h-2h-1h-2h-1h-2h-2h-1h-2h-2h-1h-2h-1h-2h-2h-1
h-2h-2h-2h-1h-2h-2h-1h-2h-2h-1h-2h-2h-2h-1h-2h-2h-2h-1h-2h-2h-2h-1h-2h-2h-2h-2h-1h-2h-2h-2h-2h-2h-1h-2h-2h-2h-2h-2h-1h-9zM403 194l-70 158l-68 -158h138zM175 722l160 210q5 6 9 0l160 -210h-127l-37 39l-38 -39h-127z" />
    <glyph glyph-name="Atilde" unicode="&#xc3;" horiz-adv-x="681" 
d="M207 58l-25 -58h-178l331 692q2 5 6 5t6 -5l330 -692h-188l-26 58v0v0v0h-1v0v0h-1v0h-1v0h-1v0h-1h-1h-1h-1h-1h-1h-1h-1h-1h-1h-1h-1h-1h-1h-1h-1h-1h-1h-1h-1h-1h-1h-1h-1h-1h-1h-1h-1h-1h-1h-1h-1h-1h-1h-1h-1h-1h-1h-1h-1h-1h-1h-1h-2h-1h-1h-1h-1h-1h-1h-1h-1h-2
h-1h-1h-1h-1h-1h-2h-1h-1h-1h-1h-2h-1h-1h-1h-2h-1h-1h-1h-2h-1h-1h-2h-1h-1h-2h-1h-1h-2h-1h-1h-2h-1h-1h-2h-1h-2h-1h-1h-2h-1h-2h-1h-2h-1h-1h-2h-1h-2h-1h-2h-1h-2h-1h-2h-1h-2h-1h-2h-1h-2h-1h-2h-2h-1h-2h-1h-2h-1h-2h-2h-1h-2h-1h-2h-2h-1h-2h-2h-1h-2h-1h-2h-2h-1
h-2h-2h-2h-1h-2h-2h-1h-2h-2h-1h-2h-2h-2h-1h-2h-2h-2h-1h-2h-2h-2h-1h-2h-2h-2h-2h-1h-2h-2h-2h-2h-2h-1h-2h-2h-2h-2h-2h-1h-9zM403 194l-70 158l-68 -158h138zM401 717q-29 0 -64.5 19.5t-42.5 19.5q-21 0 -30 -34l-110 14q10 74 45 112t80 38q29 0 64.5 -19.5
t42.5 -19.5q21 0 30 34l110 -14q-9 -73 -44.5 -111.5t-80.5 -38.5z" />
    <glyph glyph-name="Adieresis" unicode="&#xc4;" horiz-adv-x="681" 
d="M536 528q-31 0 -55 23.5t-24 56.5t24 56.5t55 23.5q32 0 56 -23.5t24 -56.5t-24 -56.5t-56 -23.5zM144 528q-31 0 -55.5 23.5t-24.5 56.5t24.5 56.5t55.5 23.5q32 0 55.5 -23.5t23.5 -56.5t-23.5 -56.5t-55.5 -23.5zM207 58l-25 -58h-178l331 692q2 5 6 5t6 -5l330 -692
h-188l-26 58v0v0v0h-1v0v0h-1v0h-1v0h-1v0h-1h-1h-1h-1h-1h-1h-1h-1h-1h-1h-1h-1h-1h-1h-1h-1h-1h-1h-1h-1h-1h-1h-1h-1h-1h-1h-1h-1h-1h-1h-1h-1h-1h-1h-1h-1h-1h-1h-1h-1h-1h-1h-1h-2h-1h-1h-1h-1h-1h-1h-1h-1h-2h-1h-1h-1h-1h-1h-2h-1h-1h-1h-1h-2h-1h-1h-1h-2h-1h-1h-1
h-2h-1h-1h-2h-1h-1h-2h-1h-1h-2h-1h-1h-2h-1h-1h-2h-1h-2h-1h-1h-2h-1h-2h-1h-2h-1h-1h-2h-1h-2h-1h-2h-1h-2h-1h-2h-1h-2h-1h-2h-1h-2h-1h-2h-2h-1h-2h-1h-2h-1h-2h-2h-1h-2h-1h-2h-2h-1h-2h-2h-1h-2h-1h-2h-2h-1h-2h-2h-2h-1h-2h-2h-1h-2h-2h-1h-2h-2h-2h-1h-2h-2h-2h-1
h-2h-2h-2h-1h-2h-2h-2h-2h-1h-2h-2h-2h-2h-2h-1h-2h-2h-2h-2h-2h-1h-9zM403 194l-70 158l-68 -158h138z" />
    <glyph glyph-name="Aring" unicode="&#xc5;" horiz-adv-x="681" 
d="M207 58l-25 -58h-178l297 622q-43 11 -70.5 44.5t-27.5 75.5q0 52 39.5 89t97.5 37t97.5 -37t39.5 -89q0 -41 -27 -74.5t-70 -45.5l297 -622h-188l-26 58v0v0v0h-1v0v0h-1v0h-1v0h-1v0h-1h-1h-1h-1h-1h-1h-1h-1h-1h-1h-1h-1h-1h-1h-1h-1h-1h-1h-1h-1h-1h-1h-1h-1h-1h-1
h-1h-1h-1h-1h-1h-1h-1h-1h-1h-1h-1h-1h-1h-1h-1h-1h-1h-2h-1h-1h-1h-1h-1h-1h-1h-1h-2h-1h-1h-1h-1h-1h-2h-1h-1h-1h-1h-2h-1h-1h-1h-2h-1h-1h-1h-2h-1h-1h-2h-1h-1h-2h-1h-1h-2h-1h-1h-2h-1h-1h-2h-1h-2h-1h-1h-2h-1h-2h-1h-2h-1h-1h-2h-1h-2h-1h-2h-1h-2h-1h-2h-1h-2h-1
h-2h-1h-2h-1h-2h-2h-1h-2h-1h-2h-1h-2h-2h-1h-2h-1h-2h-2h-1h-2h-2h-1h-2h-1h-2h-2h-1h-2h-2h-2h-1h-2h-2h-1h-2h-2h-1h-2h-2h-2h-1h-2h-2h-2h-1h-2h-2h-2h-1h-2h-2h-2h-2h-1h-2h-2h-2h-2h-2h-1h-2h-2h-2h-2h-2h-1h-9zM340 700q17 0 28 11.5t11 30.5t-11 30.5t-28 11.5
t-28 -11.5t-11 -30.5t11 -30.5t28 -11.5zM403 194l-70 158l-68 -158h138z" />
    <glyph glyph-name="AE" unicode="&#xc6;" horiz-adv-x="975" 
d="M457 59h-217l-43 -59h-196l509 680h422v-153h-295v-158h246v-153h-246v-63h309v-153h-489v59zM337 192h120v163q-119 -163 -120 -163z" />
    <glyph glyph-name="Ccedilla" unicode="&#xc7;" horiz-adv-x="686" 
d="M298 0q-118 27 -195 119.5t-77 220.5q0 150 102 249t242 99q195 0 294 -146l-137 -93q-53 81 -154 81q-73 0 -117 -54t-44 -136t45.5 -136.5t121.5 -54.5q110 0 160 94l140 -90q-50 -84 -122.5 -123t-176.5 -39h-9v-23q38 -6 62.5 -33t24.5 -69q0 -44 -34 -71t-77 -27
q-87 0 -124 60l71 47q13 -24 37 -24q29 0 29 25q0 26 -36 26h-35v98h9z" />
    <glyph glyph-name="Egrave" unicode="&#xc8;" horiz-adv-x="579" 
d="M59 0v680h477v-153h-295v-158h246v-145h-246v-71h309v-153h-491zM240 722l-95 182h188l40 -182h-133z" />
    <glyph glyph-name="Eacute" unicode="&#xc9;" horiz-adv-x="579" 
d="M59 0v680h477v-153h-295v-158h246v-145h-246v-71h309v-153h-491zM334 722h-133l40 182h188z" />
    <glyph glyph-name="Ecircumflex" unicode="&#xca;" horiz-adv-x="579" 
d="M59 0v680h477v-153h-295v-158h246v-145h-246v-71h309v-153h-491zM122 722l160 210q5 6 9 0l160 -210h-127l-37 39l-38 -39h-127z" />
    <glyph glyph-name="Edieresis" unicode="&#xcb;" horiz-adv-x="579" 
d="M59 0v680h477v-153h-295v-158h246v-145h-246v-71h309v-153h-491zM383 717q-31 0 -55 23.5t-24 56.5t24 56.5t55 23.5q32 0 56 -23.5t24 -56.5t-24 -56.5t-56 -23.5zM191 717q-31 0 -55.5 23.5t-24.5 56.5t24.5 56.5t55.5 23.5q32 0 55.5 -23.5t23.5 -56.5t-23.5 -56.5
t-55.5 -23.5z" />
    <glyph glyph-name="Igrave" unicode="&#xcc;" horiz-adv-x="308" 
d="M63 0v680h182v-680h-182zM107 722l-95 182h188l40 -182h-133z" />
    <glyph glyph-name="Iacute" unicode="&#xcd;" horiz-adv-x="308" 
d="M63 0v680h182v-680h-182zM201 722h-133l40 182h188z" />
    <glyph glyph-name="Icircumflex" unicode="&#xce;" horiz-adv-x="308" 
d="M63 0v680h182v-680h-182zM-11 722l160 210q5 6 9 0l160 -210h-127l-37 39l-38 -39h-127z" />
    <glyph glyph-name="Idieresis" unicode="&#xcf;" horiz-adv-x="308" 
d="M63 0v680h182v-680h-182zM250 717q-31 0 -55 23.5t-24 56.5t24 56.5t55 23.5q32 0 56 -23.5t24 -56.5t-24 -56.5t-56 -23.5zM58 717q-31 0 -55.5 23.5t-24.5 56.5t24.5 56.5t55.5 23.5q32 0 55.5 -23.5t23.5 -56.5t-23.5 -56.5t-55.5 -23.5z" />
    <glyph glyph-name="Eth" unicode="&#xd0;" horiz-adv-x="688" 
d="M59 222h-53v147h53v311h263q150 0 247 -92.5t97 -247.5t-97 -247.5t-247 -92.5h-263v222zM241 369h128v-147h-128v-68h61q82 0 130 50.5t48 135.5t-48 135.5t-130 50.5h-61v-157z" />
    <glyph glyph-name="Ntilde" unicode="&#xd1;" horiz-adv-x="730" 
d="M657 -12l-427 351v-339h-171v689q0 13 14 2l427 -352v341h171v-690q0 -13 -14 -2zM426 717q-29 0 -64.5 19.5t-42.5 19.5q-21 0 -30 -34l-110 14q10 74 45 112t80 38q29 0 64.5 -19.5t42.5 -19.5q21 0 30 34l110 -14q-9 -73 -44.5 -111.5t-80.5 -38.5z" />
    <glyph glyph-name="Ograve" unicode="&#xd2;" horiz-adv-x="782" 
d="M391 -9q-150 0 -257.5 99t-107.5 250t107.5 249.5t257.5 98.5t257.5 -98.5t107.5 -249.5t-107.5 -250t-257.5 -99zM391 149q83 0 131 54t48 137t-48 136.5t-131 53.5t-131 -53.5t-48 -136.5t48 -137t131 -54zM340 722l-95 182h188l40 -182h-133z" />
    <glyph glyph-name="Oacute" unicode="&#xd3;" horiz-adv-x="782" 
d="M391 -9q-150 0 -257.5 99t-107.5 250t107.5 249.5t257.5 98.5t257.5 -98.5t107.5 -249.5t-107.5 -250t-257.5 -99zM391 149q83 0 131 54t48 137t-48 136.5t-131 53.5t-131 -53.5t-48 -136.5t48 -137t131 -54zM434 722h-133l40 182h188z" />
    <glyph glyph-name="Ocircumflex" unicode="&#xd4;" horiz-adv-x="782" 
d="M391 -9q-150 0 -257.5 99t-107.5 250t107.5 249.5t257.5 98.5t257.5 -98.5t107.5 -249.5t-107.5 -250t-257.5 -99zM391 149q83 0 131 54t48 137t-48 136.5t-131 53.5t-131 -53.5t-48 -136.5t48 -137t131 -54zM222 722l160 210q5 6 9 0l160 -210h-127l-37 39l-38 -39h-127
z" />
    <glyph glyph-name="Otilde" unicode="&#xd5;" horiz-adv-x="782" 
d="M391 -9q-150 0 -257.5 99t-107.5 250t107.5 249.5t257.5 98.5t257.5 -98.5t107.5 -249.5t-107.5 -250t-257.5 -99zM391 149q83 0 131 54t48 137t-48 136.5t-131 53.5t-131 -53.5t-48 -136.5t48 -137t131 -54zM448 717q-29 0 -64.5 19.5t-42.5 19.5q-21 0 -30 -34l-110 14
q10 74 45 112t80 38q29 0 64.5 -19.5t42.5 -19.5q21 0 30 34l110 -14q-9 -73 -44.5 -111.5t-80.5 -38.5z" />
    <glyph glyph-name="Odieresis" unicode="&#xd6;" horiz-adv-x="774" 
d="M483 717q-31 0 -55 23.5t-24 56.5t24 56.5t55 23.5q32 0 56 -23.5t24 -56.5t-24 -56.5t-56 -23.5zM291 717q-31 0 -55.5 23.5t-24.5 56.5t24.5 56.5t55.5 23.5q32 0 55.5 -23.5t23.5 -56.5t-23.5 -56.5t-55.5 -23.5zM391 -9q-150 0 -257.5 99t-107.5 250t107.5 249.5
t257.5 98.5t257.5 -98.5t107.5 -249.5t-107.5 -250t-257.5 -99zM391 149q83 0 131 54t48 137t-48 136.5t-131 53.5t-131 -53.5t-48 -136.5t48 -137t131 -54z" />
    <glyph glyph-name="multiply" unicode="&#xd7;" 
d="M136 210q-41 0 -70.5 28t-29.5 70t29.5 70t70.5 28q40 0 70 -28t30 -70t-30 -70t-70 -28z" />
    <glyph glyph-name="Oslash" unicode="&#xd8;" horiz-adv-x="782" 
d="M692 540q64 -88 64 -200q0 -151 -107.5 -250t-257.5 -99q-113 0 -205 59l-72 -70l-95 90l71 69q-64 88 -64 201q0 151 107.5 249.5t257.5 98.5q113 0 205 -59l72 70l95 -90q-71 -68 -71 -69zM222 266l255 247q-37 17 -86 17q-83 0 -131 -53.5t-48 -136.5q0 -41 10 -74z
M560 413l-255 -247q37 -17 86 -17q83 0 131 54t48 137q0 42 -10 73z" />
    <glyph glyph-name="Ugrave" unicode="&#xd9;" horiz-adv-x="694" 
d="M347 -10q-133 0 -214 70t-81 203v417h182v-415q0 -121 113 -121t113 121v415h182v-417q0 -133 -81 -203t-214 -70zM300 722l-95 182h188l40 -182h-133z" />
    <glyph glyph-name="Uacute" unicode="&#xda;" horiz-adv-x="694" 
d="M347 -10q-133 0 -214 70t-81 203v417h182v-415q0 -121 113 -121t113 121v415h182v-417q0 -133 -81 -203t-214 -70zM394 722h-133l40 182h188z" />
    <glyph glyph-name="Ucircumflex" unicode="&#xdb;" horiz-adv-x="694" 
d="M347 -10q-133 0 -214 70t-81 203v417h182v-415q0 -121 113 -121t113 121v415h182v-417q0 -133 -81 -203t-214 -70zM182 722l160 210q5 6 9 0l160 -210h-127l-37 39l-38 -39h-127z" />
    <glyph glyph-name="Udieresis" unicode="&#xdc;" horiz-adv-x="694" 
d="M443 717q-31 0 -55 23.5t-24 56.5t24 56.5t55 23.5q32 0 56 -23.5t24 -56.5t-24 -56.5t-56 -23.5zM251 717q-31 0 -55.5 23.5t-24.5 56.5t24.5 56.5t55.5 23.5q32 0 55.5 -23.5t23.5 -56.5t-23.5 -56.5t-55.5 -23.5zM347 -10q-133 0 -214 70t-81 203v417h182v-415
q0 -121 113 -121t113 121v415h182v-417q0 -133 -81 -203t-214 -70z" />
    <glyph glyph-name="Yacute" unicode="&#xdd;" horiz-adv-x="706" 
d="M264 235l-260 445h200l154 -277l153 277h191l-256 -440v-240h-182v235zM409 722h-133l40 182h188z" />
    <glyph glyph-name="Thorn" unicode="&#xde;" horiz-adv-x="628" 
d="M241 78v-78h-182v680h182v-69h76q134 0 210 -75t76 -192t-76 -191.5t-210 -74.5h-76zM241 457v-225h67q112 0 112 112q0 113 -112 113h-67z" />
    <glyph glyph-name="germandbls" unicode="&#xdf;" horiz-adv-x="1136" 
d="M854 -10q-187 0 -282 126l132 99q59 -73 141 -73q87 0 87 53q0 21 -14 33t-53 25l-80 27q-169 56 -169 205q0 96 67.5 149.5t164.5 53.5q149 0 226 -90l-104 -109q-46 48 -114 48q-64 0 -64 -46q0 -19 11.5 -30t36.5 -20l90 -30q99 -33 140.5 -82t41.5 -124
q0 -99 -64 -157t-194 -58zM286 -10q-187 0 -282 126l132 99q59 -73 141 -73q87 0 87 53q0 21 -14 33t-53 25l-80 27q-169 56 -169 205q0 96 67.5 149.5t164.5 53.5q149 0 226 -90l-104 -109q-46 48 -114 48q-64 0 -64 -46q0 -19 11 -30t37 -20l90 -30q99 -33 140.5 -82
t41.5 -124q0 -99 -64 -157t-194 -58z" />
    <glyph glyph-name="agrave" unicode="&#xe0;" horiz-adv-x="681" 
d="M207 58l-25 -58h-178l331 692q2 5 6 5t6 -5l330 -692h-188l-26 58v0v0v0h-1v0v0h-1v0h-1v0h-1v0h-1h-1h-1h-1h-1h-1h-1h-1h-1h-1h-1h-1h-1h-1h-1h-1h-1h-1h-1h-1h-1h-1h-1h-1h-1h-1h-1h-1h-1h-1h-1h-1h-1h-1h-1h-1h-1h-1h-1h-1h-1h-1h-1h-2h-1h-1h-1h-1h-1h-1h-1h-1h-2
h-1h-1h-1h-1h-1h-2h-1h-1h-1h-1h-2h-1h-1h-1h-2h-1h-1h-1h-2h-1h-1h-2h-1h-1h-2h-1h-1h-2h-1h-1h-2h-1h-1h-2h-1h-2h-1h-1h-2h-1h-2h-1h-2h-1h-1h-2h-1h-2h-1h-2h-1h-2h-1h-2h-1h-2h-1h-2h-1h-2h-1h-2h-2h-1h-2h-1h-2h-1h-2h-2h-1h-2h-1h-2h-2h-1h-2h-2h-1h-2h-1h-2h-2h-1
h-2h-2h-2h-1h-2h-2h-1h-2h-2h-1h-2h-2h-2h-1h-2h-2h-2h-1h-2h-2h-2h-1h-2h-2h-2h-2h-1h-2h-2h-2h-2h-2h-1h-2h-2h-2h-2h-2h-1h-9zM403 194l-70 158l-68 -158h138zM273 722l-95 182h188l40 -182h-133z" />
    <glyph glyph-name="aacute" unicode="&#xe1;" horiz-adv-x="681" 
d="M207 58l-25 -58h-178l331 692q2 5 6 5t6 -5l330 -692h-188l-26 58v0v0v0h-1v0v0h-1v0h-1v0h-1v0h-1h-1h-1h-1h-1h-1h-1h-1h-1h-1h-1h-1h-1h-1h-1h-1h-1h-1h-1h-1h-1h-1h-1h-1h-1h-1h-1h-1h-1h-1h-1h-1h-1h-1h-1h-1h-1h-1h-1h-1h-1h-1h-1h-2h-1h-1h-1h-1h-1h-1h-1h-1h-2
h-1h-1h-1h-1h-1h-2h-1h-1h-1h-1h-2h-1h-1h-1h-2h-1h-1h-1h-2h-1h-1h-2h-1h-1h-2h-1h-1h-2h-1h-1h-2h-1h-1h-2h-1h-2h-1h-1h-2h-1h-2h-1h-2h-1h-1h-2h-1h-2h-1h-2h-1h-2h-1h-2h-1h-2h-1h-2h-1h-2h-1h-2h-2h-1h-2h-1h-2h-1h-2h-2h-1h-2h-1h-2h-2h-1h-2h-2h-1h-2h-1h-2h-2h-1
h-2h-2h-2h-1h-2h-2h-1h-2h-2h-1h-2h-2h-2h-1h-2h-2h-2h-1h-2h-2h-2h-1h-2h-2h-2h-2h-1h-2h-2h-2h-2h-2h-1h-2h-2h-2h-2h-2h-1h-9zM403 194l-70 158l-68 -158h138zM407 722h-133l40 182h188z" />
    <glyph glyph-name="acircumflex" unicode="&#xe2;" horiz-adv-x="681" 
d="M207 58l-25 -58h-178l331 692q2 5 6 5t6 -5l330 -692h-188l-26 58v0v0v0h-1v0v0h-1v0h-1v0h-1v0h-1h-1h-1h-1h-1h-1h-1h-1h-1h-1h-1h-1h-1h-1h-1h-1h-1h-1h-1h-1h-1h-1h-1h-1h-1h-1h-1h-1h-1h-1h-1h-1h-1h-1h-1h-1h-1h-1h-1h-1h-1h-1h-1h-2h-1h-1h-1h-1h-1h-1h-1h-1h-2
h-1h-1h-1h-1h-1h-2h-1h-1h-1h-1h-2h-1h-1h-1h-2h-1h-1h-1h-2h-1h-1h-2h-1h-1h-2h-1h-1h-2h-1h-1h-2h-1h-1h-2h-1h-2h-1h-1h-2h-1h-2h-1h-2h-1h-1h-2h-1h-2h-1h-2h-1h-2h-1h-2h-1h-2h-1h-2h-1h-2h-1h-2h-2h-1h-2h-1h-2h-1h-2h-2h-1h-2h-1h-2h-2h-1h-2h-2h-1h-2h-1h-2h-2h-1
h-2h-2h-2h-1h-2h-2h-1h-2h-2h-1h-2h-2h-2h-1h-2h-2h-2h-1h-2h-2h-2h-1h-2h-2h-2h-2h-1h-2h-2h-2h-2h-2h-1h-2h-2h-2h-2h-2h-1h-9zM403 194l-70 158l-68 -158h138zM175 722l160 210q5 6 9 0l160 -210h-127l-37 39l-38 -39h-127z" />
    <glyph glyph-name="atilde" unicode="&#xe3;" horiz-adv-x="681" 
d="M207 58l-25 -58h-178l331 692q2 5 6 5t6 -5l330 -692h-188l-26 58v0v0v0h-1v0v0h-1v0h-1v0h-1v0h-1h-1h-1h-1h-1h-1h-1h-1h-1h-1h-1h-1h-1h-1h-1h-1h-1h-1h-1h-1h-1h-1h-1h-1h-1h-1h-1h-1h-1h-1h-1h-1h-1h-1h-1h-1h-1h-1h-1h-1h-1h-1h-1h-2h-1h-1h-1h-1h-1h-1h-1h-1h-2
h-1h-1h-1h-1h-1h-2h-1h-1h-1h-1h-2h-1h-1h-1h-2h-1h-1h-1h-2h-1h-1h-2h-1h-1h-2h-1h-1h-2h-1h-1h-2h-1h-1h-2h-1h-2h-1h-1h-2h-1h-2h-1h-2h-1h-1h-2h-1h-2h-1h-2h-1h-2h-1h-2h-1h-2h-1h-2h-1h-2h-1h-2h-2h-1h-2h-1h-2h-1h-2h-2h-1h-2h-1h-2h-2h-1h-2h-2h-1h-2h-1h-2h-2h-1
h-2h-2h-2h-1h-2h-2h-1h-2h-2h-1h-2h-2h-2h-1h-2h-2h-2h-1h-2h-2h-2h-1h-2h-2h-2h-2h-1h-2h-2h-2h-2h-2h-1h-2h-2h-2h-2h-2h-1h-9zM403 194l-70 158l-68 -158h138zM401 717q-29 0 -64.5 19.5t-42.5 19.5q-21 0 -30 -34l-110 14q10 74 45 112t80 38q29 0 64.5 -19.5
t42.5 -19.5q21 0 30 34l110 -14q-9 -73 -44.5 -111.5t-80.5 -38.5z" />
    <glyph glyph-name="adieresis" unicode="&#xe4;" horiz-adv-x="681" 
d="M536 528q-31 0 -55 23.5t-24 56.5t24 56.5t55 23.5q32 0 56 -23.5t24 -56.5t-24 -56.5t-56 -23.5zM144 528q-31 0 -55.5 23.5t-24.5 56.5t24.5 56.5t55.5 23.5q32 0 55.5 -23.5t23.5 -56.5t-23.5 -56.5t-55.5 -23.5zM207 58l-25 -58h-178l331 692q2 5 6 5t6 -5l330 -692
h-188l-26 58v0v0v0h-1v0v0h-1v0h-1v0h-1v0h-1h-1h-1h-1h-1h-1h-1h-1h-1h-1h-1h-1h-1h-1h-1h-1h-1h-1h-1h-1h-1h-1h-1h-1h-1h-1h-1h-1h-1h-1h-1h-1h-1h-1h-1h-1h-1h-1h-1h-1h-1h-1h-1h-2h-1h-1h-1h-1h-1h-1h-1h-1h-2h-1h-1h-1h-1h-1h-2h-1h-1h-1h-1h-2h-1h-1h-1h-2h-1h-1h-1
h-2h-1h-1h-2h-1h-1h-2h-1h-1h-2h-1h-1h-2h-1h-1h-2h-1h-2h-1h-1h-2h-1h-2h-1h-2h-1h-1h-2h-1h-2h-1h-2h-1h-2h-1h-2h-1h-2h-1h-2h-1h-2h-1h-2h-2h-1h-2h-1h-2h-1h-2h-2h-1h-2h-1h-2h-2h-1h-2h-2h-1h-2h-1h-2h-2h-1h-2h-2h-2h-1h-2h-2h-1h-2h-2h-1h-2h-2h-2h-1h-2h-2h-2h-1
h-2h-2h-2h-1h-2h-2h-2h-2h-1h-2h-2h-2h-2h-2h-1h-2h-2h-2h-2h-2h-1h-9zM403 194l-70 158l-68 -158h138z" />
    <glyph glyph-name="aring" unicode="&#xe5;" horiz-adv-x="681" 
d="M207 58l-25 -58h-178l331 692q2 5 6 5t6 -5l330 -692h-188l-26 58v0v0v0h-1v0v0h-1v0h-1v0h-1v0h-1h-1h-1h-1h-1h-1h-1h-1h-1h-1h-1h-1h-1h-1h-1h-1h-1h-1h-1h-1h-1h-1h-1h-1h-1h-1h-1h-1h-1h-1h-1h-1h-1h-1h-1h-1h-1h-1h-1h-1h-1h-1h-1h-2h-1h-1h-1h-1h-1h-1h-1h-1h-2
h-1h-1h-1h-1h-1h-2h-1h-1h-1h-1h-2h-1h-1h-1h-2h-1h-1h-1h-2h-1h-1h-2h-1h-1h-2h-1h-1h-2h-1h-1h-2h-1h-1h-2h-1h-2h-1h-1h-2h-1h-2h-1h-2h-1h-1h-2h-1h-2h-1h-2h-1h-2h-1h-2h-1h-2h-1h-2h-1h-2h-1h-2h-2h-1h-2h-1h-2h-1h-2h-2h-1h-2h-1h-2h-2h-1h-2h-2h-1h-2h-1h-2h-2h-1
h-2h-2h-2h-1h-2h-2h-1h-2h-2h-1h-2h-2h-2h-1h-2h-2h-2h-1h-2h-2h-2h-1h-2h-2h-2h-2h-1h-2h-2h-2h-2h-2h-1h-2h-2h-2h-2h-2h-1h-9zM403 194l-70 158l-68 -158h138zM340 617q-58 0 -97.5 37t-39.5 88q0 52 39.5 89t97.5 37t97.5 -37t39.5 -89q0 -51 -39.5 -88t-97.5 -37z
M340 700q17 0 28 11.5t11 30.5t-11 30.5t-28 11.5t-28 -11.5t-11 -30.5t11 -30.5t28 -11.5z" />
    <glyph glyph-name="ae" unicode="&#xe6;" horiz-adv-x="937" 
d="M465 62h-261l-25 -62h-175l315 680h391v-153h-284l75 -158h290v-153h-217l30 -63h308v-153h-420zM258 195h148l-77 174z" />
    <glyph glyph-name="ccedilla" unicode="&#xe7;" horiz-adv-x="686" 
d="M298 0q-118 27 -195 119.5t-77 220.5q0 150 102 249t242 99q195 0 294 -146l-137 -93q-53 81 -154 81q-73 0 -117 -54t-44 -136t45.5 -136.5t121.5 -54.5q110 0 160 94l140 -90q-50 -84 -122.5 -123t-176.5 -39h-9v-23q38 -6 62.5 -33t24.5 -69q0 -44 -34 -71t-77 -27
q-87 0 -124 60l71 47q13 -24 37 -24q29 0 29 25q0 26 -36 26h-35v98h9z" />
    <glyph glyph-name="egrave" unicode="&#xe8;" horiz-adv-x="579" 
d="M59 0v680h477v-153h-295v-158h246v-145h-246v-71h309v-153h-491zM240 722l-95 182h188l40 -182h-133z" />
    <glyph glyph-name="eacute" unicode="&#xe9;" horiz-adv-x="579" 
d="M59 0v680h477v-153h-295v-158h246v-145h-246v-71h309v-153h-491zM334 722h-133l40 182h188z" />
    <glyph glyph-name="ecircumflex" unicode="&#xea;" horiz-adv-x="579" 
d="M59 0v680h477v-153h-295v-158h246v-145h-246v-71h309v-153h-491zM122 722l160 210q5 6 9 0l160 -210h-127l-37 39l-38 -39h-127z" />
    <glyph glyph-name="edieresis" unicode="&#xeb;" horiz-adv-x="579" 
d="M59 0v680h477v-153h-295v-158h246v-145h-246v-71h309v-153h-491zM383 717q-31 0 -55 23.5t-24 56.5t24 56.5t55 23.5q32 0 56 -23.5t24 -56.5t-24 -56.5t-56 -23.5zM191 717q-31 0 -55.5 23.5t-24.5 56.5t24.5 56.5t55.5 23.5q32 0 55.5 -23.5t23.5 -56.5t-23.5 -56.5
t-55.5 -23.5z" />
    <glyph glyph-name="igrave" unicode="&#xec;" horiz-adv-x="308" 
d="M63 0v680h182v-680h-182zM107 722l-95 182h188l40 -182h-133z" />
    <glyph glyph-name="iacute" unicode="&#xed;" horiz-adv-x="308" 
d="M63 0v680h182v-680h-182zM201 722h-133l40 182h188z" />
    <glyph glyph-name="icircumflex" unicode="&#xee;" horiz-adv-x="308" 
d="M63 0v680h182v-680h-182zM-11 722l160 210q5 6 9 0l160 -210h-127l-37 39l-38 -39h-127z" />
    <glyph glyph-name="idieresis" unicode="&#xef;" horiz-adv-x="308" 
d="M63 0v680h182v-680h-182zM250 717q-31 0 -55 23.5t-24 56.5t24 56.5t55 23.5q32 0 56 -23.5t24 -56.5t-24 -56.5t-56 -23.5zM58 717q-31 0 -55.5 23.5t-24.5 56.5t24.5 56.5t55.5 23.5q32 0 55.5 -23.5t23.5 -56.5t-23.5 -56.5t-55.5 -23.5z" />
    <glyph glyph-name="eth" unicode="&#xf0;" horiz-adv-x="688" 
d="M59 222h-53v147h53v311h263q150 0 247 -92.5t97 -247.5t-97 -247.5t-247 -92.5h-263v222zM241 369h128v-147h-128v-68h61q82 0 130 50.5t48 135.5t-48 135.5t-130 50.5h-61v-157z" />
    <glyph glyph-name="ntilde" unicode="&#xf1;" horiz-adv-x="730" 
d="M657 -12l-427 351v-339h-171v689q0 13 14 2l427 -352v341h171v-690q0 -13 -14 -2zM426 717q-29 0 -64.5 19.5t-42.5 19.5q-21 0 -30 -34l-110 14q10 74 45 112t80 38q29 0 64.5 -19.5t42.5 -19.5q21 0 30 34l110 -14q-9 -73 -44.5 -111.5t-80.5 -38.5z" />
    <glyph glyph-name="ograve" unicode="&#xf2;" horiz-adv-x="782" 
d="M391 -9q-150 0 -257.5 99t-107.5 250t107.5 249.5t257.5 98.5t257.5 -98.5t107.5 -249.5t-107.5 -250t-257.5 -99zM391 149q83 0 131 54t48 137t-48 136.5t-131 53.5t-131 -53.5t-48 -136.5t48 -137t131 -54zM340 722l-95 182h188l40 -182h-133z" />
    <glyph glyph-name="oacute" unicode="&#xf3;" horiz-adv-x="782" 
d="M391 -9q-150 0 -257.5 99t-107.5 250t107.5 249.5t257.5 98.5t257.5 -98.5t107.5 -249.5t-107.5 -250t-257.5 -99zM391 149q83 0 131 54t48 137t-48 136.5t-131 53.5t-131 -53.5t-48 -136.5t48 -137t131 -54zM434 722h-133l40 182h188z" />
    <glyph glyph-name="ocircumflex" unicode="&#xf4;" horiz-adv-x="782" 
d="M391 -9q-150 0 -257.5 99t-107.5 250t107.5 249.5t257.5 98.5t257.5 -98.5t107.5 -249.5t-107.5 -250t-257.5 -99zM391 149q83 0 131 54t48 137t-48 136.5t-131 53.5t-131 -53.5t-48 -136.5t48 -137t131 -54zM222 722l160 210q5 6 9 0l160 -210h-127l-37 39l-38 -39h-127
z" />
    <glyph glyph-name="otilde" unicode="&#xf5;" horiz-adv-x="782" 
d="M391 -9q-150 0 -257.5 99t-107.5 250t107.5 249.5t257.5 98.5t257.5 -98.5t107.5 -249.5t-107.5 -250t-257.5 -99zM391 149q83 0 131 54t48 137t-48 136.5t-131 53.5t-131 -53.5t-48 -136.5t48 -137t131 -54zM448 717q-29 0 -64.5 19.5t-42.5 19.5q-21 0 -30 -34l-110 14
q10 74 45 112t80 38q29 0 64.5 -19.5t42.5 -19.5q21 0 30 34l110 -14q-9 -73 -44.5 -111.5t-80.5 -38.5z" />
    <glyph glyph-name="odieresis" unicode="&#xf6;" horiz-adv-x="782" 
d="M391 -9q-150 0 -257.5 99t-107.5 250t107.5 249.5t257.5 98.5t257.5 -98.5t107.5 -249.5t-107.5 -250t-257.5 -99zM391 149q83 0 131 54t48 137t-48 136.5t-131 53.5t-131 -53.5t-48 -136.5t48 -137t131 -54zM483 717q-31 0 -55 23.5t-24 56.5t24 56.5t55 23.5
q32 0 56 -23.5t24 -56.5t-24 -56.5t-56 -23.5zM291 717q-31 0 -55.5 23.5t-24.5 56.5t24.5 56.5t55.5 23.5q32 0 55.5 -23.5t23.5 -56.5t-23.5 -56.5t-55.5 -23.5z" />
    <glyph glyph-name="divide" unicode="&#xf7;" 
d="M136 210q-41 0 -70.5 28t-29.5 70t29.5 70t70.5 28q40 0 70 -28t30 -70t-30 -70t-70 -28z" />
    <glyph glyph-name="oslash" unicode="&#xf8;" horiz-adv-x="782" 
d="M692 540q64 -88 64 -200q0 -151 -107.5 -250t-257.5 -99q-113 0 -205 59l-72 -70l-95 90l71 69q-64 88 -64 201q0 151 107.5 249.5t257.5 98.5q113 0 205 -59l72 70l95 -90q-71 -68 -71 -69zM222 266l255 247q-37 17 -86 17q-83 0 -131 -53.5t-48 -136.5q0 -41 10 -74z
M560 413l-255 -247q37 -17 86 -17q83 0 131 54t48 137q0 42 -10 73z" />
    <glyph glyph-name="ugrave" unicode="&#xf9;" horiz-adv-x="694" 
d="M347 -10q-133 0 -214 70t-81 203v417h182v-415q0 -121 113 -121t113 121v415h182v-417q0 -133 -81 -203t-214 -70zM300 722l-95 182h188l40 -182h-133z" />
    <glyph glyph-name="uacute" unicode="&#xfa;" horiz-adv-x="694" 
d="M347 -10q-133 0 -214 70t-81 203v417h182v-415q0 -121 113 -121t113 121v415h182v-417q0 -133 -81 -203t-214 -70zM394 722h-133l40 182h188z" />
    <glyph glyph-name="ucircumflex" unicode="&#xfb;" horiz-adv-x="694" 
d="M347 -10q-133 0 -214 70t-81 203v417h182v-415q0 -121 113 -121t113 121v415h182v-417q0 -133 -81 -203t-214 -70zM182 722l160 210q5 6 9 0l160 -210h-127l-37 39l-38 -39h-127z" />
    <glyph glyph-name="udieresis" unicode="&#xfc;" horiz-adv-x="694" 
d="M347 -10q-133 0 -214 70t-81 203v417h182v-415q0 -121 113 -121t113 121v415h182v-417q0 -133 -81 -203t-214 -70zM443 717q-31 0 -55 23.5t-24 56.5t24 56.5t55 23.5q32 0 56 -23.5t24 -56.5t-24 -56.5t-56 -23.5zM251 717q-31 0 -55.5 23.5t-24.5 56.5t24.5 56.5
t55.5 23.5q32 0 55.5 -23.5t23.5 -56.5t-23.5 -56.5t-55.5 -23.5z" />
    <glyph glyph-name="yacute" unicode="&#xfd;" horiz-adv-x="706" 
d="M264 235l-260 445h200l154 -277l153 277h191l-256 -440v-240h-182v235zM409 722h-133l40 182h188z" />
    <glyph glyph-name="thorn" unicode="&#xfe;" horiz-adv-x="628" 
d="M241 78v-78h-182v680h182v-69h76q134 0 210 -75t76 -192t-76 -191.5t-210 -74.5h-76zM241 457v-225h67q112 0 112 112q0 113 -112 113h-67z" />
    <glyph glyph-name="ydieresis" unicode="&#xff;" horiz-adv-x="706" 
d="M264 235l-260 445h200l154 -277l153 277h191l-256 -440v-240h-182v235zM458 717q-31 0 -55 23.5t-24 56.5t24 56.5t55 23.5q32 0 56 -23.5t24 -56.5t-24 -56.5t-56 -23.5zM266 717q-31 0 -55.5 23.5t-24.5 56.5t24.5 56.5t55.5 23.5q32 0 55.5 -23.5t23.5 -56.5
t-23.5 -56.5t-55.5 -23.5z" />
    <glyph glyph-name="Amacron" unicode="&#x100;" horiz-adv-x="681" 
d="M218 722v126h244v-126h-244zM207 58l-25 -58h-178l331 692q2 5 6 5t6 -5l330 -692h-188l-26 58v0v0v0h-1v0v0h-1v0h-1v0h-1v0h-1h-1h-1h-1h-1h-1h-1h-1h-1h-1h-1h-1h-1h-1h-1h-1h-1h-1h-1h-1h-1h-1h-1h-1h-1h-1h-1h-1h-1h-1h-1h-1h-1h-1h-1h-1h-1h-1h-1h-1h-1h-1h-1h-2
h-1h-1h-1h-1h-1h-1h-1h-1h-2h-1h-1h-1h-1h-1h-2h-1h-1h-1h-1h-2h-1h-1h-1h-2h-1h-1h-1h-2h-1h-1h-2h-1h-1h-2h-1h-1h-2h-1h-1h-2h-1h-1h-2h-1h-2h-1h-1h-2h-1h-2h-1h-2h-1h-1h-2h-1h-2h-1h-2h-1h-2h-1h-2h-1h-2h-1h-2h-1h-2h-1h-2h-2h-1h-2h-1h-2h-1h-2h-2h-1h-2h-1h-2h-2
h-1h-2h-2h-1h-2h-1h-2h-2h-1h-2h-2h-2h-1h-2h-2h-1h-2h-2h-1h-2h-2h-2h-1h-2h-2h-2h-1h-2h-2h-2h-1h-2h-2h-2h-2h-1h-2h-2h-2h-2h-2h-1h-2h-2h-2h-2h-2h-1h-9zM403 194l-70 158l-68 -158h138z" />
    <glyph glyph-name="amacron" unicode="&#x101;" horiz-adv-x="681" 
d="M218 722v126h244v-126h-244zM207 58l-25 -58h-178l331 692q2 5 6 5t6 -5l330 -692h-188l-26 58v0v0v0h-1v0v0h-1v0h-1v0h-1v0h-1h-1h-1h-1h-1h-1h-1h-1h-1h-1h-1h-1h-1h-1h-1h-1h-1h-1h-1h-1h-1h-1h-1h-1h-1h-1h-1h-1h-1h-1h-1h-1h-1h-1h-1h-1h-1h-1h-1h-1h-1h-1h-1h-2
h-1h-1h-1h-1h-1h-1h-1h-1h-2h-1h-1h-1h-1h-1h-2h-1h-1h-1h-1h-2h-1h-1h-1h-2h-1h-1h-1h-2h-1h-1h-2h-1h-1h-2h-1h-1h-2h-1h-1h-2h-1h-1h-2h-1h-2h-1h-1h-2h-1h-2h-1h-2h-1h-1h-2h-1h-2h-1h-2h-1h-2h-1h-2h-1h-2h-1h-2h-1h-2h-1h-2h-2h-1h-2h-1h-2h-1h-2h-2h-1h-2h-1h-2h-2
h-1h-2h-2h-1h-2h-1h-2h-2h-1h-2h-2h-2h-1h-2h-2h-1h-2h-2h-1h-2h-2h-2h-1h-2h-2h-2h-1h-2h-2h-2h-1h-2h-2h-2h-2h-1h-2h-2h-2h-2h-2h-1h-2h-2h-2h-2h-2h-1h-9zM403 194l-70 158l-68 -158h138z" />
    <glyph glyph-name="Abreve" unicode="&#x102;" horiz-adv-x="681" 
d="M340 715q-70 0 -111.5 41t-49.5 97l114 10q8 -31 47 -31t47 31l114 -10q-8 -56 -49.5 -97t-111.5 -41zM207 58l-25 -58h-178l331 692q2 5 6 5t6 -5l330 -692h-188l-26 58v0v0v0h-1v0v0h-1v0h-1v0h-1v0h-1h-1h-1h-1h-1h-1h-1h-1h-1h-1h-1h-1h-1h-1h-1h-1h-1h-1h-1h-1h-1
h-1h-1h-1h-1h-1h-1h-1h-1h-1h-1h-1h-1h-1h-1h-1h-1h-1h-1h-1h-1h-1h-1h-2h-1h-1h-1h-1h-1h-1h-1h-1h-2h-1h-1h-1h-1h-1h-2h-1h-1h-1h-1h-2h-1h-1h-1h-2h-1h-1h-1h-2h-1h-1h-2h-1h-1h-2h-1h-1h-2h-1h-1h-2h-1h-1h-2h-1h-2h-1h-1h-2h-1h-2h-1h-2h-1h-1h-2h-1h-2h-1h-2h-1h-2
h-1h-2h-1h-2h-1h-2h-1h-2h-1h-2h-2h-1h-2h-1h-2h-1h-2h-2h-1h-2h-1h-2h-2h-1h-2h-2h-1h-2h-1h-2h-2h-1h-2h-2h-2h-1h-2h-2h-1h-2h-2h-1h-2h-2h-2h-1h-2h-2h-2h-1h-2h-2h-2h-1h-2h-2h-2h-2h-1h-2h-2h-2h-2h-2h-1h-2h-2h-2h-2h-2h-1h-9zM403 194l-70 158l-68 -158h138z" />
    <glyph glyph-name="abreve" unicode="&#x103;" horiz-adv-x="681" 
d="M340 715q-70 0 -111.5 41t-49.5 97l114 10q8 -31 47 -31t47 31l114 -10q-8 -56 -49.5 -97t-111.5 -41zM207 58l-25 -58h-178l331 692q2 5 6 5t6 -5l330 -692h-188l-26 58v0v0v0h-1v0v0h-1v0h-1v0h-1v0h-1h-1h-1h-1h-1h-1h-1h-1h-1h-1h-1h-1h-1h-1h-1h-1h-1h-1h-1h-1h-1
h-1h-1h-1h-1h-1h-1h-1h-1h-1h-1h-1h-1h-1h-1h-1h-1h-1h-1h-1h-1h-1h-1h-2h-1h-1h-1h-1h-1h-1h-1h-1h-2h-1h-1h-1h-1h-1h-2h-1h-1h-1h-1h-2h-1h-1h-1h-2h-1h-1h-1h-2h-1h-1h-2h-1h-1h-2h-1h-1h-2h-1h-1h-2h-1h-1h-2h-1h-2h-1h-1h-2h-1h-2h-1h-2h-1h-1h-2h-1h-2h-1h-2h-1h-2
h-1h-2h-1h-2h-1h-2h-1h-2h-1h-2h-2h-1h-2h-1h-2h-1h-2h-2h-1h-2h-1h-2h-2h-1h-2h-2h-1h-2h-1h-2h-2h-1h-2h-2h-2h-1h-2h-2h-1h-2h-2h-1h-2h-2h-2h-1h-2h-2h-2h-1h-2h-2h-2h-1h-2h-2h-2h-2h-1h-2h-2h-2h-2h-2h-1h-2h-2h-2h-2h-2h-1h-9zM403 194l-70 158l-68 -158h138z" />
    <glyph glyph-name="Aogonek" unicode="&#x104;" horiz-adv-x="681" 
d="M207 58l-25 -58h-178l331 692q2 5 6 5t6 -5l330 -692h-27q-84 -72 -84 -120q0 -23 25 -23q22 0 39 25l71 -52q-39 -62 -119 -62q-54 0 -86 26t-32 72q0 77 86 134h-61l-26 58v0v0v0h-1v0v0h-1v0h-1v0h-1v0h-1h-1h-1h-1h-1h-1h-1h-1h-1h-1h-1h-1h-1h-1h-1h-1h-1h-1h-1h-1
h-1h-1h-1h-1h-1h-1h-1h-1h-1h-1h-1h-1h-1h-1h-1h-1h-1h-1h-1h-1h-1h-1h-1h-2h-1h-1h-1h-1h-1h-1h-1h-1h-2h-1h-1h-1h-1h-1h-2h-1h-1h-1h-1h-2h-1h-1h-1h-2h-1h-1h-1h-2h-1h-1h-2h-1h-1h-2h-1h-1h-2h-1h-1h-2h-1h-1h-2h-1h-2h-1h-1h-2h-1h-2h-1h-2h-1h-1h-2h-1h-2h-1h-2h-1
h-2h-1h-2h-1h-2h-1h-2h-1h-2h-1h-2h-2h-1h-2h-1h-2h-1h-2h-2h-1h-2h-1h-2h-2h-1h-2h-2h-1h-2h-1h-2h-2h-1h-2h-2h-2h-1h-2h-2h-1h-2h-2h-1h-2h-2h-2h-1h-2h-2h-2h-1h-2h-2h-2h-1h-2h-2h-2h-2h-1h-2h-2h-2h-2h-2h-1h-2h-2h-2h-2h-2h-1h-9zM403 194l-70 158l-68 -158h138z" />
    <glyph glyph-name="aogonek" unicode="&#x105;" horiz-adv-x="681" 
d="M207 58l-25 -58h-178l331 692q2 5 6 5t6 -5l330 -692h-27q-84 -72 -84 -120q0 -23 25 -23q22 0 39 25l71 -52q-39 -62 -119 -62q-54 0 -86 26t-32 72q0 77 86 134h-61l-26 58v0v0v0h-1v0v0h-1v0h-1v0h-1v0h-1h-1h-1h-1h-1h-1h-1h-1h-1h-1h-1h-1h-1h-1h-1h-1h-1h-1h-1h-1
h-1h-1h-1h-1h-1h-1h-1h-1h-1h-1h-1h-1h-1h-1h-1h-1h-1h-1h-1h-1h-1h-1h-1h-2h-1h-1h-1h-1h-1h-1h-1h-1h-2h-1h-1h-1h-1h-1h-2h-1h-1h-1h-1h-2h-1h-1h-1h-2h-1h-1h-1h-2h-1h-1h-2h-1h-1h-2h-1h-1h-2h-1h-1h-2h-1h-1h-2h-1h-2h-1h-1h-2h-1h-2h-1h-2h-1h-1h-2h-1h-2h-1h-2h-1
h-2h-1h-2h-1h-2h-1h-2h-1h-2h-1h-2h-2h-1h-2h-1h-2h-1h-2h-2h-1h-2h-1h-2h-2h-1h-2h-2h-1h-2h-1h-2h-2h-1h-2h-2h-2h-1h-2h-2h-1h-2h-2h-1h-2h-2h-2h-1h-2h-2h-2h-1h-2h-2h-2h-1h-2h-2h-2h-2h-1h-2h-2h-2h-2h-2h-1h-2h-2h-2h-2h-2h-1h-9zM403 194l-70 158l-68 -158h138z" />
    <glyph glyph-name="Cacute" unicode="&#x106;" horiz-adv-x="690" 
d="M429 722h-133l40 182h188zM679 153q-50 -84 -122.5 -123t-176.5 -39q-146 0 -250 99t-104 250q0 150 102 249t242 99q195 0 294 -146l-137 -93q-53 81 -154 81q-73 0 -117 -54t-44 -136t45.5 -136.5t121.5 -54.5q110 0 160 94z" />
    <glyph glyph-name="cacute" unicode="&#x107;" horiz-adv-x="690" 
d="M429 722h-133l40 182h188zM679 153q-50 -84 -122.5 -123t-176.5 -39q-146 0 -250 99t-104 250q0 150 102 249t242 99q195 0 294 -146l-137 -93q-53 81 -154 81q-73 0 -117 -54t-44 -136t45.5 -136.5t121.5 -54.5q110 0 160 94z" />
    <glyph glyph-name="Ccircumflex" unicode="&#x108;" horiz-adv-x="690" 
d="M198 722l160 210q4 6 9 0l160 -210h-127l-37 39l-38 -39h-127zM679 153q-50 -84 -122.5 -123t-176.5 -39q-146 0 -250 99t-104 250q0 150 102 249t242 99q195 0 294 -146l-137 -93q-53 81 -154 81q-73 0 -117 -54t-44 -136t45.5 -136.5t121.5 -54.5q110 0 160 94z" />
    <glyph glyph-name="ccircumflex" unicode="&#x109;" horiz-adv-x="690" 
d="M198 722l160 210q4 6 9 0l160 -210h-127l-37 39l-38 -39h-127zM679 153q-50 -84 -122.5 -123t-176.5 -39q-146 0 -250 99t-104 250q0 150 102 249t242 99q195 0 294 -146l-137 -93q-53 81 -154 81q-73 0 -117 -54t-44 -136t45.5 -136.5t121.5 -54.5q110 0 160 94z" />
    <glyph glyph-name="Ccaron" unicode="&#x10c;" horiz-adv-x="690" 
d="M526 923l-160 -210q-4 -6 -9 0l-160 210h127l37 -39l38 39h127zM679 153q-50 -84 -122.5 -123t-176.5 -39q-146 0 -250 99t-104 250q0 150 102 249t242 99q195 0 294 -146l-137 -93q-53 81 -154 81q-73 0 -117 -54t-44 -136t45.5 -136.5t121.5 -54.5q110 0 160 94z" />
    <glyph glyph-name="ccaron" unicode="&#x10d;" horiz-adv-x="690" 
d="M526 923l-160 -210q-4 -6 -9 0l-160 210h127l37 -39l38 39h127zM679 153q-50 -84 -122.5 -123t-176.5 -39q-146 0 -250 99t-104 250q0 150 102 249t242 99q195 0 294 -146l-137 -93q-53 81 -154 81q-73 0 -117 -54t-44 -136t45.5 -136.5t121.5 -54.5q110 0 160 94z" />
    <glyph glyph-name="Dcaron" unicode="&#x10e;" horiz-adv-x="688" 
d="M452 923l-160 -210q-4 -6 -9 0l-160 210h127l37 -39l38 39h127zM59 0v680h263q150 0 247 -92.5t97 -247.5t-97 -247.5t-247 -92.5h-263zM241 154h61q82 0 130 50.5t48 135.5t-48 135.5t-130 50.5h-61v-372z" />
    <glyph glyph-name="dcaron" unicode="&#x10f;" horiz-adv-x="688" 
d="M452 923l-160 -210q-4 -6 -9 0l-160 210h127l37 -39l38 39h127zM59 0v680h263q150 0 247 -92.5t97 -247.5t-97 -247.5t-247 -92.5h-263zM241 154h61q82 0 130 50.5t48 135.5t-48 135.5t-130 50.5h-61v-372z" />
    <glyph glyph-name="Dcroat" unicode="&#x110;" horiz-adv-x="688" 
d="M59 222h-53v147h53v311h263q150 0 247 -92.5t97 -247.5t-97 -247.5t-247 -92.5h-263v222zM241 369h128v-147h-128v-68h61q82 0 130 50.5t48 135.5t-48 135.5t-130 50.5h-61v-157z" />
    <glyph glyph-name="dcroat" unicode="&#x111;" horiz-adv-x="688" 
d="M59 222h-53v147h53v311h263q150 0 247 -92.5t97 -247.5t-97 -247.5t-247 -92.5h-263v222zM241 369h128v-147h-128v-68h61q82 0 130 50.5t48 135.5t-48 135.5t-130 50.5h-61v-157z" />
    <glyph glyph-name="Emacron" unicode="&#x112;" horiz-adv-x="579" 
d="M172 722v126h244v-126h-244zM59 0v680h477v-153h-295v-158h246v-145h-246v-71h309v-153h-491z" />
    <glyph glyph-name="emacron" unicode="&#x113;" horiz-adv-x="579" 
d="M172 722v126h244v-126h-244zM59 0v680h477v-153h-295v-158h246v-145h-246v-71h309v-153h-491z" />
    <glyph glyph-name="Edotaccent" unicode="&#x116;" horiz-adv-x="579" 
d="M301 717q-31 0 -55.5 23.5t-24.5 56.5t24.5 56.5t55.5 23.5q32 0 55.5 -23.5t23.5 -56.5t-23.5 -56.5t-55.5 -23.5zM59 0v680h477v-153h-295v-158h246v-145h-246v-71h309v-153h-491z" />
    <glyph glyph-name="edotaccent" unicode="&#x117;" horiz-adv-x="579" 
d="M301 717q-31 0 -55.5 23.5t-24.5 56.5t24.5 56.5t55.5 23.5q32 0 55.5 -23.5t23.5 -56.5t-23.5 -56.5t-55.5 -23.5zM59 0v680h477v-153h-295v-158h246v-145h-246v-71h309v-153h-491z" />
    <glyph glyph-name="Eogonek" unicode="&#x118;" horiz-adv-x="579" 
d="M59 0v680h477v-153h-295v-158h246v-145h-246v-71h309v-153h-29q-84 -72 -84 -120q0 -23 25 -23q22 0 39 25l71 -52q-39 -62 -119 -62q-54 0 -86 26t-32 72q0 77 86 134h-362z" />
    <glyph glyph-name="eogonek" unicode="&#x119;" horiz-adv-x="579" 
d="M59 0v680h477v-153h-295v-158h246v-145h-246v-71h309v-153h-29q-84 -72 -84 -120q0 -23 25 -23q22 0 39 25l71 -52q-39 -62 -119 -62q-54 0 -86 26t-32 72q0 77 86 134h-362z" />
    <glyph glyph-name="Ecaron" unicode="&#x11a;" horiz-adv-x="579" 
d="M460 923l-160 -210q-4 -6 -9 0l-160 210h127l37 -39l38 39h127zM59 0v680h477v-153h-295v-158h246v-145h-246v-71h309v-153h-491z" />
    <glyph glyph-name="ecaron" unicode="&#x11b;" horiz-adv-x="579" 
d="M460 923l-160 -210q-4 -6 -9 0l-160 210h127l37 -39l38 39h127zM59 0v680h477v-153h-295v-158h246v-145h-246v-71h309v-153h-491z" />
    <glyph glyph-name="Gcircumflex" unicode="&#x11c;" horiz-adv-x="720" 
d="M207 722l160 210q5 6 9 0l160 -210h-127l-37 39l-38 -39h-127zM526 171v58h-135v140h297v-284q-114 -94 -296 -94q-153 0 -259.5 99t-106.5 250t106 249.5t256 98.5q179 0 273 -121l-127 -110q-56 73 -150 73q-81 0 -126.5 -53.5t-45.5 -136.5q0 -84 48 -140t134 -56
q76 0 132 27z" />
    <glyph glyph-name="gcircumflex" unicode="&#x11d;" horiz-adv-x="741" 
d="M198 722l160 210q4 6 9 0l160 -210h-127l-37 39l-38 -39h-127zM524 229h-131v140h321q0 -1 0.5 -11t0.5 -18q0 -170 -89.5 -260t-244.5 -90q-147 0 -251 99.5t-104 250.5t102.5 249.5t249.5 98.5q97 0 172.5 -40.5t115.5 -112.5l-145 -88q-47 83 -146 83
q-78 0 -120.5 -53t-42.5 -137t44.5 -138t125.5 -54q109 0 142 81z" />
    <glyph glyph-name="Gbreve" unicode="&#x11e;" horiz-adv-x="720" 
d="M381 715q-70 0 -111.5 41t-49.5 97l114 10q8 -31 47 -31t47 31l114 -10q-8 -56 -49.5 -97t-111.5 -41zM526 171v58h-135v140h297v-284q-114 -94 -296 -94q-153 0 -259.5 99t-106.5 250t106 249.5t256 98.5q179 0 273 -121l-127 -110q-56 73 -150 73q-81 0 -126.5 -53.5
t-45.5 -136.5q0 -84 48 -140t134 -56q76 0 132 27z" />
    <glyph glyph-name="gbreve" unicode="&#x11f;" horiz-adv-x="741" 
d="M370 715q-70 0 -111.5 41t-49.5 97l114 10q8 -31 47 -31t47 31l114 -10q-8 -56 -49.5 -97t-111.5 -41zM524 229h-131v140h321q0 -1 0.5 -11t0.5 -18q0 -170 -89.5 -260t-244.5 -90q-147 0 -251 99.5t-104 250.5t102.5 249.5t249.5 98.5q97 0 172.5 -40.5t115.5 -112.5
l-145 -88q-47 83 -146 83q-78 0 -120.5 -53t-42.5 -137t44.5 -138t125.5 -54q109 0 142 81z" />
    <glyph glyph-name="Gcommaaccent" unicode="&#x122;" horiz-adv-x="720" 
d="M526 171v58h-135v140h297v-284q-114 -94 -296 -94q-153 0 -259.5 99t-106.5 250t106 249.5t256 98.5q179 0 273 -121l-127 -110q-56 73 -150 73q-81 0 -126.5 -53.5t-45.5 -136.5q0 -84 48 -140t134 -56q76 0 132 27zM314 -295l32 92q-49 19 -49 76q0 37 25 60t61 23
t62.5 -23.5t26.5 -59.5q0 -41 -34 -90l-55 -78h-69z" />
    <glyph glyph-name="gcommaaccent" unicode="&#x123;" horiz-adv-x="741" 
d="M524 229h-131v140h321q0 -1 0.5 -11t0.5 -18q0 -170 -89.5 -260t-244.5 -90q-147 0 -251 99.5t-104 250.5t102.5 249.5t249.5 98.5q97 0 172.5 -40.5t115.5 -112.5l-145 -88q-47 83 -146 83q-78 0 -120.5 -53t-42.5 -137t44.5 -138t125.5 -54q109 0 142 81zM307 -295
l32 92q-49 19 -49 76q0 37 25 60t61 23t62.5 -23.5t26.5 -59.5q0 -41 -34 -90l-55 -78h-69z" />
    <glyph glyph-name="Hcircumflex" unicode="&#x124;" horiz-adv-x="718" 
d="M194 722l160 210q4 6 9 0l160 -210h-127l-37 39l-38 -39h-127zM477 369v311h182v-680h-182v216h-236v-216h-182v680h182v-311h236z" />
    <glyph glyph-name="hcircumflex" unicode="&#x125;" horiz-adv-x="718" 
d="M194 722l160 210q4 6 9 0l160 -210h-127l-37 39l-38 -39h-127zM477 369v311h182v-680h-182v216h-236v-216h-182v680h182v-311h236z" />
    <glyph glyph-name="Imacron" unicode="&#x12a;" horiz-adv-x="308" 
d="M32 722v126h244v-126h-244zM63 0v680h182v-680h-182z" />
    <glyph glyph-name="imacron" unicode="&#x12b;" horiz-adv-x="308" 
d="M32 722v126h244v-126h-244zM63 0v680h182v-680h-182z" />
    <glyph glyph-name="Iogonek" unicode="&#x12e;" horiz-adv-x="308" 
d="M63 0v680h182v-680h-27q-84 -72 -84 -120q0 -23 25 -23q22 0 39 25l71 -52q-39 -62 -119 -62q-54 0 -86 26t-32 72q0 77 86 134h-55z" />
    <glyph glyph-name="iogonek" unicode="&#x12f;" horiz-adv-x="308" 
d="M63 0v680h182v-680h-27q-84 -72 -84 -120q0 -23 25 -23q22 0 39 25l71 -52q-39 -62 -119 -62q-54 0 -86 26t-32 72q0 77 86 134h-55z" />
    <glyph glyph-name="Idotaccent" unicode="&#x130;" horiz-adv-x="308" 
d="M154 717q-31 0 -55.5 23.5t-24.5 56.5t24.5 56.5t55.5 23.5q32 0 55.5 -23.5t23.5 -56.5t-23.5 -56.5t-55.5 -23.5zM63 0v680h182v-680h-182z" />
    <glyph glyph-name="dotlessi" unicode="&#x131;" horiz-adv-x="308" 
d="M63 0v680h182v-680h-182z" />
    <glyph glyph-name="Jcircumflex" unicode="&#x134;" horiz-adv-x="486" 
d="M168 722l160 210q4 6 9 0l160 -210h-127l-37 39l-38 -39h-127zM432 680v-489q0 -96 -54.5 -148.5t-153.5 -52.5q-158 0 -218 113l137 88q26 -45 60 -45q47 0 47 58v476h182z" />
    <glyph glyph-name="jcircumflex" unicode="&#x135;" horiz-adv-x="486" 
d="M168 722l160 210q4 6 9 0l160 -210h-127l-37 39l-38 -39h-127zM432 680v-489q0 -96 -54.5 -148.5t-153.5 -52.5q-158 0 -218 113l137 88q26 -45 60 -45q47 0 47 58v476h182z" />
    <glyph glyph-name="Kcommaaccent" unicode="&#x136;" horiz-adv-x="682" 
d="M241 398l210 282h197l-226 -295l253 -385h-215l-162 247l-2 -3q-2 -2 -6 -7l-8 -10l-10.5 -13l-10.5 -13t-11 -13t-9 -11v-177h-182v680h182v-282zM265 -295l32 92q-49 19 -49 76q0 37 25 60t61 23t62.5 -23.5t26.5 -59.5q0 -41 -34 -90l-55 -78h-69z" />
    <glyph glyph-name="kcommaaccent" unicode="&#x137;" horiz-adv-x="671" 
d="M241 370l209 310h202q-268 -382 -269 -382l282 -298h-236l-188 205v-205h-182v680h182v-310zM256 -295l32 92q-49 19 -49 76q0 37 25 60t61 23t62.5 -23.5t26.5 -59.5q0 -41 -34 -90l-55 -78h-69z" />
    <glyph glyph-name="Lacute" unicode="&#x139;" horiz-adv-x="555" 
d="M207 722h-133l40 182h188zM59 0v680h182v-527h289v-153h-471z" />
    <glyph glyph-name="lacute" unicode="&#x13a;" horiz-adv-x="555" 
d="M207 722h-133l40 182h188zM59 0v680h182v-527h289v-153h-471z" />
    <glyph glyph-name="Lcommaaccent" unicode="&#x13b;" horiz-adv-x="555" 
d="M59 0v680h182v-527h289v-153h-471zM214 -295l32 92q-49 19 -49 76q0 37 25 60t61 23t62.5 -23.5t26.5 -59.5q0 -41 -34 -90l-55 -78h-69z" />
    <glyph glyph-name="lcommaaccent" unicode="&#x13c;" horiz-adv-x="555" 
d="M59 0v680h182v-527h289v-153h-471zM214 -295l32 92q-49 19 -49 76q0 37 25 60t61 23t62.5 -23.5t26.5 -59.5q0 -41 -34 -90l-55 -78h-69z" />
    <glyph glyph-name="Lcaron" unicode="&#x13d;" horiz-adv-x="555" 
d="M347 401l37 105q-28 9 -43.5 32.5t-15.5 54.5q0 42 29 68.5t69 26.5q42 0 72 -26.5t30 -68.5q0 -48 -39 -103l-63 -89h-76zM59 0v680h182v-527h289v-153h-471z" />
    <glyph glyph-name="lcaron" unicode="&#x13e;" horiz-adv-x="555" 
d="M347 401l37 105q-28 9 -43.5 32.5t-15.5 54.5q0 42 29 68.5t69 26.5q42 0 72 -26.5t30 -68.5q0 -48 -39 -103l-63 -89h-76zM59 0v680h182v-527h289v-153h-471z" />
    <glyph glyph-name="Lslash" unicode="&#x141;" horiz-adv-x="555" 
d="M241 238v-85h289v-153h-471v173l-58 -21v155l58 21v352h182v-287l151 54v-155z" />
    <glyph glyph-name="lslash" unicode="&#x142;" horiz-adv-x="555" 
d="M241 238v-85h289v-153h-471v173l-58 -21v155l58 21v352h182v-287l151 54v-155z" />
    <glyph glyph-name="Nacute" unicode="&#x143;" horiz-adv-x="730" 
d="M404 722h-133l40 182h188zM657 -12l-427 351v-339h-171v689q0 13 14 2l427 -352v341h171v-690q0 -13 -14 -2z" />
    <glyph glyph-name="nacute" unicode="&#x144;" horiz-adv-x="730" 
d="M404 722h-133l40 182h188zM657 -12l-427 351v-339h-171v689q0 13 14 2l427 -352v341h171v-690q0 -13 -14 -2z" />
    <glyph glyph-name="Ncommaaccent" unicode="&#x145;" horiz-adv-x="730" 
d="M657 -12l-427 351v-339h-171v689q0 13 14 2l427 -352v341h171v-690q0 -13 -14 -2zM311 -295l32 92q-49 19 -49 76q0 37 25 60t61 23t62.5 -23.5t26.5 -59.5q0 -41 -34 -90l-55 -78h-69z" />
    <glyph glyph-name="ncommaaccent" unicode="&#x146;" horiz-adv-x="730" 
d="M657 -12l-427 351v-339h-171v689q0 13 14 2l427 -352v341h171v-690q0 -13 -14 -2zM311 -295l32 92q-49 19 -49 76q0 37 25 60t61 23t62.5 -23.5t26.5 -59.5q0 -41 -34 -90l-55 -78h-69z" />
    <glyph glyph-name="Ncaron" unicode="&#x147;" horiz-adv-x="730" 
d="M514 923l-160 -210q-4 -6 -9 0l-160 210h127l37 -39l38 39h127zM657 -12l-427 351v-339h-171v689q0 13 14 2l427 -352v341h171v-690q0 -13 -14 -2z" />
    <glyph glyph-name="ncaron" unicode="&#x148;" horiz-adv-x="730" 
d="M530 923l-160 -210q-4 -6 -9 0l-160 210h127l37 -39l38 39h127zM657 -12l-427 351v-339h-171v689q0 13 14 2l427 -352v341h171v-690q0 -13 -14 -2z" />
    <glyph glyph-name="Omacron" unicode="&#x14c;" horiz-adv-x="782" 
d="M269 722v126h244v-126h-244zM391 -9q-150 0 -257.5 99t-107.5 250t107.5 249.5t257.5 98.5t257.5 -98.5t107.5 -249.5t-107.5 -250t-257.5 -99zM391 149q83 0 131 54t48 137t-48 136.5t-131 53.5t-131 -53.5t-48 -136.5t48 -137t131 -54z" />
    <glyph glyph-name="omacron" unicode="&#x14d;" horiz-adv-x="782" 
d="M269 722v126h244v-126h-244zM391 -9q-150 0 -257.5 99t-107.5 250t107.5 249.5t257.5 98.5t257.5 -98.5t107.5 -249.5t-107.5 -250t-257.5 -99zM391 149q83 0 131 54t48 137t-48 136.5t-131 53.5t-131 -53.5t-48 -136.5t48 -137t131 -54z" />
    <glyph glyph-name="Ohungarumlaut" unicode="&#x150;" horiz-adv-x="782" 
d="M555 722h-133l40 182h174zM351 722h-133l40 182h174zM391 -9q-150 0 -257.5 99t-107.5 250t107.5 249.5t257.5 98.5t257.5 -98.5t107.5 -249.5t-107.5 -250t-257.5 -99zM391 149q83 0 131 54t48 137t-48 136.5t-131 53.5t-131 -53.5t-48 -136.5t48 -137t131 -54z" />
    <glyph glyph-name="ohungarumlaut" unicode="&#x151;" horiz-adv-x="782" 
d="M555 722h-133l40 182h174zM351 722h-133l40 182h174zM391 -9q-150 0 -257.5 99t-107.5 250t107.5 249.5t257.5 98.5t257.5 -98.5t107.5 -249.5t-107.5 -250t-257.5 -99zM391 149q83 0 131 54t48 137t-48 136.5t-131 53.5t-131 -53.5t-48 -136.5t48 -137t131 -54z" />
    <glyph glyph-name="OE" unicode="&#x152;" horiz-adv-x="969" 
d="M926 680v-153h-295v-158h246v-153h-246v-63h309v-153h-570q-150 0 -247 92.5t-97 247.5t97 247.5t247 92.5h556zM451 526h-61q-82 0 -130 -50.5t-48 -135.5t48 -135.5t130 -50.5h61v372z" />
    <glyph glyph-name="oe" unicode="&#x153;" horiz-adv-x="969" 
d="M926 680v-153h-295v-158h246v-153h-246v-63h309v-153h-570q-150 0 -247 92.5t-97 247.5t97 247.5t247 92.5h556zM451 526h-61q-82 0 -130 -50.5t-48 -135.5t48 -135.5t130 -50.5h61v372z" />
    <glyph glyph-name="Racute" unicode="&#x154;" horiz-adv-x="629" 
d="M353 722h-133l40 182h188zM480 193l121 -193h-197l-95 156h-68v-156h-182v680h258q134 0 210 -75t76 -192q0 -152 -123 -220zM241 301h67q112 0 112 112q0 113 -112 113h-67v-225z" />
    <glyph glyph-name="racute" unicode="&#x155;" horiz-adv-x="629" 
d="M353 722h-133l40 182h188zM480 193l121 -193h-197l-95 156h-68v-156h-182v680h258q134 0 210 -75t76 -192q0 -152 -123 -220zM241 301h67q112 0 112 112q0 113 -112 113h-67v-225z" />
    <glyph glyph-name="Rcommaaccent" unicode="&#x156;" horiz-adv-x="629" 
d="M480 193l121 -193h-197l-95 156h-68v-156h-182v680h258q134 0 210 -75t76 -192q0 -152 -123 -220zM247 -295l32 92q-49 19 -49 76q0 37 25 60t61 23t62.5 -23.5t26.5 -59.5q0 -41 -34 -90l-55 -78h-69zM241 301h67q112 0 112 112q0 113 -112 113h-67v-225z" />
    <glyph glyph-name="rcommaaccent" unicode="&#x157;" horiz-adv-x="629" 
d="M480 193l121 -193h-197l-95 156h-68v-156h-182v680h258q134 0 210 -75t76 -192q0 -152 -123 -220zM247 -295l32 92q-49 19 -49 76q0 37 25 60t61 23t62.5 -23.5t26.5 -59.5q0 -41 -34 -90l-55 -78h-69zM241 301h67q112 0 112 112q0 113 -112 113h-67v-225z" />
    <glyph glyph-name="Rcaron" unicode="&#x158;" horiz-adv-x="629" 
d="M462 923l-160 -210q-4 -6 -9 0l-160 210h127l37 -39l38 39h127zM480 193l121 -193h-197l-95 156h-68v-156h-182v680h258q134 0 210 -75t76 -192q0 -152 -123 -220zM241 301h67q112 0 112 112q0 113 -112 113h-67v-225z" />
    <glyph glyph-name="rcaron" unicode="&#x159;" horiz-adv-x="629" 
d="M462 923l-160 -210q-4 -6 -9 0l-160 210h127l37 -39l38 39h127zM480 193l121 -193h-197l-95 156h-68v-156h-182v680h258q134 0 210 -75t76 -192q0 -152 -123 -220zM241 301h67q112 0 112 112q0 113 -112 113h-67v-225z" />
    <glyph glyph-name="Sacute" unicode="&#x15a;" horiz-adv-x="568" 
d="M342 722h-133l40 182h188zM286 -10q-104 0 -173.5 37t-108.5 89l132 99q60 -74 142 -74q86 0 86 54q0 21 -15.5 33.5t-51.5 24.5l-80 27q-169 56 -169 205q0 96 67.5 149.5t164.5 53.5q149 0 226 -90l-104 -109q-47 49 -112 49q-32 0 -49 -13t-17 -34q0 -19 11 -30
t37 -20l90 -30q99 -33 140.5 -82t41.5 -124q0 -99 -64 -157t-194 -58z" />
    <glyph glyph-name="sacute" unicode="&#x15b;" horiz-adv-x="568" 
d="M342 722h-133l40 182h188zM286 -10q-104 0 -173.5 37t-108.5 89l132 99q60 -74 142 -74q86 0 86 54q0 21 -15.5 33.5t-51.5 24.5l-80 27q-169 56 -169 205q0 96 67.5 149.5t164.5 53.5q149 0 226 -90l-104 -109q-47 49 -112 49q-32 0 -49 -13t-17 -34q0 -19 11 -30
t37 -20l90 -30q99 -33 140.5 -82t41.5 -124q0 -99 -64 -157t-194 -58z" />
    <glyph glyph-name="Scircumflex" unicode="&#x15c;" horiz-adv-x="568" 
d="M112 722l160 210q4 6 9 0l160 -210h-127l-37 39l-38 -39h-127zM286 -10q-104 0 -173.5 37t-108.5 89l132 99q60 -74 142 -74q86 0 86 54q0 21 -15.5 33.5t-51.5 24.5l-80 27q-169 56 -169 205q0 96 67.5 149.5t164.5 53.5q149 0 226 -90l-104 -109q-47 49 -112 49
q-32 0 -49 -13t-17 -34q0 -19 11 -30t37 -20l90 -30q99 -33 140.5 -82t41.5 -124q0 -99 -64 -157t-194 -58z" />
    <glyph glyph-name="scircumflex" unicode="&#x15d;" horiz-adv-x="568" 
d="M112 722l160 210q4 6 9 0l160 -210h-127l-37 39l-38 -39h-127zM286 -10q-104 0 -173.5 37t-108.5 89l132 99q60 -74 142 -74q86 0 86 54q0 21 -15.5 33.5t-51.5 24.5l-80 27q-169 56 -169 205q0 96 67.5 149.5t164.5 53.5q149 0 226 -90l-104 -109q-47 49 -112 49
q-32 0 -49 -13t-17 -34q0 -19 11 -30t37 -20l90 -30q99 -33 140.5 -82t41.5 -124q0 -99 -64 -157t-194 -58z" />
    <glyph glyph-name="Scaron" unicode="&#x160;" horiz-adv-x="568" 
d="M286 -10q-104 0 -173.5 37t-108.5 89l132 99q60 -74 142 -74q86 0 86 54q0 21 -15.5 33.5t-51.5 24.5l-80 27q-169 56 -169 205q0 96 67.5 149.5t164.5 53.5q149 0 226 -90l-104 -109q-47 49 -112 49q-32 0 -49 -13t-17 -34q0 -19 11 -30t37 -20l90 -30q99 -33 140.5 -82
t41.5 -124q0 -99 -64 -157t-194 -58zM460 923l-160 -210q-5 -6 -9 0l-160 210h127l37 -39l38 39h127z" />
    <glyph glyph-name="scaron" unicode="&#x161;" horiz-adv-x="568" 
d="M286 -10q-104 0 -173.5 37t-108.5 89l132 99q60 -74 142 -74q86 0 86 54q0 21 -15.5 33.5t-51.5 24.5l-80 27q-169 56 -169 205q0 96 67.5 149.5t164.5 53.5q149 0 226 -90l-104 -109q-47 49 -112 49q-32 0 -49 -13t-17 -34q0 -19 11 -30t37 -20l90 -30q99 -33 140.5 -82
t41.5 -124q0 -99 -64 -157t-194 -58zM460 923l-160 -210q-5 -6 -9 0l-160 210h127l37 -39l38 39h127z" />
    <glyph glyph-name="Tcommaaccent" unicode="&#x162;" horiz-adv-x="588" 
d="M203 0v527h-180v153h542v-153h-180v-527h-182zM223 -295l32 92q-49 19 -49 76q0 37 25 60t61 23t62.5 -23.5t26.5 -59.5q0 -41 -34 -90l-55 -78h-69z" />
    <glyph glyph-name="Tcommaaccent" unicode="&#x21a;" horiz-adv-x="588" 
d="M203 0v527h-180v153h542v-153h-180v-527h-182zM223 -295l32 92q-49 19 -49 76q0 37 25 60t61 23t62.5 -23.5t26.5 -59.5q0 -41 -34 -90l-55 -78h-69z" />
    <glyph glyph-name="tcommaaccent" unicode="&#x163;" horiz-adv-x="588" 
d="M203 0v527h-180v153h542v-153h-180v-527h-182zM223 -295l32 92q-49 19 -49 76q0 37 25 60t61 23t62.5 -23.5t26.5 -59.5q0 -41 -34 -90l-55 -78h-69z" />
    <glyph glyph-name="tcommaaccent" unicode="&#x21b;" horiz-adv-x="588" 
d="M203 0v527h-180v153h542v-153h-180v-527h-182zM223 -295l32 92q-49 19 -49 76q0 37 25 60t61 23t62.5 -23.5t26.5 -59.5q0 -41 -34 -90l-55 -78h-69z" />
    <glyph glyph-name="Tcaron" unicode="&#x164;" horiz-adv-x="588" 
d="M459 923l-160 -210q-5 -6 -9 0l-160 210h127l37 -39l38 39h127zM203 0v527h-180v153h542v-153h-180v-527h-182z" />
    <glyph glyph-name="tcaron" unicode="&#x165;" horiz-adv-x="588" 
d="M459 923l-160 -210q-5 -6 -9 0l-160 210h127l37 -39l38 39h127zM203 0v527h-180v153h542v-153h-180v-527h-182z" />
    <glyph glyph-name="Umacron" unicode="&#x16a;" horiz-adv-x="694" 
d="M225 722v126h244v-126h-244zM347 -10q-133 0 -214 70t-81 203v417h182v-415q0 -121 113 -121t113 121v415h182v-417q0 -133 -81 -203t-214 -70z" />
    <glyph glyph-name="umacron" unicode="&#x16b;" horiz-adv-x="694" 
d="M225 722v126h244v-126h-244zM347 -10q-133 0 -214 70t-81 203v417h182v-415q0 -121 113 -121t113 121v415h182v-417q0 -133 -81 -203t-214 -70z" />
    <glyph glyph-name="Ubreve" unicode="&#x16c;" horiz-adv-x="694" 
d="M347 715q-70 0 -111.5 41t-49.5 97l114 10q8 -31 47 -31t47 31l114 -10q-8 -56 -49.5 -97t-111.5 -41zM347 -10q-133 0 -214 70t-81 203v417h182v-415q0 -121 113 -121t113 121v415h182v-417q0 -133 -81 -203t-214 -70z" />
    <glyph glyph-name="ubreve" unicode="&#x16d;" horiz-adv-x="694" 
d="M347 715q-70 0 -111.5 41t-49.5 97l114 10q8 -31 47 -31t47 31l114 -10q-8 -56 -49.5 -97t-111.5 -41zM347 -10q-133 0 -214 70t-81 203v417h182v-415q0 -121 113 -121t113 121v415h182v-417q0 -133 -81 -203t-214 -70z" />
    <glyph glyph-name="Uring" unicode="&#x16e;" horiz-adv-x="694" 
d="M347 716q-58 0 -97.5 37t-39.5 88q0 52 39.5 89t97.5 37t97.5 -37t39.5 -89q0 -51 -39.5 -88t-97.5 -37zM347 -10q-133 0 -214 70t-81 203v417h182v-415q0 -121 113 -121t113 121v415h182v-417q0 -133 -81 -203t-214 -70zM347 799q17 0 28 11.5t11 30.5t-11 30.5
t-28 11.5t-28 -11.5t-11 -30.5t11 -30.5t28 -11.5z" />
    <glyph glyph-name="uring" unicode="&#x16f;" horiz-adv-x="694" 
d="M347 716q-58 0 -97.5 37t-39.5 88q0 52 39.5 89t97.5 37t97.5 -37t39.5 -89q0 -51 -39.5 -88t-97.5 -37zM347 -10q-133 0 -214 70t-81 203v417h182v-415q0 -121 113 -121t113 121v415h182v-417q0 -133 -81 -203t-214 -70zM347 799q17 0 28 11.5t11 30.5t-11 30.5
t-28 11.5t-28 -11.5t-11 -30.5t11 -30.5t28 -11.5z" />
    <glyph glyph-name="Uhungarumlaut" unicode="&#x170;" horiz-adv-x="694" 
d="M510 722h-133l40 182h174zM306 722h-133l40 182h174zM347 -10q-133 0 -214 70t-81 203v417h182v-415q0 -121 113 -121t113 121v415h182v-417q0 -133 -81 -203t-214 -70z" />
    <glyph glyph-name="uhungarumlaut" unicode="&#x171;" horiz-adv-x="694" 
d="M510 722h-133l40 182h174zM306 722h-133l40 182h174zM347 -10q-133 0 -214 70t-81 203v417h182v-415q0 -121 113 -121t113 121v415h182v-417q0 -133 -81 -203t-214 -70z" />
    <glyph glyph-name="Uogonek" unicode="&#x172;" horiz-adv-x="694" 
d="M313 -9q-119 9 -190 78.5t-71 193.5v417h182v-415q0 -121 113 -121t113 121v415h182v-417q0 -112 -59.5 -180t-160.5 -87q-80 -69 -80 -116q0 -23 25 -23q22 0 39 25l71 -52q-39 -62 -119 -62q-54 0 -86 26t-32 72q0 71 73 125z" />
    <glyph glyph-name="uogonek" unicode="&#x173;" horiz-adv-x="694" 
d="M313 -9q-119 9 -190 78.5t-71 193.5v417h182v-415q0 -121 113 -121t113 121v415h182v-417q0 -112 -59.5 -180t-160.5 -87q-80 -69 -80 -116q0 -23 25 -23q22 0 39 25l71 -52q-39 -62 -119 -62q-54 0 -86 26t-32 72q0 71 73 125z" />
    <glyph glyph-name="Ydieresis" unicode="&#x178;" horiz-adv-x="724" 
d="M458 717q-31 0 -55 23.5t-24 56.5t24 56.5t55 23.5q32 0 56 -23.5t24 -56.5t-24 -56.5t-56 -23.5zM266 717q-31 0 -55.5 23.5t-24.5 56.5t24.5 56.5t55.5 23.5q32 0 55.5 -23.5t23.5 -56.5t-23.5 -56.5t-55.5 -23.5zM264 235l-260 445h200l154 -277l153 277h191
l-256 -440v-240h-182v235z" />
    <glyph glyph-name="Zacute" unicode="&#x179;" horiz-adv-x="613" 
d="M378 722h-133l40 182h188zM14 0q-9 0 -3 10l301 517h-250v153h529q9 0 3 -10l-301 -517h276v-153h-555z" />
    <glyph glyph-name="zacute" unicode="&#x17a;" horiz-adv-x="613" 
d="M378 722h-133l40 182h188zM14 0q-9 0 -3 10l301 517h-250v153h529q9 0 3 -10l-301 -517h276v-153h-555z" />
    <glyph glyph-name="Zdotaccent" unicode="&#x17b;" horiz-adv-x="613" 
d="M310 717q-31 0 -55.5 23.5t-24.5 56.5t24.5 56.5t55.5 23.5q32 0 55.5 -23.5t23.5 -56.5t-23.5 -56.5t-55.5 -23.5zM14 0q-9 0 -3 10l301 517h-250v153h529q9 0 3 -10l-301 -517h276v-153h-555z" />
    <glyph glyph-name="zdotaccent" unicode="&#x17c;" horiz-adv-x="613" 
d="M310 717q-31 0 -55.5 23.5t-24.5 56.5t24.5 56.5t55.5 23.5q32 0 55.5 -23.5t23.5 -56.5t-23.5 -56.5t-55.5 -23.5zM14 0q-9 0 -3 10l301 517h-250v153h529q9 0 3 -10l-301 -517h276v-153h-555z" />
    <glyph glyph-name="Zcaron" unicode="&#x17d;" horiz-adv-x="613" 
d="M14 0q-9 0 -3 10l301 517h-250v153h529q9 0 3 -10l-301 -517h276v-153h-555zM471 923l-160 -210q-5 -6 -9 0l-160 210h127l37 -39l38 39h127z" />
    <glyph glyph-name="zcaron" unicode="&#x17e;" horiz-adv-x="613" 
d="M14 0q-9 0 -3 10l301 517h-250v153h529q9 0 3 -10l-301 -517h276v-153h-555zM471 923l-160 -210q-5 -6 -9 0l-160 210h127l37 -39l38 39h127z" />
    <glyph glyph-name="florin" unicode="&#x192;" horiz-adv-x="450" 
d="M88 238h-60v132h75l16 136q11 94 58.5 138t122.5 44q95 0 148 -61l-90 -102q-12 17 -34 17q-30 0 -35 -41l-15 -131h89v-132h-104l-41 -362h-171z" />
    <glyph glyph-name="Scommaaccent" unicode="&#x218;" horiz-adv-x="568" 
d="M286 -10q-104 0 -173.5 37t-108.5 89l132 99q60 -74 142 -74q86 0 86 54q0 21 -15.5 33.5t-51.5 24.5l-80 27q-169 56 -169 205q0 96 67.5 149.5t164.5 53.5q149 0 226 -90l-104 -109q-47 49 -112 49q-32 0 -49 -13t-17 -34q0 -19 11 -30t37 -20l90 -30q99 -33 140.5 -82
t41.5 -124q0 -99 -64 -157t-194 -58zM219 -295l32 92q-49 19 -49 76q0 37 25 60t61 23t62.5 -23.5t26.5 -59.5q0 -41 -34 -90l-55 -78h-69z" />
    <glyph glyph-name="scommaaccent" unicode="&#x219;" horiz-adv-x="568" 
d="M286 -10q-104 0 -173.5 37t-108.5 89l132 99q60 -74 142 -74q86 0 86 54q0 21 -15.5 33.5t-51.5 24.5l-80 27q-169 56 -169 205q0 96 67.5 149.5t164.5 53.5q149 0 226 -90l-104 -109q-47 49 -112 49q-32 0 -49 -13t-17 -34q0 -19 11 -30t37 -20l90 -30q99 -33 140.5 -82
t41.5 -124q0 -99 -64 -157t-194 -58zM219 -295l32 92q-49 19 -49 76q0 37 25 60t61 23t62.5 -23.5t26.5 -59.5q0 -41 -34 -90l-55 -78h-69z" />
    <glyph glyph-name="circumflex" unicode="&#x2c6;" horiz-adv-x="500" 
d="M85 722l160 210q5 6 9 0l160 -210h-127l-37 39l-38 -39h-127z" />
    <glyph glyph-name="caron" unicode="&#x2c7;" horiz-adv-x="500" 
d="M415 923l-160 -210q-5 -6 -9 0l-160 210h127l37 -39l38 39h127z" />
    <glyph glyph-name="breve" unicode="&#x2d8;" horiz-adv-x="500" 
d="M250 715q-70 0 -111.5 41t-49.5 97l114 10q8 -31 47 -31t47 31l114 -10q-8 -56 -49.5 -97t-111.5 -41z" />
    <glyph glyph-name="dotaccent" unicode="&#x2d9;" horiz-adv-x="500" 
d="M250 717q-31 0 -55.5 23.5t-24.5 56.5t24.5 56.5t55.5 23.5q32 0 55.5 -23.5t23.5 -56.5t-23.5 -56.5t-55.5 -23.5z" />
    <glyph glyph-name="ring" unicode="&#x2da;" horiz-adv-x="500" 
d="M250 716q-58 0 -97.5 37t-39.5 88q0 52 39.5 89t97.5 37t97.5 -37t39.5 -89q0 -51 -39.5 -88t-97.5 -37zM250 799q17 0 28 11.5t11 30.5t-11 30.5t-28 11.5t-28 -11.5t-11 -30.5t11 -30.5t28 -11.5z" />
    <glyph glyph-name="ogonek" unicode="&#x2db;" horiz-adv-x="500" 
d="M231 -232q-54 0 -86 26t-32 72q0 77 86 134h100q-84 -72 -84 -120q0 -23 25 -23q22 0 39 25l71 -52q-39 -62 -119 -62z" />
    <glyph glyph-name="tilde" unicode="&#x2dc;" horiz-adv-x="500" 
d="M311 717q-29 0 -64.5 19.5t-42.5 19.5q-21 0 -30 -34l-110 14q10 74 45 112t80 38q29 0 64.5 -19.5t42.5 -19.5q21 0 30 34l110 -14q-9 -73 -44.5 -111.5t-80.5 -38.5z" />
    <glyph glyph-name="hungarumlaut" unicode="&#x2dd;" horiz-adv-x="500" 
d="M424 722h-133l40 182h174zM220 722h-133l40 182h174z" />
    <glyph glyph-name="Delta" unicode="&#x394;" 
d="M136 210q-41 0 -70.5 28t-29.5 70t29.5 70t70.5 28q40 0 70 -28t30 -70t-30 -70t-70 -28z" />
    <glyph glyph-name="Delta" unicode="&#x2206;" 
d="M136 210q-41 0 -70.5 28t-29.5 70t29.5 70t70.5 28q40 0 70 -28t30 -70t-30 -70t-70 -28z" />
    <glyph glyph-name="Omega" unicode="&#x3a9;" 
d="M136 210q-41 0 -70.5 28t-29.5 70t29.5 70t70.5 28q40 0 70 -28t30 -70t-30 -70t-70 -28z" />
    <glyph glyph-name="Omega" unicode="&#x2126;" 
d="M136 210q-41 0 -70.5 28t-29.5 70t29.5 70t70.5 28q40 0 70 -28t30 -70t-30 -70t-70 -28z" />
    <glyph glyph-name="pi" unicode="&#x3c0;" 
d="M136 210q-41 0 -70.5 28t-29.5 70t29.5 70t70.5 28q40 0 70 -28t30 -70t-30 -70t-70 -28z" />
    <glyph glyph-name="endash" unicode="&#x2013;" horiz-adv-x="406" 
d="M36 224v125h334v-125h-334z" />
    <glyph glyph-name="emdash" unicode="&#x2014;" horiz-adv-x="706" 
d="M36 224v125h634v-125h-634z" />
    <glyph glyph-name="quoteleft" unicode="&#x2018;" 
d="M214 680l-37 -105q28 -9 43.5 -32.5t15.5 -54.5q0 -42 -29 -68.5t-69 -26.5q-42 0 -72 26.5t-30 68.5q0 48 39 103l63 89h76z" />
    <glyph glyph-name="quoteright" unicode="&#x2019;" 
d="M58 401l37 105q-28 9 -43.5 32.5t-15.5 54.5q0 42 29 68.5t69 26.5q42 0 72 -26.5t30 -68.5q0 -48 -39 -103l-63 -89h-76z" />
    <glyph glyph-name="quotesinglbase" unicode="&#x201a;" 
d="M58 -101l37 105q-28 9 -43.5 32.5t-15.5 54.5q0 42 29 68.5t69 26.5q42 0 72 -26.5t30 -68.5q0 -48 -39 -103l-63 -89h-76z" />
    <glyph glyph-name="quotedblleft" unicode="&#x201c;" horiz-adv-x="512" 
d="M454 680l-37 -105q28 -9 43.5 -32.5t15.5 -54.5q0 -42 -29 -68.5t-69 -26.5q-42 0 -72 26.5t-30 68.5q0 48 39 103l63 89h76zM214 680l-37 -105q28 -9 43.5 -32.5t15.5 -54.5q0 -42 -29 -68.5t-69 -26.5q-42 0 -72 26.5t-30 68.5q0 48 39 103l63 89h76z" />
    <glyph glyph-name="quotedblright" unicode="&#x201d;" horiz-adv-x="512" 
d="M298 401l37 105q-28 9 -43.5 32.5t-15.5 54.5q0 42 29 68.5t69 26.5q42 0 72 -26.5t30 -68.5q0 -48 -39 -103l-63 -89h-76zM58 401l37 105q-28 9 -43.5 32.5t-15.5 54.5q0 42 29 68.5t69 26.5q42 0 72 -26.5t30 -68.5q0 -48 -39 -103l-63 -89h-76z" />
    <glyph glyph-name="quotedblbase" unicode="&#x201e;" horiz-adv-x="512" 
d="M298 -101l37 105q-28 9 -43.5 32.5t-15.5 54.5q0 42 29 68.5t69 26.5q42 0 72 -26.5t30 -68.5q0 -48 -39 -103l-63 -89h-76zM58 -101l37 105q-28 9 -43.5 32.5t-15.5 54.5q0 42 29 68.5t69 26.5q42 0 72 -26.5t30 -68.5q0 -48 -39 -103l-63 -89h-76z" />
    <glyph glyph-name="dagger" unicode="&#x2020;" horiz-adv-x="345" 
d="M95 446h-78v136h78v98h155v-98h78v-136h-78v-202h-155v202z" />
    <glyph glyph-name="daggerdbl" unicode="&#x2021;" horiz-adv-x="345" 
d="M95 317h-78v126h78v38h-78v126h78v73h155v-73h78v-126h-78v-38h78v-126h-78v-73h-155v73z" />
    <glyph glyph-name="bullet" unicode="&#x2022;" horiz-adv-x="316" 
d="M158 167q-53 0 -93 39t-40 94q0 56 39.5 94.5t93.5 38.5t93.5 -38.5t39.5 -94.5q0 -55 -40 -94t-93 -39z" />
    <glyph glyph-name="ellipsis" unicode="&#x2026;" horiz-adv-x="772" 
d="M636 -10q-41 0 -70.5 28t-29.5 70t29.5 70t70.5 28q40 0 70 -28t30 -70t-30 -70t-70 -28zM386 -10q-41 0 -70.5 28t-29.5 70t29.5 70t70.5 28q40 0 70 -28t30 -70t-30 -70t-70 -28zM136 -10q-41 0 -70.5 28t-29.5 70t29.5 70t70.5 28q40 0 70 -28t30 -70t-30 -70t-70 -28
z" />
    <glyph glyph-name="perthousand" unicode="&#x2030;" horiz-adv-x="1413" 
d="M433 488q0 -86 -61 -143t-146 -57t-145.5 57t-60.5 143t60.5 143t145.5 57t146 -57t61 -143zM205 0l427 680h132l-427 -680h-132zM1393 190q0 -86 -61 -143t-146 -57t-145.5 57t-60.5 143t60.5 143t145.5 57t146 -57t61 -143zM949 190q0 -86 -61 -143t-146 -57t-145.5 57
t-60.5 143t60.5 143t145.5 57t146 -57t61 -143zM160 488q0 -32 18.5 -52.5t47.5 -20.5t48 20.5t19 52.5q0 33 -19 53t-48 20t-47.5 -20t-18.5 -53zM1120 190q0 -32 18.5 -52.5t47.5 -20.5t48 20.5t19 52.5q0 33 -19 53t-48 20t-47.5 -20t-18.5 -53zM676 190
q0 -32 18.5 -52.5t47.5 -20.5t48 20.5t19 52.5q0 33 -19 53t-48 20t-47.5 -20t-18.5 -53z" />
    <glyph glyph-name="guilsinglleft" unicode="&#x2039;" horiz-adv-x="284" 
d="M101 69l-82 176q-1 4 0 8l82 174h168l-83 -178l83 -180h-168z" />
    <glyph glyph-name="guilsinglright" unicode="&#x203a;" horiz-adv-x="284" 
d="M183 427l82 -176q1 -4 0 -8l-82 -174h-168l83 178l-83 180h168z" />
    <glyph glyph-name="fraction" unicode="&#x2044;" horiz-adv-x="469" 
d="M-45 0l407 680h152l-407 -680h-152z" />
    <glyph glyph-name="fraction" unicode="&#x2215;" horiz-adv-x="469" 
d="M-45 0l407 680h152l-407 -680h-152z" />
    <glyph glyph-name="Euro" unicode="&#x20ac;" horiz-adv-x="764" 
d="M102 358h-72v98h90q35 105 125 168.5t200 63.5q195 0 293 -146l-137 -93q-48 81 -154 81q-86 0 -134 -74h209v-98h-239v-18q0 -5 0.5 -14.5t0.5 -13.5h238v-98h-201q49 -65 132 -65q110 0 160 94l140 -90q-50 -84 -122.5 -123t-175.5 -39q-110 0 -200.5 61t-129.5 162
h-95v98h73q-1 9 -1 28v18z" />
    <glyph glyph-name="trademark" unicode="&#x2122;" horiz-adv-x="552" 
d="M252 452v227q0 13 11 2l117 -116l116 116q11 11 11 -2v-227h-81v64l-42 -43q-4 -3 -7 0l-43 43v-64h-82zM77 604h-58v76h200v-76h-56v-152h-86v152z" />
    <glyph glyph-name="partialdiff" unicode="&#x2202;" 
d="M136 210q-41 0 -70.5 28t-29.5 70t29.5 70t70.5 28q40 0 70 -28t30 -70t-30 -70t-70 -28z" />
    <glyph glyph-name="product" unicode="&#x220f;" 
d="M136 210q-41 0 -70.5 28t-29.5 70t29.5 70t70.5 28q40 0 70 -28t30 -70t-30 -70t-70 -28z" />
    <glyph glyph-name="minus" unicode="&#x2212;" 
d="M136 210q-41 0 -70.5 28t-29.5 70t29.5 70t70.5 28q40 0 70 -28t30 -70t-30 -70t-70 -28z" />
    <glyph glyph-name="radical" unicode="&#x221a;" 
d="M136 210q-41 0 -70.5 28t-29.5 70t29.5 70t70.5 28q40 0 70 -28t30 -70t-30 -70t-70 -28z" />
    <glyph glyph-name="integral" unicode="&#x222b;" 
d="M136 210q-41 0 -70.5 28t-29.5 70t29.5 70t70.5 28q40 0 70 -28t30 -70t-30 -70t-70 -28z" />
    <glyph glyph-name="approxequal" unicode="&#x2248;" 
d="M136 210q-41 0 -70.5 28t-29.5 70t29.5 70t70.5 28q40 0 70 -28t30 -70t-30 -70t-70 -28z" />
    <glyph glyph-name="lessequal" unicode="&#x2264;" 
d="M136 210q-41 0 -70.5 28t-29.5 70t29.5 70t70.5 28q40 0 70 -28t30 -70t-30 -70t-70 -28z" />
    <glyph glyph-name="greaterequal" unicode="&#x2265;" 
d="M136 210q-41 0 -70.5 28t-29.5 70t29.5 70t70.5 28q40 0 70 -28t30 -70t-30 -70t-70 -28z" />
    <glyph glyph-name="lozenge" unicode="&#x25ca;" 
d="M136 210q-41 0 -70.5 28t-29.5 70t29.5 70t70.5 28q40 0 70 -28t30 -70t-30 -70t-70 -28z" />
    <glyph glyph-name="ff" unicode="&#xfb00;" horiz-adv-x="1112" 
d="M615 0v680h462v-153h-280v-158h247v-153h-247v-216h-182zM59 0v680h462v-153h-280v-158h247v-153h-247v-216h-182z" />
    <glyph glyph-name="fi" unicode="&#xfb01;" horiz-adv-x="864" 
d="M619 0v680h182v-680h-182zM59 0v680h462v-153h-280v-158h247v-153h-247v-216h-182z" />
    <glyph glyph-name="fl" unicode="&#xfb02;" horiz-adv-x="1111" 
d="M615 0v680h182v-527h289v-153h-471zM59 0v680h462v-153h-280v-158h247v-153h-247v-216h-182z" />
    <glyph glyph-name="ffi" unicode="&#xfb03;" horiz-adv-x="1420" 
d="M1175 0v680h182v-680h-182zM615 0v680h462v-153h-280v-158h247v-153h-247v-216h-182zM59 0v680h462v-153h-280v-158h247v-153h-247v-216h-182z" />
    <glyph glyph-name="ffl" unicode="&#xfb04;" horiz-adv-x="1667" 
d="M1171 0v680h182v-527h289v-153h-471zM615 0v680h462v-153h-280v-158h247v-153h-247v-216h-182zM59 0v680h462v-153h-280v-158h247v-153h-247v-216h-182z" />
    <glyph glyph-name="Q.alt" horiz-adv-x="782" 
d="M485 16q48 -43 100 -43q45 0 81 31l89 -112q-62 -66 -170 -66q-124 0 -229 97q-31 29 -45.5 41.5t-39.5 26t-46 13.5q-48 0 -87 -55l-120 103q35 52 87 81q-79 92 -79 207q0 151 107.5 249.5t257.5 98.5t257.5 -98.5t107.5 -249.5q0 -127 -74 -213t-197 -111zM391 144
q84 0 131.5 53.5t47.5 142.5q0 83 -48 136.5t-131 53.5t-131 -53.5t-48 -136.5q0 -89 47.5 -142.5t131.5 -53.5z" />
    <glyph glyph-name="apple" 
d="M136 210q-41 0 -70.5 28t-29.5 70t29.5 70t70.5 28q40 0 70 -28t30 -70t-30 -70t-70 -28z" />
    <glyph glyph-name="LA" horiz-adv-x="1193" 
d="M719 58l-25 -58h-178l331 692q2 5 6 5t6 -5l330 -692h-188l-26 58v0v0v0h-1v0v0h-1v0h-1v0h-1v0h-1h-1h-1h-1h-1h-1h-1h-1h-1h-1h-1h-1h-1h-1h-1h-1h-1h-1h-1h-1h-1h-1h-1h-1h-1h-1h-1h-1h-1h-1h-1h-1h-1h-1h-1h-1h-1h-1h-1h-1h-1h-1h-1h-2h-1h-1h-1h-1h-1h-1h-1h-1h-2
h-1h-1h-1h-1h-1h-2h-1h-1h-1h-1h-2h-1h-1h-1h-2h-1h-1h-1h-2h-1h-1h-2h-1h-1h-2h-1h-1h-2h-1h-1h-2h-1h-1h-2h-1h-2h-1h-1h-2h-1h-2h-1h-2h-1h-1h-2h-1h-2h-1h-2h-1h-2h-1h-2h-1h-2h-1h-2h-1h-2h-1h-2h-2h-1h-2h-1h-2h-1h-2h-2h-1h-2h-1h-2h-2h-1h-2h-2h-1h-2h-1h-2h-2h-1
h-2h-2h-2h-1h-2h-2h-1h-2h-2h-1h-2h-2h-2h-1h-2h-2h-2h-1h-2h-2h-2h-1h-2h-2h-2h-2h-1h-2h-2h-2h-2h-2h-1h-2h-2h-2h-2h-2h-1h-9zM59 0v680h182v-527h273l-73 -153h-382zM915 194l-70 158l-68 -158h138z" />
    <glyph glyph-name="endash.up" horiz-adv-x="406" 
d="M36 224v125h334v-125h-334z" />
    <glyph glyph-name="emdash.up" horiz-adv-x="706" 
d="M36 224v125h634v-125h-634z" />
    <glyph glyph-name="idotaccent" horiz-adv-x="308" 
d="M63 0v680h182v-680h-182z" />
    </font>
</defs>
</svg>
