<?xml version="1.0" encoding="utf-8"?>
<!-- Generator: Adobe Illustrator 24.0.1, SVG Export Plug-In . SVG Version: 6.00 Build 0)  -->
<svg version="1.1" id="Layer_1" xmlns="http://www.w3.org/2000/svg" xmlns:xlink="http://www.w3.org/1999/xlink" x="0px" y="0px"
	 viewBox="0 0 120 128" style="enable-background:new 0 0 120 128;" xml:space="preserve">
<style type="text/css">
	.st0{fill:#D1BFB6;}
	.st1{fill:#00D6EB;}
	.st2{fill:#FFA299;}
	.st3{fill:#C00623;}
	.st4{fill:#4D1200;}
	.st5{fill:#FFE4D9;}
</style>
<g>
	<g>
		<path class="st0" d="M22.7,72.7c-3-7.3-1.4-15.8,2.1-22.9c1.2-2.5,5.4-5.8,5.4-8.6c-0.2-5.9-2.4-14.2,0.7-20.8c1-2.1,2.7-4,5-4.3
			c2-0.3,3.9,0.8,5.5,1.9c4.7,3.1,8.8,7,12.1,11.5c7-2,15.3-1.7,21.4-1.9c0.8-2.2,9.5-15.3,16.5-13.3c2.3,0.7,4.1,5,4.7,7.3
			c1.5,5.9-2,10.8,0,16.6c3.6,3.2,6.2,6.9,7.9,10.1c6,11.5,2.4,26.7-5.6,36.8S75.7,100,62.7,99.8c-8.5-0.1-17-2.6-24.1-7.3
			C31.5,87.8,25.3,80.9,22.7,72.7"/>
	</g>
	<path class="st1" d="M44.6,53.8L44.6,53.8c1.4-2.5,3.6-4.5,6.3-5.5c2.7-1,5.8-0.8,8.2,0.8c3.2,2.1,4.6,6.2,5.2,10
		c0.2,1.3,0.3,2.6-0.2,3.7c-0.6,1.3-1.9,2-3.3,2.5c-3.3,1.3-7.1,1.5-10.6,0.6c-2.4-0.6-7.9-2.3-7.7-5.4
		C42.6,58.3,43.4,55.9,44.6,53.8z"/>
	<path class="st1" d="M82.4,49.7C82.4,49.7,82.4,49.7,82.4,49.7c1.3-3.1,2.7-6.7,5.9-7.5c1.3-0.3,3.9,0,5,0.7c1,0.6,3.1,1.7,3.7,2.7
		c1.3,2.1,2.1,5.8,1.7,7.7c-0.3,1.5-0.6,2.7-1.7,3.7c-0.8,0.9-2.1,1.9-3.3,2.2c-3.3,1-8.5,2.3-11.9,0.8c-1.4-0.6-0.8-3.1-0.7-4.4
		C81.3,53.6,81.7,51.6,82.4,49.7z"/>
	<path class="st2" d="M33.8,26.3L33.8,26.3c0.1-1.1,0.2-2.3,0.9-3.2c0.9-1,2.4-1.3,3.7-1s2.5,1.2,3.5,2.1c1.9,1.7,3.6,3.7,4.9,5.9
		c0.3,0.5,0.6,1.1,0.4,1.6c-0.1,0.3-0.4,0.6-0.6,0.8c-1.6,1.4-3.3,2.7-5.2,3.8c-1.2,0.8-3.6,2.6-5.2,2.1c-1.7-0.5-1.8-3.6-2-5
		C33.8,31.1,33.7,28.7,33.8,26.3z"/>
	<path class="st2" d="M86.2,21.6L86.2,21.6c0.8-0.8,1.7-1.6,2.8-1.5c1.4,0.2,2.1,1.8,2.2,3.2c0.1,1.4-0.2,2.9-0.4,4.3
		c-0.3,1.7-0.6,3.4-0.9,5.1c-0.1,0.3-0.1,0.7-0.4,0.8c-0.3,0.1-0.6,0-0.8,0c-1.7-0.6-3.3-1.2-5-1.8c-0.9-0.3-1.7-0.6-2.6-1
		c-0.8-0.3-1.7-0.4-1.6-1.2c0.1-0.6,1.2-1.6,1.6-2.1c0.5-0.7,1.1-1.4,1.7-2C83.8,24.2,85,22.9,86.2,21.6z"/>
	<path class="st3" d="M93.4,90.5c-11.4,6.9-25.2,10-38.5,8.6c-9.5-1-19.3-4.7-25-12.3c-1.1-1.5-0.9-3.6-2.7-3.8
		c-1.2-0.2-3,0.5-4.5,0.8c-4.9-3.1-12-4.1-17.4-2.2c1.5,6,8.8,10.6,14.9,9.6c-2.9,0.7-4.3,4.1-4.8,7.1c-0.4,2.4-1.6,5.7,0.7,6.5
		c2.2,0.8,6-1.5,7.1-3.6c1.1-2.1,2.1-4.6,4.3-5.5c2.1-0.9,4.6,0.1,6.6,1.3c4.7,2.7,8.3,7.3,12.9,10.2c5.7,3.5,12.6,5,19.2,5.6
		c6.6,0.6,13.6-0.9,18.9-4.9C90.4,103.8,93.9,97.2,93.4,90.5z M20.4,83.5l1.8,0.3C21.5,83.9,20.9,83.8,20.4,83.5z"/>
	<path class="st2" d="M73.6,71.6L73.6,71.6c1,0.7,2.1,1.3,3.3,1.6c0.7,0.2,1.4,0.3,2,0.1c0.6-0.2,1-0.7,1.4-1.1
		c0.8-0.9,1.5-1.9,2.1-2.9c0.2-0.3,0.4-0.7,0.2-1c-0.2-0.2-0.5-0.3-0.7-0.3c-2.1-0.3-4.9-1-7-0.6C72.5,67.8,71.6,70.2,73.6,71.6z"/>
	<path class="st4" d="M106.8,53c-1.3-5.3-3.9-10.5-8-14.2c-0.8-0.7-1.7-1.4-2.6-2c0.8-3.4,1.2-6.8,1.1-10.3
		c-0.1-1.9-0.3-3.8-0.7-5.6c-0.3-1.5-0.7-3-1.4-4.4c-0.6-1.2-1.6-2.4-2.8-3c-1.6-0.7-3.3-0.5-4.8,0.1c-3,1.2-5.7,3.5-8,5.7
		c-2.5,2.4-4.6,5.1-6.4,8.1c-3.2-0.8-6.5-1.1-9.8-0.8c-3.4,0.3-6.7,1.2-10,2c-1.9-2.7-4-5.2-6.4-7.5c-1.3-1.2-2.6-2.3-4-3.4
		c-1.4-1.1-2.9-2.2-4.6-2.8c-1.6-0.6-3.3-0.5-4.8,0.4c-1.3,0.9-2.1,2.2-2.8,3.5c-1.5,3.3-2.2,7.1-2.5,10.8c-0.3,4.1,0,8.2,1,12.2
		c-8.6,9.1-10.7,22.9-6.2,34.4c0.8,2,1.7,3.9,2.8,5.7c-1.2,0.2-2.3,0.7-3.2,1.4c-2.1-2.3-5.1-3.8-8.2-3.9c-1.6-0.1-3.3,0.2-4.9,0.4
		c-1.6,0.2-3.3,0.3-4.8-0.4c-0.8-0.4-1.8,0.3-1.6,1.2c1,3.6,3.3,6.9,6.4,9c2.2,1.5,4.8,2.4,7.5,2.6c-2.8,3.3-3.2,8-3.2,12.3
		c0,0.4,0.3,1,0.8,1c3.1,0.4,6.3-0.3,8.8-2.4c2.3-1.8,3.6-4.6,3.9-7.4c0.2,0,0.4,0,0.6,0c0.1,0.1,0.2,0.1,0.4,0.2
		c5.3,1.2,9.4,5.3,13.5,8.6c4.3,3.5,9.1,6.2,14.5,7.8c5.4,1.5,11,2,16.5,1.2c5.5-0.8,11-2.8,15.3-6.6c4.4-4,6.9-10.2,6-16.2
		c0,0,0,0,0,0c6.4-5.3,11.3-12.5,13.1-20.7C108.4,64.5,108.2,58.5,106.8,53z M5.9,82c2.4,0.4,4.9-0.3,7.4-0.4c3.1-0.2,5.9,1,7.9,3.4
		c0,0,0,0,0,0c-1,1.5-1.4,3.3-1,5.2C14.2,91,8.3,87.5,5.9,82z M16,103.7c0-4,0.5-8.7,4-11.2c0.1,0,0.1-0.1,0.2-0.1
		c0.3,0,0.6-0.1,0.9-0.1c0.9,1.6,2.5,2.8,4.2,3.3C24.9,100.2,20.7,103.9,16,103.7z M23.4,91.9c-1.1-1.3-1.5-3.3-0.9-4.9
		c0.6-1.6,2.3-2.8,4-3c0.2,0,0.4-0.1,0.6-0.2c1.5,2.1,3.1,4.1,5,5.9c0,0.1,0,0.2,0,0.4c0.2,2-1.8,3.3-3.6,3.6
		C26.6,94,24.6,93.4,23.4,91.9z M87.3,104.9c-3.8,3.8-9.1,5.7-14.3,6.6c-10.4,1.7-21.2-1.5-29.4-8.1c-3.8-3.1-7.6-6.7-12.2-8.6
		c1.3-0.8,2.3-1.9,2.6-3.3c4.5,3.8,9.8,6.5,15.4,8.1c11.4,3.3,24,2.2,34.8-2.6c2.8-1.2,5.4-2.8,7.9-4.6
		C92.5,96.9,90.5,101.7,87.3,104.9z M105.7,65.8c-1,11.7-8.9,21.9-19,27.5c-9.8,5.4-21.6,7.2-32.5,5.1c-5.5-1-10.7-3-15.4-6.1
		c-4.9-3.2-9-7.6-11.8-12.7c-2.9-5.2-4.4-11-4.2-16.9c0.2-5.9,2.2-11.7,5.6-16.6c0.8-1.2,1.8-2.3,2.8-3.3c0.5-0.5,0.4-1,0-1.4
		C29.7,34.9,29.9,28,32,21.6c0.7-2.2,2.2-5.6,5.1-4.7c1.5,0.4,2.9,1.5,4.2,2.5c1.3,1,2.6,2,3.7,3.1c2.6,2.4,5,5.2,6.9,8.2
		c0.4,0.6,1.2,0.6,1.7,0.2c3.2-0.8,6.4-1.6,9.7-2c3.4-0.3,6.7,0,10,0.9c0.2,0.1,0.4,0.1,0.6,0c0.2-0.1,0.4-0.2,0.6-0.5
		c2.9-5.1,6.9-9.5,11.9-12.6c1.2-0.8,2.6-1.6,4.1-1.4c1.2,0.1,2.1,1,2.6,2c0.6,1.2,1,2.5,1.2,3.8c0.3,1.6,0.6,3.3,0.7,4.9
		c0.2,3.8-0.2,7.5-1.2,11.2c-0.1,0.3-0.1,0.5,0,0.7c0.1,0.2,0.2,0.4,0.5,0.5C103.5,43.6,106.6,55.9,105.7,65.8z"/>
	<path class="st4" d="M91,76.2c-0.1,2.2-1.4,4.4-3.5,5.3c-2,1-4.5,0.6-6.3-0.7c0.1-2.2-0.6-4.2-1.3-6.3c0.6-0.3,1.1-0.8,1.6-1.3
		c0.6-0.7,1.2-1.5,1.7-2.3c0.5-0.8,1.1-1.7,1.1-2.6c0-1.9-1.8-2.5-3.3-2.5c-1.9,0-3.8,0-5.7,0.3c-1.9,0.3-4.2,1.3-4.3,3.5
		c-0.2,2.3,2.2,3.9,4,4.7c0.9,0.4,1.8,0.7,2.8,0.7c0.8,1.9,1.6,4,1.3,6.1c-0.3,1.9-1.5,3.2-3.2,3.8c-3.3,1-8.7-0.1-9.2-4.2
		c-0.1-0.6-0.4-1.1-1.1-1.1c-0.5,0-1.1,0.5-1.1,1.1c0.5,4.2,4.3,6.6,8.4,6.7c1.9,0,3.9-0.3,5.5-1.4c1.1-0.7,1.9-1.8,2.4-3
		c2.3,1.4,5.4,1.5,7.8,0.3c2.7-1.3,4.4-4.2,4.5-7.2C93.2,74.8,91.1,74.8,91,76.2z M75.5,72.2c-0.7-0.4-1.4-0.8-1.9-1.4
		c-0.4-0.4-0.5-0.8-0.3-1.3c0-0.1,0.2-0.3,0.3-0.5c0.1-0.1,0.5-0.3,0.7-0.4c0.6-0.3,1.4-0.4,2.1-0.5c1.5-0.2,3.1-0.2,4.7-0.2
		c0.3,0,0.7,0,1.1,0.1c0.4,0.2-0.1,0.8-0.3,1.2c-0.6,1.1-1.4,2.2-2.3,3.1c-0.6,0.6-1.1,0.7-1.8,0.6C76.9,72.8,76.2,72.5,75.5,72.2z"
		/>
	<path class="st4" d="M65.6,57.9c-0.5-2.6-1.7-5.1-3.2-7.2c0,0-0.1-0.1-0.1-0.1c0,0,0-0.1-0.1-0.1c-3.1-4.1-8.7-6-13.4-3.5
		c-4.7,2.5-7,8.1-8,13.1c-0.2,0.9-0.3,1.8,0.1,2.7c0.4,0.9,1,1.4,1.8,2c2.2,1.5,4.7,2.5,7.3,3c4.6,0.8,10.1,0.2,13.7-3.1
		c0.9-0.8,1.6-1.8,1.9-3C65.9,60.5,65.8,59.2,65.6,57.9z M63,62.3c-0.9,1.4-2.6,2.3-4.2,2.9c-2,0.7-4.2,1-6.3,0.8
		c-2.3-0.1-4.6-0.8-6.7-1.8c-0.8-0.4-1.8-0.9-2.5-1.5c-0.5-0.4-0.6-0.7-0.6-1.3c0-1,0.4-2,0.7-2.9c0.3-1.2,0.7-2.3,1.2-3.4
		c0.7-1.6,1.6-3.1,2.8-4.4c-0.1,0.4-0.2,0.7-0.3,1.1c-0.5,2.5,0.3,5,2,6.9c2.1,2.1,4-1.4,4.6-3.1c0.6-1.7,0.5-3.6-0.1-5.3
		c-0.3-0.8-0.8-1.6-1.4-2.1c0.8-0.1,1.7-0.1,2.6,0c2.3,0.5,4.3,1.9,5.8,3.7c1.1,1.5,2,3.3,2.6,5.1C63.7,58.7,64.1,60.7,63,62.3z"/>
	<path class="st4" d="M48.2,32.8c0.5-0.3,0.7-0.9,0.4-1.5c-1.3-2.2-2.9-4.2-4.6-6c-0.9-0.9-1.8-1.7-2.7-2.5c-1-0.8-2-1.7-3.2-2
		c-2.3-0.7-4.1,0.9-4.8,3c-0.8,2.2-0.7,4.8-0.6,7.1c0.2,2.9,0.8,5.8,1.6,8.6c0.1,0.3,0.3,0.6,0.6,0.7c0.2,0.1,0.5,0.1,0.7,0.1
		c2.3-0.5,4.3-2.1,6.2-3.3C43.9,35.6,46.1,34.2,48.2,32.8z M37.8,36.9c-0.6,0.4-1.2,0.7-1.9,1c-1.1-3.8-1.7-8-1.1-11.9
		c0.2-1.2,0.7-3.5,2.4-3.2c1,0.2,1.9,1,2.6,1.6c0.8,0.7,1.6,1.4,2.4,2.2c1.5,1.5,2.8,3.2,4,5c-1.8,1.1-3.6,2.3-5.4,3.4
		C39.9,35.6,38.9,36.3,37.8,36.9z"/>
	<path class="st4" d="M78.4,31.3c0.1,0,0.1,0,0.2,0c0,0,0.1,0,0.1,0c3.7,0.6,7.3,1.8,10.5,3.7c0.6,0.3,1.4,0,1.6-0.6
		c0.6-2.3,0.9-4.7,1-7.1c0-1.2,0-2.4-0.1-3.6c-0.1-1-0.1-2.1-0.5-3.1c-0.3-0.9-1-1.7-2-1.8c-1.1-0.2-2,0.4-2.9,1
		c-1.7,1.2-3.3,2.6-4.6,4.1c-1.6,1.8-2.9,3.8-4,5.9c0,0,0,0,0,0c0,0.1-0.1,0.2-0.1,0.2C77.5,30.5,77.8,31.2,78.4,31.3z M83.3,25.3
		c1.4-1.6,3.2-3.3,5.1-4.3c0.4-0.2,0.6-0.3,0.8,0.1c0.2,0.3,0.2,0.8,0.3,1.1c0.2,1.3,0.2,2.6,0.2,3.8c0,2.2-0.2,4.3-0.7,6.4
		c-2.7-1.4-5.7-2.4-8.7-3C81.2,28,82.1,26.6,83.3,25.3z"/>
	<path class="st4" d="M95.2,42.5c0,0-0.1-0.1-0.1-0.1c-2-1.1-4.4-1.6-6.7-1.3c-2.2,0.3-4,1.6-5.2,3.4c-2.6,3.6-3.4,8.3-3.6,12.6
		c-0.1,1.1-0.3,2.4,0.2,3.5c0.5,1,1.4,1.5,2.5,1.7c2.5,0.4,5,0.4,7.6-0.1c2.4-0.4,4.8-1.3,6.9-2.6c1-0.6,1.9-1.3,2.5-2.3
		c0.6-1,0.9-2.1,1-3.3c0.2-2.2-0.1-4.3-1-6.4C98.4,45.6,97.1,43.6,95.2,42.5z M98.2,52.1c0,1.8-0.2,3.7-1.6,5
		c-1.5,1.3-3.5,2.1-5.3,2.6c-2,0.6-4.1,0.9-6.2,0.8c-0.5,0-1-0.1-1.6-0.1c-0.4-0.1-1-0.1-1.4-0.3c-0.7-0.3-0.4-1.4-0.4-2
		c0.2-3.6,0.6-7.2,2.2-10.5c0,0.1-0.1,0.2-0.1,0.3c-0.5,2.5,0.3,5,2,6.9c2.1,2.1,4-1.4,4.6-3.1c0.6-1.7,0.5-3.6-0.1-5.3
		c-0.5-1.4-1.5-2.7-3-2.6c0.2-0.1,0.5-0.2,0.7-0.3c2-0.6,4.2-0.2,6,0.9c1.3,0.8,2.2,2.2,2.9,3.5C97.6,49.1,98.2,50.6,98.2,52.1z"/>
	<path class="st5" d="M54.5,74.5c-2-1.3-4.6-1.3-6.6,0c-2.2,1.5-3.2,4.1-2.6,6.7c0.7,2.5,3.1,4.4,5.7,4.5c2.7,0.1,5.2-1.8,6-4.3
		C57.8,78.9,56.7,76,54.5,74.5z"/>
	<path class="st5" d="M102.6,66.9c-0.7-1.5-2.2-2.3-3.8-1.9c-1.7,0.5-2.7,2.1-3.1,3.7c-0.4,1.8-0.1,3.9,1.5,5c0,0,0.1,0.1,0.1,0.1
		c0,0,0.1,0.1,0.1,0.1c2.1,1.1,4.4-0.4,5.3-2.3C103.4,70.2,103.3,68.4,102.6,66.9z"/>
</g>
</svg>
