<?xml version="1.0" encoding="utf-8"?>
<!-- Generator: Adobe Illustrator 23.0.1, SVG Export Plug-In . SVG Version: 6.00 Build 0)  -->
<svg version="1.1" id="Layer_1" xmlns="http://www.w3.org/2000/svg" xmlns:xlink="http://www.w3.org/1999/xlink" x="0px" y="0px"
	 viewBox="0 0 21.5 21.5" style="enable-background:new 0 0 21.5 21.5;" xml:space="preserve">
<g>
	<g>
		<path d="M12.7,10.5c0-0.1-0.1-0.2-0.2-0.2c-0.1,0-0.2,0.1-0.2,0.2l0.4,7.3v0.1c0.1,0.9-0.2,1.8-0.7,2.4c-0.3,0.4-0.7,0.5-1.1,0.5
			c-0.4,0-0.8-0.2-1.1-0.5c-0.5-0.6-0.8-1.4-0.7-2.4l0.5-7.3c0-0.1-0.1-0.2-0.2-0.2s-0.2,0.1-0.2,0.2l-0.5,7.3c-0.1,1,0.3,2,0.9,2.6
			c0.4,0.4,0.9,0.7,1.4,0.7c0.5,0,1-0.2,1.4-0.7c0.6-0.6,0.9-1.6,0.9-2.6L12.7,10.5z"/>
		<path d="M11,21.3c-0.6,0-1.1-0.2-1.5-0.7c-0.6-0.7-1-1.7-0.9-2.8L9,10.5c0-0.2,0.2-0.3,0.4-0.3c0.2,0,0.3,0.2,0.3,0.4l-0.5,7.3
			c-0.1,0.9,0.2,1.7,0.7,2.2c0.3,0.3,0.7,0.5,1,0.5c0.4,0,0.7-0.2,1-0.5c0.5-0.5,0.8-1.4,0.7-2.2l0-0.1l-0.4-7.2c0-0.1,0-0.2,0-0.2
			c0.1-0.1,0.1-0.1,0.2-0.1c0.1,0,0.2,0,0.2,0c0.1,0.1,0.1,0.2,0.1,0.3l0.6,7.3c0.1,1.1-0.3,2.1-0.9,2.8C12.1,21,11.6,21.3,11,21.3z
			 M9.4,10.5C9.4,10.5,9.4,10.5,9.4,10.5l-0.5,7.3c-0.1,1,0.2,1.9,0.8,2.5c0.4,0.4,0.9,0.6,1.3,0.6c0.5,0,0.9-0.2,1.3-0.6
			c0.6-0.6,0.9-1.5,0.8-2.5l-0.6-7.3l0,0l0.5,7.4c0.1,0.9-0.2,1.9-0.8,2.5c-0.3,0.4-0.8,0.6-1.3,0.6s-0.9-0.2-1.3-0.6
			c-0.6-0.6-0.8-1.5-0.8-2.5L9.4,10.5C9.4,10.5,9.4,10.5,9.4,10.5z"/>
	</g>
	<g>
		<path d="M17.4,1.1c-0.1,0-0.2,0-0.2,0.1c0,0.1,0,0.2,0.1,0.2c0.4,0.1,0.7,0.5,0.7,1V8c0,0.6-0.5,1.1-1.1,1.1H4.8
			C4.3,9.1,3.8,8.6,3.8,8V2.4c0-0.4,0.3-0.9,0.7-1c0.1,0,0.2-0.1,0.1-0.2c0-0.1-0.1-0.2-0.2-0.1c-0.6,0.2-1,0.7-1,1.3V8
			c0,0.8,0.6,1.4,1.4,1.4H17c0.8,0,1.4-0.6,1.4-1.4V2.4C18.4,1.8,18,1.3,17.4,1.1z"/>
		<path d="M17,9.6H4.8C4,9.6,3.3,8.9,3.3,8V2.4c0-0.7,0.5-1.3,1.1-1.5c0.2-0.1,0.4,0,0.4,0.2c0,0.1,0,0.2,0,0.3
			c0,0.1-0.1,0.1-0.2,0.2C4.2,1.7,3.9,2,3.9,2.4V8c0,0.5,0.4,0.9,0.9,0.9H17c0.5,0,0.9-0.4,0.9-0.9V2.4c0-0.4-0.3-0.7-0.6-0.8
			C17.1,1.5,17,1.3,17,1.2c0.1-0.2,0.2-0.3,0.4-0.2l0,0c0.6,0.2,1.1,0.8,1.1,1.5V8C18.5,8.9,17.9,9.6,17,9.6z M4.5,1.2
			C3.9,1.4,3.6,1.9,3.6,2.4V8c0,0.7,0.5,1.2,1.2,1.2H17c0.7,0,1.2-0.5,1.2-1.2V2.4V8c0,0.7-0.6,1.2-1.2,1.2H4.8
			C4.2,9.2,3.6,8.7,3.6,8V2.4C3.6,1.9,4,1.4,4.5,1.2C4.5,1.3,4.5,1.3,4.5,1.2C4.5,1.2,4.5,1.2,4.5,1.2z M17.4,1.1l-0.1,0.2
			c0,0,0,0,0,0c0,0,0,0,0,0c0.5,0.1,0.8,0.6,0.8,1.1c0-0.5-0.3-1-0.8-1.2L17.4,1.1z"/>
	</g>
	<g>
		<path d="M5.5,2.7c0.1,0,0.2-0.1,0.2-0.2v-2c0-0.1-0.1-0.2-0.2-0.2c-0.1,0-0.2,0.1-0.2,0.2v2C5.3,2.6,5.4,2.7,5.5,2.7z"/>
		<path d="M5.5,2.9c-0.2,0-0.4-0.2-0.4-0.4v-2c0-0.2,0.2-0.4,0.4-0.4s0.4,0.2,0.4,0.4v2C5.8,2.7,5.7,2.9,5.5,2.9z M5.5,0.5
			C5.5,0.5,5.5,0.6,5.5,0.5l0,2c0,0,0,0,0,0c0,0,0,0,0,0L5.5,0.5C5.5,0.6,5.5,0.5,5.5,0.5z"/>
	</g>
	<g>
		<path d="M7.7,2.7c0.1,0,0.2-0.1,0.2-0.2v-2c0-0.1-0.1-0.2-0.2-0.2c-0.1,0-0.2,0.1-0.2,0.2v2C7.5,2.6,7.6,2.7,7.7,2.7z"/>
		<path d="M7.7,2.9c-0.2,0-0.4-0.2-0.4-0.4v-2c0-0.2,0.2-0.4,0.4-0.4S8,0.4,8,0.6v2C8,2.7,7.9,2.9,7.7,2.9z M7.7,0.5
			C7.7,0.5,7.7,0.6,7.7,0.5l0,2c0,0,0,0,0,0c0,0,0,0,0,0L7.7,0.5C7.7,0.6,7.7,0.5,7.7,0.5z"/>
	</g>
	<g>
		<path d="M9.9,2.7c0.1,0,0.2-0.1,0.2-0.2v-2c0-0.1-0.1-0.2-0.2-0.2c-0.1,0-0.2,0.1-0.2,0.2v2C9.7,2.6,9.8,2.7,9.9,2.7z"/>
		<path d="M9.9,2.9c-0.2,0-0.4-0.2-0.4-0.4v-2c0-0.2,0.2-0.4,0.4-0.4c0.2,0,0.4,0.2,0.4,0.4v2C10.2,2.7,10.1,2.9,9.9,2.9z M9.9,0.5
			C9.9,0.5,9.9,0.6,9.9,0.5l0,2c0,0,0,0,0,0c0,0,0,0,0,0L9.9,0.5C9.9,0.6,9.9,0.5,9.9,0.5z"/>
	</g>
	<g>
		<path d="M12.1,2.7c0.1,0,0.2-0.1,0.2-0.2v-2c0-0.1-0.1-0.2-0.2-0.2s-0.2,0.1-0.2,0.2v2C11.9,2.6,12,2.7,12.1,2.7z"/>
		<path d="M12.1,2.9c-0.2,0-0.4-0.2-0.4-0.4v-2c0-0.2,0.2-0.4,0.4-0.4c0.2,0,0.4,0.2,0.4,0.4v2C12.4,2.7,12.3,2.9,12.1,2.9z
			 M12.1,0.5C12.1,0.5,12.1,0.6,12.1,0.5l0,2c0,0,0,0,0,0c0,0,0,0,0,0L12.1,0.5C12.1,0.6,12.1,0.5,12.1,0.5z"/>
	</g>
	<g>
		<path d="M14.3,2.7c0.1,0,0.2-0.1,0.2-0.2v-2c0-0.1-0.1-0.2-0.2-0.2s-0.2,0.1-0.2,0.2v2C14.1,2.6,14.2,2.7,14.3,2.7z"/>
		<path d="M14.3,2.9c-0.2,0-0.4-0.2-0.4-0.4v-2c0-0.2,0.2-0.4,0.4-0.4c0.2,0,0.4,0.2,0.4,0.4v2C14.6,2.7,14.5,2.9,14.3,2.9z
			 M14.3,0.5C14.3,0.5,14.3,0.6,14.3,0.5l0,2c0,0,0,0,0,0c0,0,0,0,0,0L14.3,0.5C14.3,0.6,14.3,0.5,14.3,0.5z"/>
	</g>
	<g>
		<path d="M16.5,2.7c0.1,0,0.2-0.1,0.2-0.2v-2c0-0.1-0.1-0.2-0.2-0.2c-0.1,0-0.2,0.1-0.2,0.2v2C16.3,2.6,16.4,2.7,16.5,2.7z"/>
		<path d="M16.5,2.9c-0.2,0-0.4-0.2-0.4-0.4v-2c0-0.2,0.2-0.4,0.4-0.4c0.2,0,0.4,0.2,0.4,0.4v2C16.8,2.7,16.7,2.9,16.5,2.9z
			 M16.5,0.5C16.5,0.5,16.5,0.6,16.5,0.5l0,2c0,0,0,0,0,0c0,0,0,0,0,0L16.5,0.5C16.5,0.6,16.5,0.5,16.5,0.5z"/>
	</g>
	<g>
		<path d="M5.5,5.8c0.1,0,0.2-0.1,0.2-0.2v-2c0-0.1-0.1-0.2-0.2-0.2c-0.1,0-0.2,0.1-0.2,0.2v2C5.3,5.8,5.4,5.8,5.5,5.8z"/>
		<path d="M5.5,6C5.3,6,5.1,5.8,5.1,5.6v-2c0-0.2,0.2-0.4,0.4-0.4s0.4,0.2,0.4,0.4v2C5.8,5.8,5.7,6,5.5,6z M5.5,5.7
			C5.5,5.7,5.5,5.7,5.5,5.7C5.5,5.7,5.5,5.6,5.5,5.7l0.1-2c0,0,0,0,0,0c0,0,0,0,0,0L5.5,5.7C5.5,5.6,5.5,5.7,5.5,5.7
			C5.5,5.7,5.5,5.7,5.5,5.7z"/>
	</g>
	<g>
		<path d="M7.7,5.8c0.1,0,0.2-0.1,0.2-0.2v-2c0-0.1-0.1-0.2-0.2-0.2c-0.1,0-0.2,0.1-0.2,0.2v2C7.5,5.8,7.6,5.8,7.7,5.8z"/>
		<path d="M7.7,6C7.5,6,7.3,5.8,7.3,5.6v-2c0-0.2,0.2-0.4,0.4-0.4S8,3.5,8,3.7v2C8,5.8,7.9,6,7.7,6z M7.7,3.6
			C7.7,3.6,7.7,3.6,7.7,3.6l0,2c0,0,0,0,0,0c0,0,0,0,0,0L7.7,3.6C7.7,3.6,7.7,3.6,7.7,3.6z"/>
	</g>
	<g>
		<path d="M9.9,5.8c0.1,0,0.2-0.1,0.2-0.2v-2c0-0.1-0.1-0.2-0.2-0.2c-0.1,0-0.2,0.1-0.2,0.2v2C9.7,5.8,9.8,5.8,9.9,5.8z"/>
		<path d="M9.9,6C9.7,6,9.5,5.8,9.5,5.6v-2c0-0.2,0.2-0.4,0.4-0.4c0.2,0,0.4,0.2,0.4,0.4v2C10.2,5.8,10.1,6,9.9,6z M9.9,3.6
			C9.9,3.6,9.9,3.6,9.9,3.6l0,2c0,0,0,0,0,0c0,0,0,0,0,0L9.9,3.6C9.9,3.6,9.9,3.6,9.9,3.6z"/>
	</g>
	<g>
		<path d="M12.1,5.8c0.1,0,0.2-0.1,0.2-0.2v-2c0-0.1-0.1-0.2-0.2-0.2s-0.2,0.1-0.2,0.2v2C11.9,5.8,12,5.8,12.1,5.8z"/>
		<path d="M12.1,6c-0.2,0-0.4-0.2-0.4-0.4v-2c0-0.2,0.2-0.4,0.4-0.4c0.2,0,0.4,0.2,0.4,0.4v2C12.4,5.8,12.3,6,12.1,6z M12.1,3.6
			C12.1,3.6,12.1,3.6,12.1,3.6l0,2c0,0,0,0,0,0c0,0,0,0,0,0L12.1,3.6C12.1,3.6,12.1,3.6,12.1,3.6z"/>
	</g>
	<g>
		<path d="M14.3,5.8c0.1,0,0.2-0.1,0.2-0.2v-2c0-0.1-0.1-0.2-0.2-0.2s-0.2,0.1-0.2,0.2v2C14.1,5.8,14.2,5.8,14.3,5.8z"/>
		<path d="M14.3,6c-0.2,0-0.4-0.2-0.4-0.4v-2c0-0.2,0.2-0.4,0.4-0.4c0.2,0,0.4,0.2,0.4,0.4v2C14.6,5.8,14.5,6,14.3,6z M14.3,3.6
			C14.3,3.6,14.3,3.6,14.3,3.6l0,2c0,0,0,0,0,0c0,0,0,0,0,0L14.3,3.6C14.3,3.6,14.3,3.6,14.3,3.6z"/>
	</g>
	<g>
		<path d="M16.5,5.8c0.1,0,0.2-0.1,0.2-0.2v-2c0-0.1-0.1-0.2-0.2-0.2c-0.1,0-0.2,0.1-0.2,0.2v2C16.3,5.8,16.4,5.8,16.5,5.8z"/>
		<path d="M16.5,6c-0.2,0-0.4-0.2-0.4-0.4v-2c0-0.2,0.2-0.4,0.4-0.4c0.2,0,0.4,0.2,0.4,0.4v2C16.8,5.8,16.7,6,16.5,6z M16.5,3.6
			C16.5,3.6,16.5,3.6,16.5,3.6l0,2c0,0,0,0,0,0c0,0,0,0,0,0L16.5,3.6C16.5,3.6,16.5,3.6,16.5,3.6z"/>
	</g>
	<g>
		<path d="M5.5,8.2c0.1,0,0.2-0.1,0.2-0.2V6.8c0-0.1-0.1-0.2-0.2-0.2c-0.1,0-0.2,0.1-0.2,0.2V8C5.3,8.1,5.4,8.2,5.5,8.2z"/>
		<path d="M5.5,8.3C5.3,8.3,5.1,8.2,5.1,8V6.8c0-0.2,0.2-0.4,0.4-0.4s0.4,0.2,0.4,0.4V8C5.8,8.1,5.7,8.3,5.5,8.3z M5.5,6.7
			C5.5,6.8,5.5,6.8,5.5,6.7l0,1.2c0,0,0,0,0,0c0,0,0,0,0,0L5.5,6.7C5.5,6.8,5.5,6.8,5.5,6.7z"/>
	</g>
	<g>
		<path d="M7.7,8.2c0.1,0,0.2-0.1,0.2-0.2V6.8c0-0.1-0.1-0.2-0.2-0.2c-0.1,0-0.2,0.1-0.2,0.2V8C7.5,8.1,7.6,8.2,7.7,8.2z"/>
		<path d="M7.7,8.3C7.5,8.3,7.3,8.1,7.3,8V6.8c0-0.2,0.2-0.4,0.4-0.4S8,6.6,8,6.8V8C8,8.1,7.9,8.3,7.7,8.3z M7.7,6.7
			C7.7,6.8,7.7,6.8,7.7,6.7l0,1.2c0,0,0,0,0,0c0,0,0,0,0,0L7.7,6.7C7.7,6.8,7.7,6.8,7.7,6.7z"/>
	</g>
	<g>
		<path d="M9.9,8.2c0.1,0,0.2-0.1,0.2-0.2V6.8c0-0.1-0.1-0.2-0.2-0.2c-0.1,0-0.2,0.1-0.2,0.2V8C9.7,8.1,9.8,8.2,9.9,8.2z"/>
		<path d="M9.9,8.3C9.7,8.3,9.5,8.1,9.5,8V6.8c0-0.2,0.2-0.4,0.4-0.4c0.2,0,0.4,0.2,0.4,0.4V8C10.2,8.1,10.1,8.3,9.9,8.3z M9.9,6.7
			C9.9,6.8,9.9,6.8,9.9,6.7l0,1.2c0,0,0,0,0,0c0,0,0,0,0,0L9.9,6.7C9.9,6.8,9.9,6.8,9.9,6.7z"/>
	</g>
	<g>
		<path d="M12.1,8.2c0.1,0,0.2-0.1,0.2-0.2V6.8c0-0.1-0.1-0.2-0.2-0.2s-0.2,0.1-0.2,0.2V8C11.9,8.1,12,8.2,12.1,8.2z"/>
		<path d="M12.1,8.3c-0.2,0-0.4-0.2-0.4-0.4V6.8c0-0.2,0.2-0.4,0.4-0.4c0.2,0,0.4,0.2,0.4,0.4V8C12.4,8.1,12.3,8.3,12.1,8.3z
			 M12.1,6.7C12.1,6.8,12.1,6.8,12.1,6.7l0,1.2c0,0,0,0,0,0c0,0,0,0,0,0L12.1,6.7C12.1,6.8,12.1,6.8,12.1,6.7z"/>
	</g>
	<g>
		<path d="M14.3,8.2c0.1,0,0.2-0.1,0.2-0.2V6.8c0-0.1-0.1-0.2-0.2-0.2s-0.2,0.1-0.2,0.2V8C14.1,8.1,14.2,8.2,14.3,8.2z"/>
		<path d="M14.3,8.3c-0.2,0-0.4-0.2-0.4-0.4V6.8c0-0.2,0.2-0.4,0.4-0.4c0.2,0,0.4,0.2,0.4,0.4V8C14.6,8.1,14.5,8.3,14.3,8.3z
			 M14.3,6.7C14.3,6.8,14.3,6.8,14.3,6.7l0,1.2c0,0,0,0,0,0c0,0,0,0,0,0L14.3,6.7C14.3,6.8,14.3,6.8,14.3,6.7z"/>
	</g>
	<g>
		<path d="M16.5,8.2c0.1,0,0.2-0.1,0.2-0.2V6.8c0-0.1-0.1-0.2-0.2-0.2c-0.1,0-0.2,0.1-0.2,0.2V8C16.3,8.1,16.4,8.2,16.5,8.2z"/>
		<path d="M16.5,8.3c-0.2,0-0.4-0.2-0.4-0.4V6.8c0-0.2,0.2-0.4,0.4-0.4c0.2,0,0.4,0.2,0.4,0.4V8C16.8,8.1,16.7,8.3,16.5,8.3z
			 M16.5,6.7C16.5,6.8,16.5,6.8,16.5,6.7l0,1.2c0,0,0,0,0,0c0,0,0,0,0,0L16.5,6.7C16.5,6.8,16.5,6.8,16.5,6.7z"/>
	</g>
	<g>
		<path d="M6.7,4.3c0.1,0,0.2-0.1,0.2-0.2v-2c0-0.1-0.1-0.2-0.2-0.2C6.6,1.9,6.5,2,6.5,2.1v2C6.5,4.2,6.6,4.3,6.7,4.3z"/>
		<path d="M6.7,4.4c-0.2,0-0.4-0.2-0.4-0.4v-2c0-0.2,0.2-0.4,0.4-0.4C6.9,1.7,7,1.9,7,2.1v2C7,4.3,6.9,4.4,6.7,4.4z M6.7,2.1
			C6.7,2.1,6.6,2.1,6.7,2.1l0,2c0,0,0,0,0,0c0,0,0,0,0,0L6.7,2.1C6.7,2.1,6.7,2.1,6.7,2.1z"/>
	</g>
	<g>
		<path d="M8.9,4.3c0.1,0,0.2-0.1,0.2-0.2v-2C9.1,2,9,1.9,8.9,1.9C8.8,1.9,8.7,2,8.7,2.1v2C8.7,4.2,8.8,4.3,8.9,4.3z"/>
		<path d="M8.9,4.4c-0.2,0-0.3-0.1-0.3-0.3l0-0.1v-2c0-0.2,0.2-0.4,0.4-0.4c0.2,0,0.4,0.2,0.4,0.4v2C9.2,4.3,9.1,4.4,8.9,4.4z
			 M8.8,4C8.9,4.1,8.9,4.1,8.8,4C8.9,4.1,8.9,4.1,8.8,4l0.1-1.9c0,0,0,0,0,0c0,0,0,0,0,0V4z"/>
	</g>
	<g>
		<path d="M11.1,4.3c0.1,0,0.2-0.1,0.2-0.2v-2c0-0.1-0.1-0.2-0.2-0.2S10.9,2,10.9,2.1v2C10.9,4.2,11,4.3,11.1,4.3z"/>
		<path d="M11.1,4.4c-0.2,0-0.3-0.1-0.3-0.3l0-0.1v-2c0-0.2,0.2-0.4,0.4-0.4c0.2,0,0.4,0.2,0.4,0.4v2C11.4,4.3,11.3,4.4,11.1,4.4z
			 M11,4C11.1,4.1,11.1,4.1,11,4C11.1,4.1,11.1,4.1,11,4l0.1-1.9c0,0,0,0,0,0c0,0,0,0,0,0V4z"/>
	</g>
	<g>
		<path d="M13.3,4.3c0.1,0,0.2-0.1,0.2-0.2v-2c0-0.1-0.1-0.2-0.2-0.2S13.1,2,13.1,2.1v2C13.1,4.2,13.2,4.3,13.3,4.3z"/>
		<path d="M13.3,4.4c-0.2,0-0.4-0.2-0.4-0.4v-2c0-0.2,0.2-0.4,0.4-0.4c0.2,0,0.4,0.2,0.4,0.4v2C13.7,4.3,13.5,4.4,13.3,4.4z
			 M13.3,2.1C13.3,2.1,13.3,2.1,13.3,2.1l0,2c0,0,0,0,0,0c0,0,0,0,0,0L13.3,2.1C13.3,2.1,13.3,2.1,13.3,2.1z"/>
	</g>
	<g>
		<path d="M15.5,4.3c0.1,0,0.2-0.1,0.2-0.2v-2c0-0.1-0.1-0.2-0.2-0.2S15.3,2,15.3,2.1v2C15.3,4.2,15.4,4.3,15.5,4.3z"/>
		<path d="M15.5,4.4c-0.2,0-0.4-0.2-0.4-0.4v-2c0-0.2,0.2-0.4,0.4-0.4s0.4,0.2,0.4,0.4v2C15.9,4.3,15.7,4.4,15.5,4.4z M15.5,2.1
			C15.5,2.1,15.5,2.1,15.5,2.1l0,2c0,0,0,0,0,0c0,0,0,0,0,0L15.5,2.1C15.5,2.1,15.5,2.1,15.5,2.1z"/>
	</g>
	<g>
		<path d="M6.7,7.4c0.1,0,0.2-0.1,0.2-0.2v-2C6.9,5.1,6.8,5,6.7,5C6.6,5,6.5,5.1,6.5,5.2v2C6.5,7.3,6.6,7.4,6.7,7.4z"/>
		<path d="M6.7,7.5c-0.2,0-0.4-0.2-0.4-0.4v-2c0-0.2,0.2-0.4,0.4-0.4C6.9,4.8,7,5,7,5.2v2C7,7.3,6.9,7.5,6.7,7.5z M6.7,5.2
			C6.7,5.2,6.6,5.2,6.7,5.2l0,2c0,0,0,0,0,0c0,0,0,0,0,0L6.7,5.2C6.7,5.2,6.7,5.2,6.7,5.2z"/>
	</g>
	<g>
		<path d="M8.9,7.4c0.1,0,0.2-0.1,0.2-0.2v-2C9.1,5.1,9,5,8.9,5C8.8,5,8.7,5.1,8.7,5.2v2C8.7,7.3,8.8,7.4,8.9,7.4z"/>
		<path d="M8.9,7.5c-0.1,0-0.3,0-0.3-0.3l0,0v-2c0-0.2,0.2-0.4,0.4-0.4c0.2,0,0.4,0.2,0.4,0.4v2C9.2,7.3,9.1,7.5,8.9,7.5z M8.8,7.1
			C8.9,7.2,8.9,7.2,8.8,7.1L8.8,7.1C8.9,7.2,8.9,7.2,8.8,7.1l0.1-2c0,0,0,0,0,0c0,0,0,0,0,0V7.1z"/>
	</g>
	<g>
		<path d="M11.1,7.4c0.1,0,0.2-0.1,0.2-0.2v-2c0-0.1-0.1-0.2-0.2-0.2s-0.2,0.1-0.2,0.2v2C10.9,7.3,11,7.4,11.1,7.4z"/>
		<path d="M11.1,7.5c-0.1,0-0.3,0-0.3-0.3l0,0v-2c0-0.2,0.2-0.4,0.4-0.4c0.2,0,0.4,0.2,0.4,0.4v2C11.4,7.3,11.3,7.5,11.1,7.5z
			 M11,7.1C11.1,7.2,11.1,7.2,11,7.1L11,7.1C11.1,7.2,11.1,7.2,11,7.1l0.1-2c0,0,0,0,0,0c0,0,0,0,0,0V7.1z"/>
	</g>
	<g>
		<path d="M13.3,7.4c0.1,0,0.2-0.1,0.2-0.2v-2c0-0.1-0.1-0.2-0.2-0.2s-0.2,0.1-0.2,0.2v2C13.1,7.3,13.2,7.4,13.3,7.4z"/>
		<path d="M13.3,7.5c-0.2,0-0.4-0.1-0.4-0.4v-2c0-0.2,0.2-0.4,0.4-0.4c0.2,0,0.4,0.2,0.4,0.4v2C13.7,7.3,13.5,7.5,13.3,7.5z
			 M13.3,7.2C13.3,7.2,13.3,7.2,13.3,7.2C13.3,7.2,13.3,7.2,13.3,7.2l0.1-2c0,0,0,0,0,0c0,0,0,0,0,0L13.3,7.2
			C13.3,7.2,13.3,7.2,13.3,7.2C13.3,7.2,13.3,7.2,13.3,7.2z"/>
	</g>
	<g>
		<path d="M15.5,7.4c0.1,0,0.2-0.1,0.2-0.2v-2c0-0.1-0.1-0.2-0.2-0.2s-0.2,0.1-0.2,0.2v2C15.3,7.3,15.4,7.4,15.5,7.4z"/>
		<path d="M15.5,7.5c-0.2,0-0.4-0.2-0.4-0.4v-2c0-0.2,0.2-0.4,0.4-0.4s0.4,0.2,0.4,0.4v2C15.9,7.3,15.7,7.5,15.5,7.5z M15.5,5.2
			C15.5,5.2,15.5,5.2,15.5,5.2l0,2c0,0,0,0,0,0c0,0,0,0,0,0L15.5,5.2C15.5,5.2,15.5,5.2,15.5,5.2z"/>
	</g>
</g>
</svg>
