<?xml version="1.0" encoding="utf-8"?>
<svg version="1.1" xmlns="http://www.w3.org/2000/svg" xmlns:xlink="http://www.w3.org/1999/xlink" height="21.100000000000023" width="15.200000000000045">
  <defs>
    <path id="path-0" opacity="1" d="M7.599999999999919,4.293757802746086 C9.428178694157994,4.293757802746086 10.942955326460398,5.795255930086907 10.942955326460398,7.665543071160562 C10.916838487972427,9.535830212234217 9.428178694157994,11.037328339575037 7.599999999999919,11.037328339575037 C5.7718213058418435,11.037328339575037 4.25704467353944,9.535830212234215 4.25704467353944,7.665543071160562 C4.25704467353944,5.821598002496396 5.745704467353873,4.293757802746086 7.599999999999919,4.293757802746086 L7.599999999999919,4.293757802746086ZM7.599999999999812,3.3717852684142144 C5.223367697594297,3.3717852684142144 3.3168384879722907,5.294756554306859 3.3168384879722907,7.691885143570291 C3.3168384879722907,10.089013732833724 5.223367697594297,12.011985018726367 7.599999999999812,12.011985018726367 C9.976632302405328,12.011985018726367 11.883161512027332,10.089013732833724 11.883161512027332,7.691885143570291 C11.883161512027332,5.294756554306858 9.950515463917354,3.3717852684142144 7.599999999999812,3.3717852684142144 L7.599999999999812,3.3717852684142144ZM7.60000000000014,0.9746566791504847 C11.282474226804263,0.9746566791504847 14.25979381443313,3.9776529338321343 14.25979381443313,7.691885143569965 C14.25979381443313,11.406117353307796 7.60000000000014,19.677528089887076 7.60000000000014,19.677528089887076 C7.60000000000014,19.677528089887076 0.9402061855671491,11.406117353307796 0.94020618556715,7.691885143569965 C0.94020618556715,3.9776529338321343 3.9175257731960174,0.9746566791504847 7.60000000000014,0.9746566791504847 L7.60000000000014,0.9746566791504847ZM7.600000000000004,1.8989999999999995e-15 C7.600000000000006,1.8989999999999987e-15 0,3.424469413233459 0,7.665543071161049 C0,11.90661672908864 7.600000000000004,21.099999999999994 7.600000000000004,21.099999999999994 C7.600000000000004,21.099999999999994 15.20000000000001,11.906616729088636 15.20000000000001,7.665543071161048 C15.20000000000001,3.4508114856429475 11.804810996563585,1.8989999999999987e-15 7.600000000000007,1.8989999999999987e-15 L7.600000000000004,1.8989999999999995e-15Z"/>
  </defs>
  <g opacity="1">
    <g opacity="1">
      <g>
        <use xlink:href="#path-0" fill="rgb(35,31,32)" fill-opacity="1"/>
      </g>
    </g>
  </g>
</svg>