<?xml version="1.0" encoding="utf-8"?>
<!-- Generator: Adobe Illustrator 24.1.1, SVG Export Plug-In . SVG Version: 6.00 Build 0)  -->
<svg version="1.1" id="Layer_1" xmlns="http://www.w3.org/2000/svg" xmlns:xlink="http://www.w3.org/1999/xlink" x="0px" y="0px"
	 viewBox="0 0 71 80" style="enable-background:new 0 0 71 80;" xml:space="preserve">
<style type="text/css">
	.st0{fill:#A6A6A6;}
</style>
<path class="st0" d="M52.5,80H71l-3-10.6c-1.6-5.6-6-9.8-11.7-11l-12.2-2.5v-0.6c4-2.4,7-6.4,8.2-11.1c4-0.8,7.1-4.4,7.1-8.7V20.3
	c0-6.1-3.9-11.5-9.5-13.3c-3.1-4.4-8.1-7-13.5-7C22.7,0,11.6,11.4,11.6,25.3v10.2c0,4.3,3,7.9,7.1,8.7c1.1,4.7,4.1,8.7,8.2,11.1V56
	l-12.2,2.5C9,59.6,4.5,63.8,2.9,69.4L0,80h18.5H52.5z M52.9,39.4v-7.7c1.3,0.8,2.2,2.2,2.2,3.8C55.1,37.2,54.2,38.6,52.9,39.4z
	 M18.1,39.4c-1.3-0.8-2.2-2.2-2.2-3.8c0-1.6,0.9-3.1,2.2-3.8V39.4z M15.9,27.9v-2.6c0-11.5,9.2-20.9,20.4-20.9
	c4.2,0,8.1,2.1,10.4,5.7l0.5,0.7L48,11c4.2,1.1,7,4.9,7,9.2v7.6c-1.3-0.8-2.7-1.2-4.3-1.2c-5.1,0-10.2-1.7-14.4-4.9l-3.3-2.5
	l-3.2,3.3c-2.6,2.6-6,4.1-9.6,4.1C18.7,26.7,17.2,27.1,15.9,27.9z M22.5,40v-9c4-0.5,7.6-2.3,10.5-5.2l0.6-0.6l0.2,0.2
	c4.3,3.3,9.5,5.3,14.8,5.7v9c0,7.4-5.8,13.3-13,13.3S22.5,47.4,22.5,40z M18.5,75.6H5.8l1.4-4.9c1.1-4,4.3-7,8.3-7.8l15.7-3.2v-2.4
	c1.4,0.4,2.9,0.6,4.3,0.6c1.5,0,3-0.2,4.3-0.6v2.4l15.7,3.2c4,0.8,7.2,3.8,8.3,7.8l1.4,4.9H30.7H18.5z"/>
</svg>
